%TF.GenerationSoftware,KiCad,Pcbnew,(6.0.9)*%
%TF.CreationDate,2024-04-11T16:17:50+03:00*%
%TF.ProjectId,diplomna-shema,6469706c-6f6d-46e6-912d-7368656d612e,rev?*%
%TF.SameCoordinates,Original*%
%TF.FileFunction,Copper,L1,Top*%
%TF.FilePolarity,Positive*%
%FSLAX46Y46*%
G04 Gerber Fmt 4.6, Leading zero omitted, Abs format (unit mm)*
G04 Created by KiCad (PCBNEW (6.0.9)) date 2024-04-11 16:17:50*
%MOMM*%
%LPD*%
G01*
G04 APERTURE LIST*
G04 Aperture macros list*
%AMRoundRect*
0 Rectangle with rounded corners*
0 $1 Rounding radius*
0 $2 $3 $4 $5 $6 $7 $8 $9 X,Y pos of 4 corners*
0 Add a 4 corners polygon primitive as box body*
4,1,4,$2,$3,$4,$5,$6,$7,$8,$9,$2,$3,0*
0 Add four circle primitives for the rounded corners*
1,1,$1+$1,$2,$3*
1,1,$1+$1,$4,$5*
1,1,$1+$1,$6,$7*
1,1,$1+$1,$8,$9*
0 Add four rect primitives between the rounded corners*
20,1,$1+$1,$2,$3,$4,$5,0*
20,1,$1+$1,$4,$5,$6,$7,0*
20,1,$1+$1,$6,$7,$8,$9,0*
20,1,$1+$1,$8,$9,$2,$3,0*%
G04 Aperture macros list end*
%TA.AperFunction,NonConductor*%
%ADD10C,0.200000*%
%TD*%
%TA.AperFunction,SMDPad,CuDef*%
%ADD11RoundRect,0.250000X0.450000X-0.262500X0.450000X0.262500X-0.450000X0.262500X-0.450000X-0.262500X0*%
%TD*%
%TA.AperFunction,SMDPad,CuDef*%
%ADD12RoundRect,0.250000X-0.262500X-0.450000X0.262500X-0.450000X0.262500X0.450000X-0.262500X0.450000X0*%
%TD*%
%TA.AperFunction,SMDPad,CuDef*%
%ADD13RoundRect,0.250000X-1.050000X-0.550000X1.050000X-0.550000X1.050000X0.550000X-1.050000X0.550000X0*%
%TD*%
%TA.AperFunction,ComponentPad*%
%ADD14R,1.700000X1.700000*%
%TD*%
%TA.AperFunction,ComponentPad*%
%ADD15O,1.700000X1.700000*%
%TD*%
%TA.AperFunction,SMDPad,CuDef*%
%ADD16RoundRect,0.250000X-0.450000X0.262500X-0.450000X-0.262500X0.450000X-0.262500X0.450000X0.262500X0*%
%TD*%
%TA.AperFunction,ComponentPad*%
%ADD17C,1.524000*%
%TD*%
%TA.AperFunction,ComponentPad*%
%ADD18C,1.500000*%
%TD*%
%TA.AperFunction,ComponentPad*%
%ADD19R,1.358000X1.500000*%
%TD*%
%TA.AperFunction,ComponentPad*%
%ADD20R,2.000000X4.000000*%
%TD*%
%TA.AperFunction,ComponentPad*%
%ADD21O,2.000000X3.300000*%
%TD*%
%TA.AperFunction,ComponentPad*%
%ADD22O,3.500000X2.000000*%
%TD*%
%TA.AperFunction,ComponentPad*%
%ADD23R,1.500000X1.500000*%
%TD*%
%TA.AperFunction,ComponentPad*%
%ADD24O,1.500000X1.500000*%
%TD*%
%TA.AperFunction,ViaPad*%
%ADD25C,1.400000*%
%TD*%
%TA.AperFunction,Conductor*%
%ADD26C,0.500000*%
%TD*%
%TA.AperFunction,Conductor*%
%ADD27C,0.300000*%
%TD*%
%TA.AperFunction,Conductor*%
%ADD28C,0.250000*%
%TD*%
G04 APERTURE END LIST*
D10*
X34400000Y-102700000D02*
X30600000Y-102700000D01*
X30600000Y-102700000D02*
X30600000Y-98900000D01*
X30600000Y-23600000D02*
X35600000Y-23600000D01*
X30600000Y-29200000D02*
X30600000Y-23700000D01*
X125100000Y-102700000D02*
X130400000Y-102700000D01*
X130400000Y-23600000D02*
X120200000Y-23600000D01*
X130400000Y-33800000D02*
X130400000Y-23600000D01*
X130400000Y-102700000D02*
X130400000Y-96200000D01*
D11*
%TO.P,R2,1*%
%TO.N,Net-(A2-PadAD0)*%
X53400000Y-86812500D03*
%TO.P,R2,2*%
%TO.N,+5V*%
X53400000Y-84987500D03*
%TD*%
D12*
%TO.P,R9,1*%
%TO.N,Net-(A2-Pad49)*%
X55657500Y-50880000D03*
%TO.P,R9,2*%
X57482500Y-50880000D03*
%TD*%
D13*
%TO.P,C1,1*%
%TO.N,+12V*%
X40100000Y-90100000D03*
%TO.P,C1,2*%
%TO.N,GND*%
X43700000Y-90100000D03*
%TD*%
D14*
%TO.P,M2,1,PWM*%
%TO.N,Net-(A2-Pad35)*%
X54300000Y-91400000D03*
D15*
%TO.P,M2,2,+*%
%TO.N,+5V*%
X54300000Y-93940000D03*
%TO.P,M2,3,-*%
%TO.N,GND*%
X54300000Y-96480000D03*
%TD*%
D14*
%TO.P,REF\u002A\u002A,1*%
%TO.N,N/C*%
X45700000Y-99200000D03*
D15*
%TO.P,REF\u002A\u002A,2*%
X43160000Y-99200000D03*
%TO.P,REF\u002A\u002A,3*%
X40620000Y-99200000D03*
%TO.P,REF\u002A\u002A,4*%
X38080000Y-99200000D03*
%TD*%
D16*
%TO.P,R1,1*%
%TO.N,+5V*%
X57000000Y-85087500D03*
%TO.P,R1,2*%
%TO.N,Net-(R1-Pad2)*%
X57000000Y-86912500D03*
%TD*%
D17*
%TO.P,U3,1,VCC*%
%TO.N,+5V*%
X104725000Y-92250000D03*
%TO.P,U3,2,TRIG*%
%TO.N,Net-(A2-Pad45)*%
X107275000Y-92225000D03*
%TO.P,U3,3,ECHO*%
%TO.N,Net-(A2-Pad47)*%
X109925000Y-92250000D03*
%TO.P,U3,4,GND*%
%TO.N,GND*%
X112475000Y-92250000D03*
%TD*%
D14*
%TO.P,J7,1,Pin_1*%
%TO.N,unconnected-(J7-Pad1)*%
X78475000Y-93200000D03*
D15*
%TO.P,J7,2,Pin_2*%
%TO.N,Net-(A2-Pad39)*%
X81015000Y-93200000D03*
%TO.P,J7,3,Pin_3*%
%TO.N,Net-(A2-Pad37)*%
X83555000Y-93200000D03*
%TD*%
D12*
%TO.P,R5,1*%
%TO.N,Net-(A2-Pad50)*%
X48587500Y-47800000D03*
%TO.P,R5,2*%
%TO.N,Net-(R5-Pad2)*%
X50412500Y-47800000D03*
%TD*%
D17*
%TO.P,U5,6,PIN_6*%
%TO.N,+5V*%
X90190000Y-91880000D03*
%TO.P,U5,7,PIN_7*%
X92740000Y-91880000D03*
%TO.P,U5,8,PIN_8*%
%TO.N,Net-(A2-Pad32)*%
X95290000Y-91905000D03*
%TO.P,U5,9,PIN_9*%
%TO.N,Net-(A2-Pad34)*%
X97840000Y-91880000D03*
%TO.P,U5,10,PIN_10*%
%TO.N,GND*%
X100390000Y-91880000D03*
%TD*%
D12*
%TO.P,R8,1*%
%TO.N,Net-(R8-Pad1)*%
X51375000Y-40600000D03*
%TO.P,R8,2*%
%TO.N,Net-(A2-Pad53)*%
X53200000Y-40600000D03*
%TD*%
D16*
%TO.P,R4,1*%
%TO.N,GND*%
X52100000Y-55917500D03*
%TO.P,R4,2*%
%TO.N,Net-(A2-Pad37)*%
X52100000Y-57742500D03*
%TD*%
D12*
%TO.P,R6,1*%
%TO.N,Net-(A2-Pad52)*%
X51087500Y-35100000D03*
%TO.P,R6,2*%
%TO.N,+3.3V*%
X52912500Y-35100000D03*
%TD*%
%TO.P,R7,1*%
%TO.N,Net-(R7-Pad1)*%
X52175000Y-45100000D03*
%TO.P,R7,2*%
%TO.N,Net-(A2-Pad48)*%
X54000000Y-45100000D03*
%TD*%
D17*
%TO.P,U2,1*%
%TO.N,Net-(R1-Pad2)*%
X59787500Y-90785000D03*
%TO.P,U2,2*%
%TO.N,GND*%
X57787500Y-90785000D03*
%TO.P,U2,3*%
X59787500Y-97185000D03*
%TO.P,U2,4*%
%TO.N,Net-(A2-PadAD0)*%
X57787500Y-97185000D03*
%TD*%
D18*
%TO.P,A2,0,0*%
%TO.N,unconnected-(A2-Pad0)*%
X73825000Y-75630000D03*
%TO.P,A2,1,1*%
%TO.N,unconnected-(A2-Pad1)*%
X76365000Y-75630000D03*
%TO.P,A2,2,2*%
%TO.N,unconnected-(A2-Pad2)*%
X78905000Y-75630000D03*
%TO.P,A2,3,3*%
%TO.N,unconnected-(A2-Pad3)*%
X81445000Y-75630000D03*
%TO.P,A2,3V3,+3V3*%
%TO.N,+3.3V*%
X101765000Y-27370000D03*
%TO.P,A2,4,4*%
%TO.N,unconnected-(A2-Pad4)*%
X83985000Y-75630000D03*
%TO.P,A2,5,5*%
%TO.N,unconnected-(A2-Pad5)*%
X86525000Y-75630000D03*
%TO.P,A2,5V_1,+5V_1*%
%TO.N,+5V*%
X99225000Y-27370000D03*
%TO.P,A2,5V_2,+5V_2*%
X43345000Y-75630000D03*
%TO.P,A2,5V_3,+5V_3*%
X40805000Y-75630000D03*
%TO.P,A2,6,6*%
%TO.N,unconnected-(A2-Pad6)*%
X89065000Y-75630000D03*
%TO.P,A2,7,7*%
%TO.N,unconnected-(A2-Pad7)*%
X91605000Y-75630000D03*
%TO.P,A2,8,8*%
%TO.N,unconnected-(A2-Pad8)*%
X95669000Y-75630000D03*
%TO.P,A2,9,9*%
%TO.N,unconnected-(A2-Pad9)*%
X98209000Y-75630000D03*
%TO.P,A2,10,10*%
%TO.N,unconnected-(A2-Pad10)*%
X100749000Y-75630000D03*
%TO.P,A2,11,11*%
%TO.N,unconnected-(A2-Pad11)*%
X103289000Y-75630000D03*
%TO.P,A2,12,12*%
%TO.N,unconnected-(A2-Pad12)*%
X105829000Y-75630000D03*
%TO.P,A2,13,13*%
%TO.N,unconnected-(A2-Pad13)*%
X108369000Y-75630000D03*
%TO.P,A2,14,14*%
%TO.N,Net-(A2-Pad14)*%
X68745000Y-75630000D03*
%TO.P,A2,15,15*%
%TO.N,unconnected-(A2-Pad15)*%
X66205000Y-75630000D03*
%TO.P,A2,16,16*%
%TO.N,unconnected-(A2-Pad16)*%
X63665000Y-75630000D03*
%TO.P,A2,17,17*%
%TO.N,unconnected-(A2-Pad17)*%
X61125000Y-75630000D03*
%TO.P,A2,18,18*%
%TO.N,unconnected-(A2-Pad18)*%
X58585000Y-75630000D03*
%TO.P,A2,19,19*%
%TO.N,Net-(A2-Pad19)*%
X56045000Y-75630000D03*
%TO.P,A2,20,20*%
%TO.N,unconnected-(A2-Pad20)*%
X53505000Y-75630000D03*
%TO.P,A2,21,21*%
%TO.N,unconnected-(A2-Pad21)*%
X50965000Y-75630000D03*
%TO.P,A2,22,22*%
%TO.N,Net-(A2-Pad22)*%
X43345000Y-73090000D03*
%TO.P,A2,23,23*%
%TO.N,Net-(A1-Pad9)*%
X40805000Y-73090000D03*
%TO.P,A2,24,24*%
%TO.N,Net-(A2-Pad24)*%
X43345000Y-70550000D03*
%TO.P,A2,25,25*%
%TO.N,Net-(A1-Pad15)*%
X40805000Y-70550000D03*
%TO.P,A2,26,26*%
%TO.N,Net-(A2-Pad26)*%
X43345000Y-68010000D03*
%TO.P,A2,27,27*%
%TO.N,Net-(A1-Pad16)*%
X40805000Y-68010000D03*
%TO.P,A2,28,28*%
%TO.N,Net-(A2-Pad28)*%
X43345000Y-65470000D03*
%TO.P,A2,29,29*%
%TO.N,unconnected-(A2-Pad29)*%
X40805000Y-65470000D03*
%TO.P,A2,30,30*%
%TO.N,Net-(A2-Pad30)*%
X43345000Y-62930000D03*
%TO.P,A2,31,31*%
%TO.N,unconnected-(A2-Pad31)*%
X40805000Y-62930000D03*
%TO.P,A2,32,32*%
%TO.N,Net-(A2-Pad32)*%
X43345000Y-60390000D03*
%TO.P,A2,33,33*%
%TO.N,unconnected-(A2-Pad33)*%
X40805000Y-60390000D03*
%TO.P,A2,34,34*%
%TO.N,Net-(A2-Pad34)*%
X43345000Y-57850000D03*
%TO.P,A2,35,35*%
%TO.N,Net-(A2-Pad35)*%
X40805000Y-57850000D03*
%TO.P,A2,36,36*%
%TO.N,unconnected-(A2-Pad36)*%
X43345000Y-55310000D03*
%TO.P,A2,37,37*%
%TO.N,Net-(A2-Pad37)*%
X40805000Y-55310000D03*
%TO.P,A2,38,38*%
%TO.N,unconnected-(A2-Pad38)*%
X43345000Y-52770000D03*
%TO.P,A2,39,39*%
%TO.N,Net-(A2-Pad39)*%
X40805000Y-52770000D03*
%TO.P,A2,40,40*%
%TO.N,unconnected-(A2-Pad40)*%
X43345000Y-50230000D03*
%TO.P,A2,41,41*%
%TO.N,unconnected-(A2-Pad41)*%
X40805000Y-50230000D03*
%TO.P,A2,42,42*%
%TO.N,unconnected-(A2-Pad42)*%
X43345000Y-47690000D03*
%TO.P,A2,43,43*%
%TO.N,unconnected-(A2-Pad43)*%
X40805000Y-47690000D03*
%TO.P,A2,44,44*%
%TO.N,unconnected-(A2-Pad44)*%
X43345000Y-45150000D03*
%TO.P,A2,45,45*%
%TO.N,Net-(A2-Pad45)*%
X40805000Y-45150000D03*
%TO.P,A2,46,46*%
%TO.N,unconnected-(A2-Pad46)*%
X43345000Y-42610000D03*
%TO.P,A2,47,47*%
%TO.N,Net-(A2-Pad47)*%
X40805000Y-42610000D03*
%TO.P,A2,48,48*%
%TO.N,Net-(A2-Pad48)*%
X43345000Y-40070000D03*
%TO.P,A2,49,49*%
%TO.N,Net-(A2-Pad49)*%
X40805000Y-40070000D03*
%TO.P,A2,50,50*%
%TO.N,Net-(A2-Pad50)*%
X43345000Y-37530000D03*
%TO.P,A2,51,51*%
%TO.N,Net-(A2-Pad51)*%
X40805000Y-37530000D03*
%TO.P,A2,52,52*%
%TO.N,Net-(A2-Pad52)*%
X43345000Y-34990000D03*
%TO.P,A2,53,53*%
%TO.N,Net-(A2-Pad53)*%
X40805000Y-34990000D03*
%TO.P,A2,AD0,AD0*%
%TO.N,Net-(A2-PadAD0)*%
X86525000Y-27370000D03*
%TO.P,A2,AD1,AD1*%
%TO.N,unconnected-(A2-PadAD1)*%
X83985000Y-27370000D03*
%TO.P,A2,AD2,AD2*%
%TO.N,unconnected-(A2-PadAD2)*%
X81445000Y-27370000D03*
%TO.P,A2,AD3,AD3*%
%TO.N,unconnected-(A2-PadAD3)*%
X78905000Y-27370000D03*
%TO.P,A2,AD4,AD4*%
%TO.N,unconnected-(A2-PadAD4)*%
X76365000Y-27370000D03*
%TO.P,A2,AD5,AD5*%
%TO.N,unconnected-(A2-PadAD5)*%
X73825000Y-27370000D03*
%TO.P,A2,AD6,AD6*%
%TO.N,unconnected-(A2-PadAD6)*%
X71285000Y-27370000D03*
%TO.P,A2,AD7,AD7*%
%TO.N,unconnected-(A2-PadAD7)*%
X68745000Y-27370000D03*
%TO.P,A2,AD8,AD8*%
%TO.N,unconnected-(A2-PadAD8)*%
X63665000Y-27370000D03*
%TO.P,A2,AD9,AD9*%
%TO.N,unconnected-(A2-PadAD9)*%
X61125000Y-27370000D03*
%TO.P,A2,AD10,AD10*%
%TO.N,unconnected-(A2-PadAD10)*%
X58585000Y-27370000D03*
%TO.P,A2,AD11,AD11*%
%TO.N,unconnected-(A2-PadAD11)*%
X56045000Y-27370000D03*
%TO.P,A2,AD12,AD12*%
%TO.N,unconnected-(A2-PadAD12)*%
X53505000Y-27370000D03*
%TO.P,A2,AD13,AD13*%
%TO.N,unconnected-(A2-PadAD13)*%
X50965000Y-27370000D03*
%TO.P,A2,AD14,AD14*%
%TO.N,unconnected-(A2-PadAD14)*%
X48425000Y-27370000D03*
%TO.P,A2,AD15,AD15*%
%TO.N,unconnected-(A2-PadAD15)*%
X45885000Y-27370000D03*
%TO.P,A2,AREF,AREF*%
%TO.N,unconnected-(A2-PadAREF)*%
X113449000Y-75630000D03*
%TO.P,A2,GND1,GND1*%
%TO.N,GND*%
X96685000Y-27370000D03*
%TO.P,A2,GND2,GND2*%
X94145000Y-27370000D03*
%TO.P,A2,GND3,GND3*%
X110909000Y-75630000D03*
%TO.P,A2,GND4,GND4*%
X43345000Y-32450000D03*
%TO.P,A2,GND5,GND5*%
%TO.N,unconnected-(A2-PadGND5)*%
X40805000Y-32450000D03*
%TO.P,A2,IOREF,IOREF*%
%TO.N,unconnected-(A2-PadIOREF)*%
X106845000Y-27370000D03*
D19*
%TO.P,A2,NC,NC*%
%TO.N,unconnected-(A2-PadNC)*%
X109385000Y-27370000D03*
D18*
%TO.P,A2,RESET,RESET*%
%TO.N,unconnected-(A2-PadRESET)*%
X104305000Y-27370000D03*
%TO.P,A2,SCL,SCL*%
%TO.N,unconnected-(A2-PadSCL)*%
X118529000Y-75630000D03*
%TO.P,A2,SDA,SDA*%
%TO.N,unconnected-(A2-PadSDA)*%
X115989000Y-75630000D03*
%TO.P,A2,VIN,VIN*%
%TO.N,+12V*%
X91605000Y-27370000D03*
%TD*%
D12*
%TO.P,R3,1*%
%TO.N,Net-(R3-Pad1)*%
X48587500Y-51200000D03*
%TO.P,R3,2*%
%TO.N,Net-(A2-Pad51)*%
X50412500Y-51200000D03*
%TD*%
D17*
%TO.P,U4,1,PIN_1*%
%TO.N,+5V*%
X114413000Y-66799000D03*
%TO.P,U4,2,PIN_2*%
%TO.N,GND*%
X114413000Y-64259000D03*
%TO.P,U4,3,PIN_3*%
%TO.N,Net-(R8-Pad1)*%
X114413000Y-61719000D03*
%TO.P,U4,4,PIN_4*%
%TO.N,+3.3V*%
X114413000Y-59179000D03*
%TO.P,U4,5,PIN_5*%
%TO.N,Net-(R7-Pad1)*%
X114413000Y-56639000D03*
%TO.P,U4,6,PIN_6*%
%TO.N,Net-(R3-Pad1)*%
X114413000Y-54099000D03*
%TO.P,U4,7,PIN_7*%
X114413000Y-51559000D03*
%TO.P,U4,8,PIN_8*%
%TO.N,+3.3V*%
X114413000Y-49019000D03*
%TO.P,U4,9,PIN_9*%
%TO.N,Net-(R5-Pad2)*%
X114413000Y-46479000D03*
%TO.P,U4,10,PIN_10*%
%TO.N,Net-(R3-Pad1)*%
X114413000Y-43939000D03*
%TO.P,U4,11,PIN_11*%
%TO.N,Net-(A2-Pad49)*%
X114413000Y-41399000D03*
%TO.P,U4,12,PIN_12*%
%TO.N,Net-(R3-Pad1)*%
X114413000Y-38859000D03*
%TO.P,U4,13,PIN_13*%
%TO.N,Net-(R5-Pad2)*%
X114413000Y-36319000D03*
%TO.P,U4,14,PIN_14*%
%TO.N,Net-(A2-Pad19)*%
X114413000Y-33779000D03*
%TO.P,U4,51*%
%TO.N,N/C*%
X33133000Y-56639000D03*
%TO.P,U4,52*%
X33133000Y-54099000D03*
%TO.P,U4,53*%
X33133000Y-51559000D03*
%TO.P,U4,54*%
X33133000Y-49019000D03*
%TD*%
D20*
%TO.P,J1,1*%
%TO.N,+12V*%
X116500000Y-89900000D03*
D21*
%TO.P,J1,2*%
%TO.N,GND*%
X122500000Y-89900000D03*
D22*
%TO.P,J1,MP*%
%TO.N,N/C*%
X123500000Y-94400000D03*
X123500000Y-85400000D03*
%TD*%
D17*
%TO.P,U1,1,S0*%
%TO.N,Net-(A2-Pad24)*%
X66320000Y-96180000D03*
%TO.P,U1,2,S1*%
%TO.N,Net-(A2-Pad26)*%
X68860000Y-96180000D03*
%TO.P,U1,3,~{OE}*%
%TO.N,Net-(A2-Pad14)*%
X71400000Y-96180000D03*
%TO.P,U1,4,GND*%
%TO.N,GND*%
X73940000Y-96180000D03*
%TO.P,U1,5,VDD*%
%TO.N,+5V*%
X73940000Y-86020000D03*
%TO.P,U1,6,OUT*%
%TO.N,Net-(A2-Pad22)*%
X71400000Y-86020000D03*
%TO.P,U1,7,S2*%
%TO.N,Net-(A2-Pad28)*%
X68860000Y-86020000D03*
%TO.P,U1,8,S3*%
%TO.N,Net-(A2-Pad30)*%
X66320000Y-86020000D03*
%TD*%
D23*
%TO.P,A1,1,GND*%
%TO.N,GND*%
X50790000Y-95940000D03*
D24*
%TO.P,A1,2,VDD*%
%TO.N,+5V*%
X48250000Y-95940000D03*
%TO.P,A1,3,1B*%
%TO.N,Net-(A1-Pad3)*%
X45710000Y-95940000D03*
%TO.P,A1,4,1A*%
%TO.N,Net-(A1-Pad4)*%
X43170000Y-95940000D03*
%TO.P,A1,5,2A*%
%TO.N,Net-(A1-Pad5)*%
X40630000Y-95940000D03*
%TO.P,A1,6,2B*%
%TO.N,Net-(A1-Pad6)*%
X38090000Y-95940000D03*
%TO.P,A1,7,GND*%
%TO.N,GND*%
X35550000Y-95940000D03*
%TO.P,A1,8,VMOT*%
%TO.N,+12V*%
X33010000Y-95940000D03*
%TO.P,A1,9,~{ENABLE}*%
%TO.N,Net-(A1-Pad9)*%
X33010000Y-83240000D03*
%TO.P,A1,10,MS1*%
%TO.N,unconnected-(A1-Pad10)*%
X35550000Y-83240000D03*
%TO.P,A1,11,MS2*%
%TO.N,unconnected-(A1-Pad11)*%
X38090000Y-83240000D03*
%TO.P,A1,12,MS3*%
%TO.N,unconnected-(A1-Pad12)*%
X40630000Y-83240000D03*
%TO.P,A1,13,~{RESET}*%
%TO.N,Net-(A1-Pad13)*%
X43170000Y-83240000D03*
%TO.P,A1,14,~{SLEEP}*%
X45710000Y-83240000D03*
%TO.P,A1,15,STEP*%
%TO.N,Net-(A1-Pad15)*%
X48250000Y-83240000D03*
%TO.P,A1,16,DIR*%
%TO.N,Net-(A1-Pad16)*%
X50790000Y-83240000D03*
%TD*%
D25*
%TO.N,+12V*%
X88220000Y-30440000D03*
%TO.N,GND*%
X62840000Y-32920000D03*
X54120000Y-55840000D03*
X108500000Y-70500000D03*
X110100000Y-94300000D03*
%TO.N,+5V*%
X109300000Y-74200000D03*
%TO.N,+12V*%
X108080000Y-31620000D03*
%TO.N,Net-(A1-Pad9)*%
X42090000Y-77070000D03*
X33200000Y-80300000D03*
%TO.N,Net-(A2-Pad49)*%
X102200000Y-49500000D03*
%TO.N,Net-(A2-Pad47)*%
X101300000Y-94000000D03*
X38300000Y-43400000D03*
%TO.N,Net-(A2-Pad51)*%
X39059500Y-38080000D03*
X52300000Y-51200000D03*
%TO.N,Net-(A2-PadAD0)*%
X85130000Y-29400000D03*
X51060000Y-86960000D03*
%TO.N,Net-(R3-Pad1)*%
X103500000Y-52800000D03*
%TO.N,Net-(R5-Pad2)*%
X100200000Y-47800000D03*
%TO.N,Net-(R7-Pad1)*%
X97800000Y-48800000D03*
%TO.N,Net-(R8-Pad1)*%
X86800000Y-44100000D03*
%TO.N,+3.3V*%
X103195194Y-35191741D03*
X87070000Y-40980000D03*
%TO.N,Net-(A2-Pad19)*%
X57315100Y-74115100D03*
%TD*%
D26*
%TO.N,GND*%
X74904850Y-33100000D02*
X72154849Y-30349999D01*
X90460000Y-33100000D02*
X74904850Y-33100000D01*
X72154849Y-30349999D02*
X64699999Y-30349999D01*
X94145000Y-27370000D02*
X94145000Y-29415000D01*
X94145000Y-29415000D02*
X90460000Y-33100000D01*
X62840000Y-32209998D02*
X64699999Y-30349999D01*
X62840000Y-32920000D02*
X62840000Y-32209998D01*
X64699999Y-30349999D02*
X45445001Y-30349999D01*
X53742500Y-55917500D02*
X53800000Y-55860000D01*
X52100000Y-55917500D02*
X53742500Y-55917500D01*
D27*
%TO.N,Net-(A2-Pad37)*%
X39180000Y-53685000D02*
X40805000Y-55310000D01*
X39180000Y-52420000D02*
X39180000Y-53685000D01*
X45812500Y-51600000D02*
X40000000Y-51600000D01*
X54111739Y-57880000D02*
X52092500Y-57880000D01*
X40000000Y-51600000D02*
X39180000Y-52420000D01*
X54171739Y-57820000D02*
X54111739Y-57880000D01*
X58020000Y-57820000D02*
X54171739Y-57820000D01*
X75100000Y-77600000D02*
X75100000Y-74900000D01*
X83555000Y-86055000D02*
X75100000Y-77600000D01*
X75100000Y-74900000D02*
X58020000Y-57820000D01*
X52092500Y-57880000D02*
X45812500Y-51600000D01*
X83555000Y-91998100D02*
X83555000Y-86055000D01*
%TO.N,Net-(A2-Pad32)*%
X50015762Y-54260000D02*
X47712881Y-51957119D01*
X57960000Y-54260000D02*
X50015762Y-54260000D01*
X77515000Y-73815000D02*
X57960000Y-54260000D01*
X77515000Y-76106346D02*
X77515000Y-73815000D01*
X77444000Y-76177346D02*
X77515000Y-76106346D01*
X77444000Y-78144000D02*
X77444000Y-76177346D01*
X87000000Y-87700000D02*
X77444000Y-78144000D01*
X95300000Y-91885000D02*
X94142800Y-93042200D01*
X89542200Y-93042200D02*
X87000000Y-90500000D01*
X47712881Y-51957119D02*
X48055761Y-52300000D01*
X44755761Y-49000000D02*
X47712881Y-51957119D01*
X94142800Y-93042200D02*
X89542200Y-93042200D01*
X87000000Y-90500000D02*
X87000000Y-87700000D01*
%TO.N,Net-(A2-Pad39)*%
X47995000Y-58975000D02*
X56575000Y-58975000D01*
X42075000Y-54040000D02*
X44060000Y-54040000D01*
X44060000Y-54040000D02*
X46680000Y-56660000D01*
X72500000Y-74900000D02*
X56575000Y-58975000D01*
X46680000Y-56660000D02*
X46680000Y-57660000D01*
X46680000Y-57660000D02*
X47995000Y-58975000D01*
X40805000Y-52770000D02*
X42075000Y-54040000D01*
%TO.N,Net-(A2-Pad34)*%
X95070000Y-94650000D02*
X97840000Y-91880000D01*
X80250000Y-94650000D02*
X95070000Y-94650000D01*
X79765000Y-94165000D02*
X80250000Y-94650000D01*
X79765000Y-85872182D02*
X79765000Y-94165000D01*
X71200000Y-75200000D02*
X71200000Y-77307182D01*
X68894900Y-72894900D02*
X71200000Y-75200000D01*
X50980000Y-60820000D02*
X63054900Y-72894900D01*
X47010000Y-60820000D02*
X50980000Y-60820000D01*
X44040000Y-57850000D02*
X47010000Y-60820000D01*
X43345000Y-57850000D02*
X44040000Y-57850000D01*
X63054900Y-72894900D02*
X68894900Y-72894900D01*
X71200000Y-77307182D02*
X79765000Y-85872182D01*
D26*
%TO.N,GND*%
X46980000Y-95415900D02*
X46980000Y-97580000D01*
X50600000Y-100400000D02*
X51100000Y-100400000D01*
X71200000Y-100400000D02*
X73940000Y-97660000D01*
X105555000Y-31634600D02*
X105555000Y-26555000D01*
X46900000Y-93500000D02*
X48479600Y-93500000D01*
X108500000Y-70500000D02*
X108500000Y-34579600D01*
X46980000Y-93580000D02*
X46900000Y-93500000D01*
X48479600Y-93500000D02*
X48639800Y-93660200D01*
X56315000Y-98495000D02*
X58292500Y-98495000D01*
X103880000Y-24860000D02*
X104320000Y-25300000D01*
X110909000Y-75630000D02*
X110909000Y-76207100D01*
X108500000Y-34579600D02*
X105555000Y-31634600D01*
X94145000Y-27370000D02*
X96685000Y-27370000D01*
X35550000Y-95940000D02*
X39215900Y-92274100D01*
X100973200Y-91976143D02*
X100895757Y-91976143D01*
X39215900Y-92274100D02*
X43700000Y-92274100D01*
X49800000Y-100400000D02*
X51100000Y-100400000D01*
X46980000Y-95415900D02*
X46980000Y-93580000D01*
X59646900Y-97115700D02*
X57787500Y-95256300D01*
X59716200Y-97185000D02*
X59646900Y-97115700D01*
X105555000Y-26555000D02*
X104150000Y-25150000D01*
X100100000Y-92170000D02*
X100100000Y-93600000D01*
X102500000Y-93580386D02*
X102500000Y-93502943D01*
X110096600Y-94400000D02*
X103319614Y-94400000D01*
X46980000Y-97580000D02*
X49800000Y-100400000D01*
X100390000Y-91880000D02*
X100100000Y-92170000D01*
X110909000Y-76207100D02*
X122500000Y-87798100D01*
X50790000Y-95940000D02*
X50790000Y-95810400D01*
X48639800Y-93660200D02*
X50790000Y-95810400D01*
X45064100Y-93500000D02*
X46900000Y-93500000D01*
X97520000Y-96180000D02*
X73940000Y-96180000D01*
X52328500Y-95810400D02*
X52998100Y-96480000D01*
X43700000Y-92274100D02*
X43838200Y-92274100D01*
X112475000Y-92250000D02*
X112246600Y-92250000D01*
X57787500Y-95256300D02*
X57787500Y-90785000D01*
X103319614Y-94400000D02*
X102500000Y-93580386D01*
X54300000Y-96480000D02*
X52998100Y-96480000D01*
X43838200Y-92274100D02*
X45064100Y-93500000D01*
X59787500Y-97185000D02*
X59716200Y-97185000D01*
X54300000Y-96480000D02*
X56315000Y-98495000D01*
X102500000Y-93502943D02*
X100973200Y-91976143D01*
X45445001Y-30349999D02*
X43345000Y-32450000D01*
X59646900Y-97115700D02*
X58292500Y-98470100D01*
X43700000Y-92274100D02*
X43700000Y-90100000D01*
X96685000Y-27370000D02*
X99195000Y-24860000D01*
X100100000Y-93600000D02*
X97520000Y-96180000D01*
X51100000Y-100400000D02*
X71200000Y-100400000D01*
X110909000Y-74009000D02*
X108500000Y-71600000D01*
X122500000Y-89900000D02*
X122500000Y-87798100D01*
X112246600Y-92250000D02*
X110096600Y-94400000D01*
X108500000Y-71600000D02*
X108500000Y-70500000D01*
X110909000Y-75630000D02*
X110909000Y-74009000D01*
X50790000Y-95810400D02*
X52328500Y-95810400D01*
X73940000Y-97660000D02*
X73940000Y-96180000D01*
X99195000Y-24860000D02*
X103880000Y-24860000D01*
%TO.N,+5V*%
X104725000Y-92250000D02*
X104725000Y-91033100D01*
X48987200Y-78687200D02*
X46402200Y-78687200D01*
X46402200Y-78687200D02*
X43345000Y-75630000D01*
X103035100Y-32421500D02*
X103035100Y-26435100D01*
X72662000Y-96702738D02*
X72662000Y-95038000D01*
X62972400Y-99400000D02*
X51710000Y-99400000D01*
X57000000Y-85087500D02*
X57017200Y-85104700D01*
X55628900Y-86536200D02*
X55628900Y-85318900D01*
X73000000Y-94700000D02*
X74259000Y-94700000D01*
X99110000Y-90632900D02*
X99342900Y-90400000D01*
X107683200Y-74216800D02*
X108160200Y-74216800D01*
X65036100Y-97336300D02*
X65036100Y-93166800D01*
X105482200Y-34868600D02*
X103035100Y-32421500D01*
X104324800Y-90632900D02*
X107141200Y-87816500D01*
X108160200Y-74216800D02*
X105482200Y-71538800D01*
X102500000Y-25900000D02*
X100695000Y-25900000D01*
X108160200Y-74216800D02*
X109360100Y-74216800D01*
X57017200Y-85104700D02*
X57017200Y-85147900D01*
X55628900Y-85318900D02*
X56768600Y-85318900D01*
X104091900Y-90400000D02*
X104324800Y-90632900D01*
X92760000Y-91885000D02*
X94245000Y-90400000D01*
X56768600Y-85318900D02*
X57000000Y-85087500D01*
X99110000Y-92409300D02*
X99110000Y-90632900D01*
X103035100Y-26435100D02*
X102500000Y-25900000D01*
X71922738Y-97442000D02*
X72662000Y-96702738D01*
X104324800Y-90632900D02*
X104725000Y-91033100D01*
X65107800Y-97408000D02*
X65763262Y-97408000D01*
X107141200Y-74758800D02*
X107683200Y-74216800D01*
X53400000Y-84987500D02*
X53400000Y-83100000D01*
X55628900Y-85318900D02*
X55297500Y-84987500D01*
X100695000Y-25900000D02*
X99225000Y-27370000D01*
X54300000Y-93940000D02*
X55628900Y-92611100D01*
X65797262Y-97442000D02*
X71922738Y-97442000D01*
X92760000Y-91885000D02*
X90220000Y-91885000D01*
X65036100Y-97336300D02*
X65107800Y-97408000D01*
X96219300Y-95300000D02*
X99110000Y-92409300D01*
X65036100Y-93166800D02*
X57017200Y-85147900D01*
X74259000Y-94700000D02*
X74859000Y-95300000D01*
X55297500Y-84987500D02*
X53400000Y-84987500D01*
X65763262Y-97408000D02*
X65797262Y-97442000D01*
X72662000Y-95038000D02*
X73000000Y-94700000D01*
X65036100Y-93166800D02*
X66793200Y-93166800D01*
X99342900Y-90400000D02*
X104091900Y-90400000D01*
X107141200Y-87816500D02*
X107141200Y-74758800D01*
X98877100Y-90400000D02*
X99110000Y-90632900D01*
X74859000Y-95300000D02*
X96219300Y-95300000D01*
X94245000Y-90400000D02*
X98877100Y-90400000D01*
X66793200Y-93166800D02*
X73940000Y-86020000D01*
X53400000Y-83100000D02*
X48987200Y-78687200D01*
X65036100Y-97336300D02*
X62972400Y-99400000D01*
X105482200Y-71538800D02*
X105482200Y-34868600D01*
X55628900Y-92611100D02*
X55628900Y-86536200D01*
X51710000Y-99400000D02*
X48250000Y-95940000D01*
%TO.N,+12V*%
X125848100Y-92351900D02*
X116500000Y-92351900D01*
X41580000Y-46420000D02*
X42100000Y-45900000D01*
X126860000Y-91340000D02*
X125848100Y-92351900D01*
X42100000Y-45900000D02*
X42100000Y-45672767D01*
X42095000Y-30505000D02*
X43430000Y-29170000D01*
X40100000Y-90100000D02*
X36820000Y-90100000D01*
X72600000Y-29170000D02*
X74240000Y-30810000D01*
X119984999Y-81454999D02*
X121250000Y-82720000D01*
X42095000Y-42092233D02*
X41322767Y-41320000D01*
X37422821Y-66577179D02*
X37422821Y-48877179D01*
X39880000Y-33720000D02*
X41342767Y-33720000D01*
X33400000Y-70600000D02*
X37422821Y-66577179D01*
X42100000Y-45672767D02*
X42095000Y-45667767D01*
X37860000Y-35740000D02*
X39880000Y-33720000D01*
X41322767Y-41320000D02*
X40220000Y-41320000D01*
X36820000Y-90100000D02*
X36820000Y-78906700D01*
X126860000Y-85220000D02*
X126860000Y-91340000D01*
X116500000Y-92351900D02*
X116500000Y-89900000D01*
X43430000Y-29170000D02*
X72600000Y-29170000D01*
X88165000Y-30810000D02*
X91605000Y-27370000D01*
X42095000Y-45667767D02*
X42095000Y-42092233D01*
X42095000Y-32967767D02*
X42095000Y-30505000D01*
X37422821Y-48877179D02*
X39880000Y-46420000D01*
X36820000Y-78906700D02*
X33400000Y-75486700D01*
X41342767Y-33720000D02*
X42095000Y-32967767D01*
X37860000Y-38960000D02*
X37860000Y-35740000D01*
X36820000Y-90878100D02*
X36820000Y-90100000D01*
X39880000Y-46420000D02*
X41580000Y-46420000D01*
X33010000Y-95940000D02*
X33010000Y-94688100D01*
X33400000Y-75486700D02*
X33400000Y-70600000D01*
X121250000Y-82720000D02*
X124360000Y-82720000D01*
X33010000Y-94688100D02*
X36820000Y-90878100D01*
X116757000Y-35057000D02*
X119984999Y-38284999D01*
X111454300Y-35057000D02*
X116757000Y-35057000D01*
X124360000Y-82720000D02*
X126860000Y-85220000D01*
X108200000Y-31802700D02*
X111454300Y-35057000D01*
X119984999Y-38284999D02*
X119984999Y-81454999D01*
X40220000Y-41320000D02*
X37860000Y-38960000D01*
X74240000Y-30810000D02*
X88165000Y-30810000D01*
D27*
%TO.N,Net-(A1-Pad3)*%
X45700000Y-95950000D02*
X45710000Y-95940000D01*
X45700000Y-99200000D02*
X45700000Y-95950000D01*
%TO.N,Net-(A1-Pad4)*%
X43160000Y-99200000D02*
X43160000Y-95950000D01*
X43160000Y-95950000D02*
X43170000Y-95940000D01*
X43170000Y-95940000D02*
X43170000Y-97091900D01*
%TO.N,Net-(A1-Pad5)*%
X40620000Y-95950000D02*
X40630000Y-95940000D01*
X40630000Y-95940000D02*
X40630000Y-97091900D01*
X40620000Y-99200000D02*
X40620000Y-95950000D01*
%TO.N,Net-(R1-Pad2)*%
X59787500Y-90785000D02*
X59787500Y-89700000D01*
X59787500Y-89700000D02*
X57000000Y-86912500D01*
%TO.N,Net-(A2-Pad39)*%
X81015000Y-85663382D02*
X72500000Y-77148382D01*
X81015000Y-93200000D02*
X81015000Y-85663382D01*
X72500000Y-77148382D02*
X72500000Y-74900000D01*
%TO.N,Net-(A1-Pad6)*%
X38080000Y-95950000D02*
X38090000Y-95940000D01*
X38080000Y-99200000D02*
X38080000Y-95950000D01*
X38090000Y-95940000D02*
X38090000Y-97091900D01*
%TO.N,Net-(A1-Pad9)*%
X33200000Y-80300000D02*
X33010000Y-80490000D01*
X42090000Y-77070000D02*
X42090000Y-74375000D01*
X33010000Y-80490000D02*
X33010000Y-83240000D01*
X42090000Y-74375000D02*
X40805000Y-73090000D01*
X40805000Y-73305000D02*
X40805000Y-73090000D01*
%TO.N,Net-(A2-Pad49)*%
X43797182Y-41300000D02*
X44900000Y-42402818D01*
X40805000Y-40070000D02*
X41353900Y-40618900D01*
X52555635Y-49900000D02*
X53455635Y-50800000D01*
D28*
X57482500Y-50880000D02*
X100820000Y-50880000D01*
D27*
X41353900Y-40618900D02*
X41918900Y-40618900D01*
X47622182Y-49900000D02*
X52555635Y-49900000D01*
X53455635Y-50800000D02*
X55577500Y-50800000D01*
X42600000Y-41300000D02*
X43797182Y-41300000D01*
X102200000Y-49500000D02*
X100900000Y-50800000D01*
X41918900Y-40618900D02*
X42600000Y-41300000D01*
X55577500Y-50800000D02*
X55657500Y-50880000D01*
X44900000Y-47177817D02*
X47622182Y-49900000D01*
D28*
X100820000Y-50880000D02*
X102200000Y-49500000D01*
D27*
X44900000Y-42402818D02*
X44900000Y-47177817D01*
%TO.N,Net-(A2-Pad47)*%
X112892000Y-90800000D02*
X113876800Y-91784800D01*
X109925000Y-92250000D02*
X109925000Y-91133101D01*
X110258101Y-90800000D02*
X112892000Y-90800000D01*
X113876800Y-91784800D02*
X113876800Y-92703400D01*
X38200000Y-43300000D02*
X38890000Y-42610000D01*
X101416000Y-94716000D02*
X101416000Y-93910600D01*
X109925000Y-91133101D02*
X110258101Y-90800000D01*
X38890000Y-42610000D02*
X40805000Y-42610000D01*
X110780200Y-95800000D02*
X102500000Y-95800000D01*
X102500000Y-95800000D02*
X101416000Y-94716000D01*
X101591300Y-94085900D02*
X101416000Y-93910600D01*
X113876800Y-92703400D02*
X110780200Y-95800000D01*
%TO.N,Net-(A2-Pad45)*%
X113500000Y-90200000D02*
X114600000Y-91300000D01*
X36300000Y-48200000D02*
X39350000Y-45150000D01*
X39350000Y-45150000D02*
X40805000Y-45150000D01*
X36300000Y-66000000D02*
X36300000Y-48200000D01*
X32400000Y-76700000D02*
X32400000Y-69900000D01*
X110080283Y-90200000D02*
X113500000Y-90200000D01*
X114600000Y-91300000D02*
X114600000Y-93200000D01*
X32400000Y-69900000D02*
X36300000Y-66000000D01*
X106420000Y-101380000D02*
X36380000Y-101380000D01*
X108925000Y-90600000D02*
X109680283Y-90600000D01*
X35490000Y-98390000D02*
X34850000Y-97750000D01*
X114600000Y-93200000D02*
X106420000Y-101380000D01*
X107275000Y-92250000D02*
X108925000Y-90600000D01*
X32420000Y-97750000D02*
X31810000Y-97140000D01*
X36380000Y-101380000D02*
X35490000Y-100490000D01*
X109680283Y-90600000D02*
X110080283Y-90200000D01*
X35490000Y-100490000D02*
X35490000Y-98390000D01*
X34850000Y-97750000D02*
X32420000Y-97750000D01*
X34800000Y-79100000D02*
X32400000Y-76700000D01*
X31810000Y-94090000D02*
X34300000Y-91600000D01*
X31810000Y-97140000D02*
X31810000Y-94090000D01*
X34800000Y-82200000D02*
X34800000Y-79100000D01*
X34300000Y-91600000D02*
X34300000Y-82700000D01*
X34300000Y-82700000D02*
X34800000Y-82200000D01*
%TO.N,Net-(A2-Pad37)*%
X83554900Y-91998100D02*
X83555000Y-91998100D01*
X83555000Y-93200000D02*
X83555000Y-91998100D01*
%TO.N,Net-(A2-Pad48)*%
X43345000Y-40070000D02*
X47075000Y-43800000D01*
X47075000Y-43800000D02*
X52700000Y-43800000D01*
X52700000Y-43800000D02*
X54000000Y-45100000D01*
%TO.N,Net-(A2-Pad50)*%
X55600000Y-44200000D02*
X55600000Y-46100000D01*
X55200000Y-46500000D02*
X49887500Y-46500000D01*
X48988500Y-43173500D02*
X54573500Y-43173500D01*
X49887500Y-46500000D02*
X48587500Y-47800000D01*
X43345000Y-37530000D02*
X48988500Y-43173500D01*
X55600000Y-46100000D02*
X55200000Y-46500000D01*
X54573500Y-43173500D02*
X55600000Y-44200000D01*
%TO.N,Net-(A2-Pad51)*%
X50412500Y-51200000D02*
X52300000Y-51200000D01*
D28*
X40805000Y-37530000D02*
X39609500Y-37530000D01*
D27*
X50512500Y-51300000D02*
X50412500Y-51200000D01*
D28*
X39609500Y-37530000D02*
X39059500Y-38080000D01*
D27*
X50858300Y-51300000D02*
X50512500Y-51300000D01*
%TO.N,Net-(A2-Pad52)*%
X51087500Y-35100000D02*
X43455000Y-35100000D01*
X43455000Y-35100000D02*
X43345000Y-34990000D01*
%TO.N,Net-(A2-Pad53)*%
X48860000Y-36260000D02*
X42075000Y-36260000D01*
X53200000Y-40600000D02*
X48860000Y-36260000D01*
X42075000Y-36260000D02*
X40805000Y-34990000D01*
%TO.N,Net-(A2-PadAD0)*%
X52670000Y-94038600D02*
X53839900Y-95208500D01*
X55811000Y-95208500D02*
X57787500Y-97185000D01*
X53084300Y-87128200D02*
X53400000Y-86812500D01*
X53010000Y-87202500D02*
X53010000Y-88870000D01*
X51228200Y-87128200D02*
X53084300Y-87128200D01*
X53839900Y-95208500D02*
X55811000Y-95208500D01*
X85130000Y-29400000D02*
X85130000Y-28765000D01*
X53400000Y-86812500D02*
X53010000Y-87202500D01*
X85130000Y-28765000D02*
X86525000Y-27370000D01*
X51060000Y-86960000D02*
X51228200Y-87128200D01*
X53010000Y-88870000D02*
X52670000Y-89210000D01*
X52670000Y-89210000D02*
X52670000Y-94038600D01*
%TO.N,Net-(R3-Pad1)*%
X103229600Y-52900000D02*
X50287500Y-52900000D01*
X50287500Y-52900000D02*
X48587500Y-51200000D01*
X103364800Y-52764800D02*
X103229600Y-52900000D01*
%TO.N,Net-(R5-Pad2)*%
X50612500Y-47600000D02*
X100100000Y-47600000D01*
X100100000Y-47600000D02*
X100300000Y-47800000D01*
X50412500Y-47800000D02*
X50612500Y-47600000D01*
%TO.N,Net-(A1-Pad16)*%
X42800000Y-80000000D02*
X47550000Y-80000000D01*
X39000000Y-76200000D02*
X42800000Y-80000000D01*
X39610000Y-72360000D02*
X39610000Y-73167818D01*
X39000000Y-73777818D02*
X39000000Y-76200000D01*
X47550000Y-80000000D02*
X50790000Y-83240000D01*
X42200000Y-69405000D02*
X42200000Y-71200000D01*
X39610000Y-73167818D02*
X39000000Y-73777818D01*
X40150000Y-71820000D02*
X39610000Y-72360000D01*
X40805000Y-68010000D02*
X42200000Y-69405000D01*
X41580000Y-71820000D02*
X40150000Y-71820000D01*
X42200000Y-71200000D02*
X41580000Y-71820000D01*
%TO.N,Net-(R7-Pad1)*%
X97100000Y-49300000D02*
X97700000Y-48700000D01*
X47800000Y-49300000D02*
X97100000Y-49300000D01*
X48600000Y-45100000D02*
X47200000Y-46500000D01*
X47200000Y-46500000D02*
X47200000Y-48700000D01*
X47200000Y-48700000D02*
X47800000Y-49300000D01*
X52175000Y-45100000D02*
X48600000Y-45100000D01*
%TO.N,Net-(R8-Pad1)*%
X84632500Y-41934900D02*
X52709900Y-41934900D01*
X52709900Y-41934900D02*
X51375000Y-40600000D01*
X86798800Y-44101200D02*
X84632500Y-41934900D01*
%TO.N,Net-(A2-Pad32)*%
X39600000Y-49000000D02*
X44755761Y-49000000D01*
X42075000Y-57375000D02*
X41280000Y-56580000D01*
X41280000Y-56580000D02*
X39980000Y-56580000D01*
X48055761Y-52300000D02*
X48119200Y-52300000D01*
X39980000Y-56580000D02*
X38340000Y-54940000D01*
X38340000Y-54940000D02*
X38340000Y-50260000D01*
X42075000Y-59120000D02*
X42075000Y-57375000D01*
X38340000Y-50260000D02*
X39600000Y-49000000D01*
X43345000Y-60390000D02*
X42075000Y-59120000D01*
%TO.N,Net-(A2-Pad30)*%
X42100000Y-64175000D02*
X43345000Y-62930000D01*
X54775000Y-77075000D02*
X54775000Y-74775000D01*
X66320000Y-86020000D02*
X64974000Y-86020000D01*
X54775000Y-74775000D02*
X46700000Y-66700000D01*
X46700000Y-66700000D02*
X42812818Y-66700000D01*
X42100000Y-66000000D02*
X42100000Y-64175000D01*
X42290000Y-66190000D02*
X42100000Y-66000000D01*
X55700000Y-78000000D02*
X54775000Y-77075000D01*
X64974000Y-86020000D02*
X56954000Y-78000000D01*
X42812818Y-66700000D02*
X42302818Y-66190000D01*
X56954000Y-78000000D02*
X55700000Y-78000000D01*
X42302818Y-66190000D02*
X42290000Y-66190000D01*
%TO.N,Net-(A2-Pad28)*%
X59451000Y-73451000D02*
X59451000Y-74551000D01*
X59451000Y-74551000D02*
X59900000Y-75000000D01*
X43345000Y-65470000D02*
X51470000Y-65470000D01*
X59900000Y-75000000D02*
X59900000Y-77060000D01*
X51470000Y-65470000D02*
X59451000Y-73451000D01*
X59900000Y-77060000D02*
X68860000Y-86020000D01*
%TO.N,Net-(A2-Pad26)*%
X42075000Y-66740000D02*
X43345000Y-68010000D01*
X42700000Y-61700000D02*
X42100000Y-62300000D01*
X42100000Y-62300000D02*
X42100000Y-63397182D01*
X67500000Y-74700000D02*
X66800000Y-74000000D01*
X68860000Y-96180000D02*
X68860000Y-94640000D01*
X66800000Y-74000000D02*
X62667063Y-74000000D01*
X62667063Y-74000000D02*
X50367063Y-61700000D01*
X76400000Y-85100000D02*
X67500000Y-76200000D01*
X41550000Y-63947182D02*
X41550000Y-63950000D01*
X39940000Y-66740000D02*
X42075000Y-66740000D01*
X50367063Y-61700000D02*
X42700000Y-61700000D01*
X76400000Y-87100000D02*
X76400000Y-85100000D01*
X41300000Y-64200000D02*
X40100000Y-64200000D01*
X67500000Y-76200000D02*
X67500000Y-74700000D01*
X39500000Y-64800000D02*
X39500000Y-66300000D01*
X40100000Y-64200000D02*
X39500000Y-64800000D01*
X39500000Y-66300000D02*
X39940000Y-66740000D01*
X41550000Y-63950000D02*
X41300000Y-64200000D01*
X68860000Y-94640000D02*
X76400000Y-87100000D01*
X42100000Y-63397182D02*
X41550000Y-63947182D01*
%TO.N,Net-(A2-Pad22)*%
X51446901Y-77630001D02*
X46326572Y-77630001D01*
X62016900Y-88200000D02*
X51446901Y-77630001D01*
X46326572Y-77630001D02*
X45154999Y-76458428D01*
X45154999Y-76458428D02*
X45154999Y-74899999D01*
X45154999Y-74899999D02*
X43345000Y-73090000D01*
X69220000Y-88200000D02*
X62016900Y-88200000D01*
X71400000Y-86020000D02*
X69220000Y-88200000D01*
%TO.N,Net-(A2-Pad14)*%
X76950000Y-83835000D02*
X68745000Y-75630000D01*
X76950000Y-87850000D02*
X76950000Y-83835000D01*
X71400000Y-93400000D02*
X76950000Y-87850000D01*
X71400000Y-96180000D02*
X71400000Y-93400000D01*
%TO.N,Net-(A1-Pad15)*%
X42132800Y-80832800D02*
X45842800Y-80832800D01*
X39610000Y-70550000D02*
X39060000Y-71100000D01*
X39060000Y-71100000D02*
X39060000Y-72940000D01*
X38000000Y-76700000D02*
X42132800Y-80832800D01*
X38000000Y-74000000D02*
X38000000Y-76700000D01*
X45842800Y-80832800D02*
X48250000Y-83240000D01*
X39060000Y-72940000D02*
X38000000Y-74000000D01*
X40805000Y-70550000D02*
X39610000Y-70550000D01*
%TO.N,Net-(A1-Pad13)*%
X45710000Y-83240000D02*
X43170000Y-83240000D01*
D26*
%TO.N,+3.3V*%
X102640000Y-35200000D02*
X101765000Y-34325000D01*
X101765000Y-34325000D02*
X101765000Y-27370000D01*
D27*
X81190000Y-35100000D02*
X52912500Y-35100000D01*
D26*
X103100000Y-35200000D02*
X102640000Y-35200000D01*
D27*
X87070000Y-40980000D02*
X81190000Y-35100000D01*
%TO.N,Net-(A2-Pad19)*%
X57275000Y-74400000D02*
X56045000Y-75630000D01*
X57315100Y-74400000D02*
X57275000Y-74400000D01*
%TO.N,Net-(A2-Pad35)*%
X45711400Y-81511700D02*
X46861900Y-82662200D01*
X43111700Y-81511700D02*
X45711400Y-81511700D01*
X46861900Y-82662200D02*
X46862200Y-82662200D01*
X38398001Y-72601999D02*
X37200000Y-73800000D01*
X48986500Y-85635100D02*
X52379000Y-85635100D01*
X42571700Y-81511700D02*
X43111700Y-81511700D01*
X38398001Y-60256999D02*
X38398001Y-72601999D01*
X52379000Y-85635100D02*
X52643900Y-85900000D01*
X37200000Y-73800000D02*
X37200000Y-77300000D01*
X46975700Y-83624300D02*
X48986500Y-85635100D01*
X40805000Y-57850000D02*
X38398001Y-60256999D01*
X54300000Y-90198100D02*
X54300000Y-91400000D01*
X54454200Y-90043900D02*
X54300000Y-90198100D01*
X41411700Y-81511700D02*
X43111700Y-81511700D01*
X54454200Y-86257200D02*
X54454200Y-90043900D01*
X46975700Y-82775700D02*
X46975700Y-83624300D01*
X52643900Y-85900000D02*
X54097000Y-85900000D01*
X54097000Y-85900000D02*
X54454200Y-86257200D01*
X37200000Y-77300000D02*
X41411700Y-81511700D01*
X46862200Y-82662200D02*
X46975700Y-82775700D01*
%TO.N,Net-(A2-Pad24)*%
X75850000Y-85500000D02*
X74850000Y-84500000D01*
X69400000Y-87200000D02*
X62600000Y-87200000D01*
X62600000Y-87200000D02*
X52200000Y-76800000D01*
X48550000Y-70550000D02*
X52235000Y-74235000D01*
X75081000Y-86994882D02*
X75850000Y-86225882D01*
X52235000Y-74235000D02*
X52235000Y-75404500D01*
X75081000Y-87008900D02*
X75081000Y-86994882D01*
X70200000Y-85000000D02*
X70200000Y-86400000D01*
X75850000Y-86225882D02*
X75850000Y-85500000D01*
X66320000Y-95769900D02*
X75081000Y-87008900D01*
X70700000Y-84500000D02*
X70200000Y-85000000D01*
X43345000Y-70550000D02*
X48550000Y-70550000D01*
X52235000Y-75404500D02*
X52235000Y-75825900D01*
X52200000Y-75439500D02*
X52235000Y-75404500D01*
X74850000Y-84500000D02*
X70700000Y-84500000D01*
X70200000Y-86400000D02*
X69400000Y-87200000D01*
X52200000Y-76800000D02*
X52200000Y-75439500D01*
X66320000Y-96180000D02*
X66320000Y-95769900D01*
%TD*%
M02*
