%TF.GenerationSoftware,KiCad,Pcbnew,(6.0.9)*%
%TF.CreationDate,2024-03-22T17:54:09+02:00*%
%TF.ProjectId,diplomna-shema,6469706c-6f6d-46e6-912d-7368656d612e,rev?*%
%TF.SameCoordinates,Original*%
%TF.FileFunction,Plated,1,2,PTH,Mixed*%
%TF.FilePolarity,Positive*%
%FSLAX46Y46*%
G04 Gerber Fmt 4.6, Leading zero omitted, Abs format (unit mm)*
G04 Created by KiCad (PCBNEW (6.0.9)) date 2024-03-22 17:54:09*
%MOMM*%
%LPD*%
G01*
G04 APERTURE LIST*
%TA.AperFunction,ViaDrill*%
%ADD10C,0.700000*%
%TD*%
%TA.AperFunction,ComponentDrill*%
%ADD11C,0.762000*%
%TD*%
%TA.AperFunction,ComponentDrill*%
%ADD12C,0.800000*%
%TD*%
%TA.AperFunction,ComponentDrill*%
%ADD13C,0.850000*%
%TD*%
%TA.AperFunction,ComponentDrill*%
%ADD14C,1.000000*%
%TD*%
G04 aperture for slot hole*
%TA.AperFunction,ComponentDrill*%
%ADD15O,2.500000X1.000000*%
%TD*%
G04 APERTURE END LIST*
D10*
X33200000Y-80300000D03*
X38300000Y-43400000D03*
X42000000Y-74300000D03*
X42019366Y-38700000D03*
X51060000Y-86960000D03*
X52300000Y-51200000D03*
X57315100Y-74115100D03*
X85300000Y-25800000D03*
X86800000Y-44100000D03*
X97800000Y-48800000D03*
X100200000Y-47800000D03*
X101300000Y-94000000D03*
X102200000Y-49500000D03*
X103195194Y-35191741D03*
X103500000Y-52800000D03*
X108080000Y-31620000D03*
X108500000Y-70500000D03*
X109300000Y-74200000D03*
X110100000Y-94300000D03*
D11*
%TO.C,U4*%
X33133000Y-49019000D03*
X33133000Y-51559000D03*
X33133000Y-54099000D03*
X33133000Y-56639000D03*
%TO.C,U2*%
X57787500Y-90785000D03*
X57787500Y-97185000D03*
X59787500Y-90785000D03*
X59787500Y-97185000D03*
%TO.C,U1*%
X66320000Y-86020000D03*
X66320000Y-96180000D03*
X68860000Y-86020000D03*
X68860000Y-96180000D03*
X71400000Y-86020000D03*
X71400000Y-96180000D03*
X73940000Y-86020000D03*
X73940000Y-96180000D03*
%TO.C,U5*%
X90190000Y-91880000D03*
X92740000Y-91880000D03*
X95290000Y-91905000D03*
X97840000Y-91880000D03*
X100390000Y-91880000D03*
%TO.C,U3*%
X104725000Y-92250000D03*
X107275000Y-92225000D03*
X109925000Y-92250000D03*
X112475000Y-92250000D03*
%TO.C,U4*%
X114413000Y-33779000D03*
X114413000Y-36319000D03*
X114413000Y-38859000D03*
X114413000Y-41399000D03*
X114413000Y-43939000D03*
X114413000Y-46479000D03*
X114413000Y-49019000D03*
X114413000Y-51559000D03*
X114413000Y-54099000D03*
X114413000Y-56639000D03*
X114413000Y-59179000D03*
X114413000Y-61719000D03*
X114413000Y-64259000D03*
X114413000Y-66799000D03*
%TO.C,J1*%
X116500000Y-89900000D03*
X122500000Y-89900000D03*
D12*
%TO.C,A1*%
X33010000Y-83240000D03*
X33010000Y-95940000D03*
X35550000Y-83240000D03*
X35550000Y-95940000D03*
X38090000Y-83240000D03*
X38090000Y-95940000D03*
X40630000Y-83240000D03*
X40630000Y-95940000D03*
X43170000Y-83240000D03*
X43170000Y-95940000D03*
X45710000Y-83240000D03*
X45710000Y-95940000D03*
X48250000Y-83240000D03*
X48250000Y-95940000D03*
X50790000Y-83240000D03*
X50790000Y-95940000D03*
D13*
%TO.C,A2*%
X40805000Y-32450000D03*
X40805000Y-34990000D03*
X40805000Y-37530000D03*
X40805000Y-40070000D03*
X40805000Y-42610000D03*
X40805000Y-45150000D03*
X40805000Y-47690000D03*
X40805000Y-50230000D03*
X40805000Y-52770000D03*
X40805000Y-55310000D03*
X40805000Y-57850000D03*
X40805000Y-60390000D03*
X40805000Y-62930000D03*
X40805000Y-65470000D03*
X40805000Y-68010000D03*
X40805000Y-70550000D03*
X40805000Y-73090000D03*
X40805000Y-75630000D03*
X43345000Y-32450000D03*
X43345000Y-34990000D03*
X43345000Y-37530000D03*
X43345000Y-40070000D03*
X43345000Y-42610000D03*
X43345000Y-45150000D03*
X43345000Y-47690000D03*
X43345000Y-50230000D03*
X43345000Y-52770000D03*
X43345000Y-55310000D03*
X43345000Y-57850000D03*
X43345000Y-60390000D03*
X43345000Y-62930000D03*
X43345000Y-65470000D03*
X43345000Y-68010000D03*
X43345000Y-70550000D03*
X43345000Y-73090000D03*
X43345000Y-75630000D03*
X45885000Y-27370000D03*
X48425000Y-27370000D03*
X50965000Y-27370000D03*
X50965000Y-75630000D03*
X53505000Y-27370000D03*
X53505000Y-75630000D03*
X56045000Y-27370000D03*
X56045000Y-75630000D03*
X58585000Y-27370000D03*
X58585000Y-75630000D03*
X61125000Y-27370000D03*
X61125000Y-75630000D03*
X63665000Y-27370000D03*
X63665000Y-75630000D03*
X66205000Y-75630000D03*
X68745000Y-27370000D03*
X68745000Y-75630000D03*
X71285000Y-27370000D03*
X73825000Y-27370000D03*
X73825000Y-75630000D03*
X76365000Y-27370000D03*
X76365000Y-75630000D03*
X78905000Y-27370000D03*
X78905000Y-75630000D03*
X81445000Y-27370000D03*
X81445000Y-75630000D03*
X83985000Y-27370000D03*
X83985000Y-75630000D03*
X86525000Y-27370000D03*
X86525000Y-75630000D03*
X89065000Y-75630000D03*
X91605000Y-27370000D03*
X91605000Y-75630000D03*
X94145000Y-27370000D03*
X95669000Y-75630000D03*
X96685000Y-27370000D03*
X98209000Y-75630000D03*
X99225000Y-27370000D03*
X100749000Y-75630000D03*
X101765000Y-27370000D03*
X103289000Y-75630000D03*
X104305000Y-27370000D03*
X105829000Y-75630000D03*
X106845000Y-27370000D03*
X108369000Y-75630000D03*
X109385000Y-27370000D03*
X110909000Y-75630000D03*
X113449000Y-75630000D03*
X115989000Y-75630000D03*
X118529000Y-75630000D03*
D14*
%TO.C,REF\u002A\u002A*%
X38080000Y-99200000D03*
X40620000Y-99200000D03*
X43160000Y-99200000D03*
X45700000Y-99200000D03*
%TO.C,M2*%
X54300000Y-91400000D03*
X54300000Y-93940000D03*
X54300000Y-96480000D03*
%TO.C,J7*%
X78475000Y-93200000D03*
X81015000Y-93200000D03*
X83555000Y-93200000D03*
D15*
%TO.C,J1*%
X123500000Y-85400000D03*
X123500000Y-94400000D03*
M02*
