%TF.GenerationSoftware,KiCad,Pcbnew,8.0.2*%
%TF.CreationDate,2024-05-11T13:38:57+03:00*%
%TF.ProjectId,diplomna-shema,6469706c-6f6d-46e6-912d-7368656d612e,rev?*%
%TF.SameCoordinates,Original*%
%TF.FileFunction,Soldermask,Bot*%
%TF.FilePolarity,Negative*%
%FSLAX46Y46*%
G04 Gerber Fmt 4.6, Leading zero omitted, Abs format (unit mm)*
G04 Created by KiCad (PCBNEW 8.0.2) date 2024-05-11 13:38:57*
%MOMM*%
%LPD*%
G01*
G04 APERTURE LIST*
%ADD10C,0.120000*%
%ADD11C,3.200000*%
%ADD12C,1.600000*%
%ADD13C,1.524000*%
%ADD14C,1.734000*%
%ADD15R,1.700000X1.700000*%
%ADD16O,1.700000X1.700000*%
%ADD17R,2.000000X4.600000*%
%ADD18O,2.000000X4.200000*%
%ADD19O,4.200000X2.000000*%
%TA.AperFunction,Profile*%
%ADD20C,0.100000*%
%TD*%
G04 APERTURE END LIST*
D10*
%TO.C,U3*%
X120625000Y-84090000D02*
G75*
G02*
X117425000Y-84090000I-1600000J0D01*
G01*
X117425000Y-84090000D02*
G75*
G02*
X120625000Y-84090000I1600000J0D01*
G01*
X43250000Y-40415000D02*
G75*
G02*
X40050000Y-40415000I-1600000J0D01*
G01*
X40050000Y-40415000D02*
G75*
G02*
X43250000Y-40415000I1600000J0D01*
G01*
X43175000Y-84190000D02*
G75*
G02*
X39975000Y-84190000I-1600000J0D01*
G01*
X39975000Y-84190000D02*
G75*
G02*
X43175000Y-84190000I1600000J0D01*
G01*
%TD*%
D11*
%TO.C,*%
X115750000Y-100000000D03*
%TD*%
%TO.C,*%
X33250000Y-97750000D03*
%TD*%
D12*
%TO.C,U3*%
X119025000Y-84090000D03*
X119000000Y-40380000D03*
X41650000Y-40415000D03*
X41570000Y-84200000D03*
D13*
X119590000Y-79660000D03*
X119590000Y-77120000D03*
X119590000Y-74580000D03*
X119590000Y-72040000D03*
X119590000Y-69500000D03*
X119590000Y-66960000D03*
X119590000Y-64420000D03*
X119590000Y-61880000D03*
X119590000Y-59340000D03*
X119590000Y-56800000D03*
X119590000Y-54260000D03*
X119590000Y-51720000D03*
X119590000Y-49180000D03*
X119590000Y-46640000D03*
X38310000Y-69500000D03*
X38310000Y-66960000D03*
X38310000Y-64420000D03*
X38310000Y-61880000D03*
%TD*%
%TO.C,U2*%
X60050000Y-79845000D03*
X60050000Y-81845000D03*
X66450000Y-79845000D03*
X66450000Y-81845000D03*
%TD*%
D14*
%TO.C,U1*%
X73500000Y-81750000D03*
X76040000Y-81750000D03*
X78580000Y-81750000D03*
X81120000Y-81750000D03*
%TD*%
D15*
%TO.C,J9*%
X44500000Y-89760000D03*
D16*
X44500000Y-92300000D03*
X44500000Y-94840000D03*
X44500000Y-97380000D03*
%TD*%
D15*
%TO.C,J8*%
X103425000Y-81410000D03*
D16*
X105965000Y-81410000D03*
%TD*%
D17*
%TO.C,J2*%
X124550000Y-92600000D03*
D18*
X118250000Y-92600000D03*
D19*
X121650000Y-97400000D03*
%TD*%
D15*
%TO.C,M2*%
X92730000Y-93495000D03*
D16*
X92730000Y-96035000D03*
X92730000Y-98575000D03*
%TD*%
D15*
%TO.C,M1*%
X85460000Y-93495000D03*
D16*
X85460000Y-96035000D03*
X85460000Y-98575000D03*
%TD*%
D13*
%TO.C,U5*%
X49690000Y-87550000D03*
X49690000Y-90100000D03*
X49665000Y-92650000D03*
X49690000Y-95200000D03*
X49690000Y-97750000D03*
X77515000Y-87650000D03*
X77515000Y-90200000D03*
X77490000Y-92750000D03*
X77515000Y-95300000D03*
X77490000Y-97750000D03*
%TD*%
D11*
%TO.C,A1*%
X115800000Y-26750000D03*
X33250000Y-26750000D03*
X63730000Y-31830000D03*
X63730000Y-59770000D03*
X114530000Y-75010000D03*
X39600000Y-75010000D03*
%TD*%
D20*
X26210000Y-22290000D02*
X126210000Y-22290000D01*
X126210000Y-102290000D01*
X26210000Y-102290000D01*
X26210000Y-22290000D01*
M02*
