%TF.GenerationSoftware,KiCad,Pcbnew,(6.0.9)*%
%TF.CreationDate,2024-03-22T17:54:06+02:00*%
%TF.ProjectId,diplomna-shema,6469706c-6f6d-46e6-912d-7368656d612e,rev?*%
%TF.SameCoordinates,Original*%
%TF.FileFunction,Soldermask,Top*%
%TF.FilePolarity,Negative*%
%FSLAX46Y46*%
G04 Gerber Fmt 4.6, Leading zero omitted, Abs format (unit mm)*
G04 Created by KiCad (PCBNEW (6.0.9)) date 2024-03-22 17:54:06*
%MOMM*%
%LPD*%
G01*
G04 APERTURE LIST*
G04 Aperture macros list*
%AMRoundRect*
0 Rectangle with rounded corners*
0 $1 Rounding radius*
0 $2 $3 $4 $5 $6 $7 $8 $9 X,Y pos of 4 corners*
0 Add a 4 corners polygon primitive as box body*
4,1,4,$2,$3,$4,$5,$6,$7,$8,$9,$2,$3,0*
0 Add four circle primitives for the rounded corners*
1,1,$1+$1,$2,$3*
1,1,$1+$1,$4,$5*
1,1,$1+$1,$6,$7*
1,1,$1+$1,$8,$9*
0 Add four rect primitives between the rounded corners*
20,1,$1+$1,$2,$3,$4,$5,0*
20,1,$1+$1,$4,$5,$6,$7,0*
20,1,$1+$1,$6,$7,$8,$9,0*
20,1,$1+$1,$8,$9,$2,$3,0*%
G04 Aperture macros list end*
%ADD10C,0.150000*%
%ADD11RoundRect,0.250000X0.450000X-0.262500X0.450000X0.262500X-0.450000X0.262500X-0.450000X-0.262500X0*%
%ADD12C,3.200000*%
%ADD13RoundRect,0.250000X-1.050000X-0.550000X1.050000X-0.550000X1.050000X0.550000X-1.050000X0.550000X0*%
%ADD14R,1.700000X1.700000*%
%ADD15O,1.700000X1.700000*%
%ADD16RoundRect,0.250000X-0.450000X0.262500X-0.450000X-0.262500X0.450000X-0.262500X0.450000X0.262500X0*%
%ADD17C,1.524000*%
%ADD18RoundRect,0.250000X-0.262500X-0.450000X0.262500X-0.450000X0.262500X0.450000X-0.262500X0.450000X0*%
%ADD19C,1.704000*%
%ADD20RoundRect,0.102000X-0.679000X0.750000X-0.679000X-0.750000X0.679000X-0.750000X0.679000X0.750000X0*%
%ADD21C,1.600000*%
%ADD22R,2.000000X4.000000*%
%ADD23O,2.000000X3.300000*%
%ADD24O,3.500000X2.000000*%
%ADD25R,1.500000X1.500000*%
%ADD26O,1.500000X1.500000*%
G04 APERTURE END LIST*
D10*
X35600000Y-23600000D02*
X30600000Y-23600000D01*
X30600000Y-23600000D02*
X30600000Y-29200000D01*
X30600000Y-102700000D02*
X34600000Y-102700000D01*
X30600000Y-98900000D02*
X30600000Y-102700000D01*
X130400000Y-96100000D02*
X130400000Y-102700000D01*
X120300000Y-23600000D02*
X130400000Y-23600000D01*
X130400000Y-102700000D02*
X125100000Y-102700000D01*
X130400000Y-23600000D02*
X130400000Y-33800000D01*
D11*
%TO.C,R2*%
X53400000Y-86812500D03*
X53400000Y-84987500D03*
%TD*%
D12*
%TO.C,*%
X32600000Y-25600000D03*
%TD*%
D13*
%TO.C,C1*%
X40100000Y-90100000D03*
X43700000Y-90100000D03*
%TD*%
D14*
%TO.C,M2*%
X54300000Y-91400000D03*
D15*
X54300000Y-93940000D03*
X54300000Y-96480000D03*
%TD*%
D14*
%TO.C,REF\u002A\u002A*%
X45700000Y-99200000D03*
D15*
X43160000Y-99200000D03*
X40620000Y-99200000D03*
X38080000Y-99200000D03*
%TD*%
D12*
%TO.C,*%
X128400000Y-100700000D03*
%TD*%
D16*
%TO.C,R1*%
X57000000Y-85087500D03*
X57000000Y-86912500D03*
%TD*%
D12*
%TO.C,*%
X128400000Y-25600000D03*
%TD*%
D17*
%TO.C,U3*%
X112475000Y-92250000D03*
X109925000Y-92250000D03*
X107275000Y-92225000D03*
X104725000Y-92250000D03*
%TD*%
D14*
%TO.C,J7*%
X78475000Y-93200000D03*
D15*
X81015000Y-93200000D03*
X83555000Y-93200000D03*
%TD*%
D18*
%TO.C,R5*%
X48587500Y-47800000D03*
X50412500Y-47800000D03*
%TD*%
D17*
%TO.C,U5*%
X90190000Y-91880000D03*
X92740000Y-91880000D03*
X95290000Y-91905000D03*
X97840000Y-91880000D03*
X100390000Y-91880000D03*
%TD*%
D18*
%TO.C,R8*%
X51375000Y-40600000D03*
X53200000Y-40600000D03*
%TD*%
%TO.C,R4*%
X48987500Y-56600000D03*
X50812500Y-56600000D03*
%TD*%
D12*
%TO.C,*%
X32600000Y-100700000D03*
%TD*%
D18*
%TO.C,R6*%
X51087500Y-35100000D03*
X52912500Y-35100000D03*
%TD*%
%TO.C,R7*%
X52175000Y-45100000D03*
X54000000Y-45100000D03*
%TD*%
D17*
%TO.C,U2*%
X59787500Y-90785000D03*
X57787500Y-90785000D03*
X59787500Y-97185000D03*
X57787500Y-97185000D03*
%TD*%
D12*
%TO.C,A2*%
X123355000Y-27370000D03*
X71285000Y-60390000D03*
X71285000Y-32450000D03*
X40805000Y-27370000D03*
X122085000Y-75630000D03*
X47155000Y-75630000D03*
D19*
X73825000Y-75630000D03*
X76365000Y-75630000D03*
X78905000Y-75630000D03*
X81445000Y-75630000D03*
X101765000Y-27370000D03*
X83985000Y-75630000D03*
X86525000Y-75630000D03*
X99225000Y-27370000D03*
X43345000Y-75630000D03*
X40805000Y-75630000D03*
X89065000Y-75630000D03*
X91605000Y-75630000D03*
X95669000Y-75630000D03*
X98209000Y-75630000D03*
X100749000Y-75630000D03*
X103289000Y-75630000D03*
X105829000Y-75630000D03*
X108369000Y-75630000D03*
X68745000Y-75630000D03*
X66205000Y-75630000D03*
X63665000Y-75630000D03*
X61125000Y-75630000D03*
X58585000Y-75630000D03*
X56045000Y-75630000D03*
X53505000Y-75630000D03*
X50965000Y-75630000D03*
X43345000Y-73090000D03*
X40805000Y-73090000D03*
X43345000Y-70550000D03*
X40805000Y-70550000D03*
X43345000Y-68010000D03*
X40805000Y-68010000D03*
X43345000Y-65470000D03*
X40805000Y-65470000D03*
X43345000Y-62930000D03*
X40805000Y-62930000D03*
X43345000Y-60390000D03*
X40805000Y-60390000D03*
X43345000Y-57850000D03*
X40805000Y-57850000D03*
X43345000Y-55310000D03*
X40805000Y-55310000D03*
X43345000Y-52770000D03*
X40805000Y-52770000D03*
X43345000Y-50230000D03*
X40805000Y-50230000D03*
X43345000Y-47690000D03*
X40805000Y-47690000D03*
X43345000Y-45150000D03*
X40805000Y-45150000D03*
X43345000Y-42610000D03*
X40805000Y-42610000D03*
X43345000Y-40070000D03*
X40805000Y-40070000D03*
X43345000Y-37530000D03*
X40805000Y-37530000D03*
X43345000Y-34990000D03*
X40805000Y-34990000D03*
X86525000Y-27370000D03*
X83985000Y-27370000D03*
X81445000Y-27370000D03*
X78905000Y-27370000D03*
X76365000Y-27370000D03*
X73825000Y-27370000D03*
X71285000Y-27370000D03*
X68745000Y-27370000D03*
X63665000Y-27370000D03*
X61125000Y-27370000D03*
X58585000Y-27370000D03*
X56045000Y-27370000D03*
X53505000Y-27370000D03*
X50965000Y-27370000D03*
X48425000Y-27370000D03*
X45885000Y-27370000D03*
X113449000Y-75630000D03*
X96685000Y-27370000D03*
X94145000Y-27370000D03*
X110909000Y-75630000D03*
X43345000Y-32450000D03*
X40805000Y-32450000D03*
X106845000Y-27370000D03*
D20*
X109385000Y-27370000D03*
D19*
X104305000Y-27370000D03*
X118529000Y-75630000D03*
X115989000Y-75630000D03*
X91605000Y-27370000D03*
%TD*%
D18*
%TO.C,R3*%
X48587500Y-51200000D03*
X50412500Y-51200000D03*
%TD*%
D21*
%TO.C,U4*%
X113773000Y-27554000D03*
X36398000Y-71329000D03*
X36473000Y-27554000D03*
X113848000Y-71229000D03*
D17*
X114413000Y-66799000D03*
X114413000Y-64259000D03*
X114413000Y-61719000D03*
X114413000Y-59179000D03*
X114413000Y-56639000D03*
X114413000Y-54099000D03*
X114413000Y-51559000D03*
X114413000Y-49019000D03*
X114413000Y-46479000D03*
X114413000Y-43939000D03*
X114413000Y-41399000D03*
X114413000Y-38859000D03*
X114413000Y-36319000D03*
X114413000Y-33779000D03*
X33133000Y-56639000D03*
X33133000Y-54099000D03*
X33133000Y-51559000D03*
X33133000Y-49019000D03*
%TD*%
D21*
%TO.C,J1*%
X125500000Y-89900000D03*
D22*
X116500000Y-89900000D03*
D23*
X122500000Y-89900000D03*
D24*
X123500000Y-94400000D03*
X123500000Y-85400000D03*
%TD*%
D17*
%TO.C,U1*%
X66320000Y-96180000D03*
X68860000Y-96180000D03*
X71400000Y-96180000D03*
X73940000Y-96180000D03*
X73940000Y-86020000D03*
X71400000Y-86020000D03*
X68860000Y-86020000D03*
X66320000Y-86020000D03*
%TD*%
D25*
%TO.C,A1*%
X50790000Y-95940000D03*
D26*
X48250000Y-95940000D03*
X45710000Y-95940000D03*
X43170000Y-95940000D03*
X40630000Y-95940000D03*
X38090000Y-95940000D03*
X35550000Y-95940000D03*
X33010000Y-95940000D03*
X33010000Y-83240000D03*
X35550000Y-83240000D03*
X38090000Y-83240000D03*
X40630000Y-83240000D03*
X43170000Y-83240000D03*
X45710000Y-83240000D03*
X48250000Y-83240000D03*
X50790000Y-83240000D03*
%TD*%
M02*
