%TF.GenerationSoftware,KiCad,Pcbnew,(6.0.9)*%
%TF.CreationDate,2024-03-11T19:06:59+02:00*%
%TF.ProjectId,diplomna-shema,6469706c-6f6d-46e6-912d-7368656d612e,rev?*%
%TF.SameCoordinates,Original*%
%TF.FileFunction,Legend,Top*%
%TF.FilePolarity,Positive*%
%FSLAX46Y46*%
G04 Gerber Fmt 4.6, Leading zero omitted, Abs format (unit mm)*
G04 Created by KiCad (PCBNEW (6.0.9)) date 2024-03-11 19:06:59*
%MOMM*%
%LPD*%
G01*
G04 APERTURE LIST*
%ADD10C,0.200000*%
%ADD11C,0.000000*%
%ADD12C,0.150000*%
%ADD13C,0.250000*%
%ADD14C,0.120000*%
%ADD15C,0.127000*%
G04 APERTURE END LIST*
D10*
X31300000Y-81700000D02*
X52400000Y-81700000D01*
X52400000Y-81700000D02*
X52400000Y-97500000D01*
X52400000Y-97500000D02*
X31300000Y-97500000D01*
X31300000Y-97500000D02*
X31300000Y-81700000D01*
D11*
G36*
X121594146Y-51197036D02*
G01*
X121082038Y-51184469D01*
X120883299Y-51173770D01*
X120716146Y-51159411D01*
X120575606Y-51140854D01*
X120456712Y-51117559D01*
X120354493Y-51088989D01*
X120263980Y-51054607D01*
X120180202Y-51013872D01*
X120098191Y-50966249D01*
X119919587Y-50848180D01*
X119867062Y-50811584D01*
X119817856Y-50775683D01*
X119771627Y-50740092D01*
X119728030Y-50704427D01*
X119686724Y-50668306D01*
X119647364Y-50631344D01*
X119609607Y-50593158D01*
X119573112Y-50553365D01*
X119537533Y-50511580D01*
X119502528Y-50467420D01*
X119467754Y-50420502D01*
X119432867Y-50370442D01*
X119397525Y-50316856D01*
X119361384Y-50259361D01*
X119324101Y-50197573D01*
X119285333Y-50131108D01*
X119241601Y-50056453D01*
X119221802Y-50021059D01*
X119203320Y-49986174D01*
X119186109Y-49951216D01*
X119170122Y-49915600D01*
X119155313Y-49878742D01*
X119141635Y-49840057D01*
X119129042Y-49798963D01*
X119117487Y-49754875D01*
X119106926Y-49707209D01*
X119097310Y-49655381D01*
X119088594Y-49598807D01*
X119080732Y-49536903D01*
X119073677Y-49469085D01*
X119067383Y-49394769D01*
X119061803Y-49313370D01*
X119056891Y-49224306D01*
X119052602Y-49126992D01*
X119048888Y-49020844D01*
X119043001Y-48779710D01*
X119038860Y-48496231D01*
X119036095Y-48165736D01*
X119034336Y-47783553D01*
X119032885Y-47098180D01*
X119625436Y-47098180D01*
X119630001Y-48363721D01*
X119641475Y-49098416D01*
X119651962Y-49321096D01*
X119666770Y-49476342D01*
X119686761Y-49585915D01*
X119712800Y-49671574D01*
X119742019Y-49749257D01*
X119774496Y-49823717D01*
X119810258Y-49894967D01*
X119849333Y-49963023D01*
X119891746Y-50027897D01*
X119937526Y-50089605D01*
X119986699Y-50148160D01*
X120039291Y-50203576D01*
X120095331Y-50255868D01*
X120154845Y-50305049D01*
X120217860Y-50351133D01*
X120284403Y-50394136D01*
X120354501Y-50434070D01*
X120428182Y-50470950D01*
X120505471Y-50504790D01*
X120586396Y-50535604D01*
X120620838Y-50546240D01*
X120661698Y-50555747D01*
X120710860Y-50564187D01*
X120770209Y-50571620D01*
X120841629Y-50578108D01*
X120927007Y-50583711D01*
X121028226Y-50588490D01*
X121147171Y-50592507D01*
X121285727Y-50595823D01*
X121445780Y-50598499D01*
X121837912Y-50602174D01*
X122338645Y-50604020D01*
X122963059Y-50604527D01*
X125142266Y-50604527D01*
X125142266Y-47999059D01*
X124976640Y-47672597D01*
X124930208Y-47583612D01*
X124882083Y-47500854D01*
X124831967Y-47424086D01*
X124779562Y-47353073D01*
X124724573Y-47287577D01*
X124696017Y-47256825D01*
X124666703Y-47227365D01*
X124636594Y-47199165D01*
X124605653Y-47172198D01*
X124573844Y-47146434D01*
X124541128Y-47121842D01*
X124507469Y-47098395D01*
X124472831Y-47076061D01*
X124437174Y-47054812D01*
X124400464Y-47034618D01*
X124323730Y-46997277D01*
X124242333Y-46963803D01*
X124155977Y-46933959D01*
X124064362Y-46907510D01*
X123967194Y-46884219D01*
X123864175Y-46863850D01*
X123716989Y-46836339D01*
X123716989Y-47934666D01*
X123714418Y-48529939D01*
X123710234Y-48726013D01*
X123703253Y-48868085D01*
X123692827Y-48966435D01*
X123686121Y-49002427D01*
X123678310Y-49031342D01*
X123669314Y-49054468D01*
X123659053Y-49073087D01*
X123647444Y-49088486D01*
X123634408Y-49101949D01*
X123624161Y-49110722D01*
X123613279Y-49118956D01*
X123601802Y-49126653D01*
X123589767Y-49133810D01*
X123577214Y-49140430D01*
X123564181Y-49146510D01*
X123536832Y-49157057D01*
X123508028Y-49165450D01*
X123478079Y-49171688D01*
X123447295Y-49175773D01*
X123415985Y-49177703D01*
X123384459Y-49177479D01*
X123353027Y-49175101D01*
X123321997Y-49170569D01*
X123291681Y-49163882D01*
X123262386Y-49155041D01*
X123234424Y-49144045D01*
X123221038Y-49137739D01*
X123208102Y-49130895D01*
X123195654Y-49123512D01*
X123183732Y-49115590D01*
X123176195Y-49109920D01*
X123169100Y-49103970D01*
X123162432Y-49097567D01*
X123156174Y-49090539D01*
X123150311Y-49082716D01*
X123144827Y-49073925D01*
X123139705Y-49063996D01*
X123134930Y-49052756D01*
X123130486Y-49040033D01*
X123126356Y-49025658D01*
X123122525Y-49009457D01*
X123118976Y-48991259D01*
X123115694Y-48970892D01*
X123112663Y-48948186D01*
X123109867Y-48922969D01*
X123107289Y-48895068D01*
X123104914Y-48864313D01*
X123102726Y-48830531D01*
X123100708Y-48793552D01*
X123098845Y-48753203D01*
X123095519Y-48661712D01*
X123092620Y-48554684D01*
X123090020Y-48430748D01*
X123087592Y-48288530D01*
X123082734Y-47943761D01*
X123068841Y-46836339D01*
X121698854Y-46836339D01*
X121684976Y-47911687D01*
X121674408Y-48497404D01*
X121667592Y-48691618D01*
X121658614Y-48833646D01*
X121646619Y-48933667D01*
X121639222Y-48971108D01*
X121630750Y-49001865D01*
X121621096Y-49027212D01*
X121610152Y-49048421D01*
X121583970Y-49083516D01*
X121574097Y-49093990D01*
X121563486Y-49103868D01*
X121552181Y-49113150D01*
X121540225Y-49121834D01*
X121527661Y-49129919D01*
X121514531Y-49137402D01*
X121500877Y-49144282D01*
X121486744Y-49150558D01*
X121472174Y-49156227D01*
X121457209Y-49161288D01*
X121426267Y-49169582D01*
X121394262Y-49175424D01*
X121361535Y-49178803D01*
X121328429Y-49179706D01*
X121295288Y-49178119D01*
X121262452Y-49174029D01*
X121230266Y-49167424D01*
X121214523Y-49163174D01*
X121199071Y-49158291D01*
X121183953Y-49152772D01*
X121169210Y-49146616D01*
X121154887Y-49139821D01*
X121141026Y-49132386D01*
X121127670Y-49124310D01*
X121114862Y-49115590D01*
X121107347Y-49109501D01*
X121100275Y-49103152D01*
X121093635Y-49096308D01*
X121087410Y-49088736D01*
X121081589Y-49080202D01*
X121076159Y-49070473D01*
X121071104Y-49059313D01*
X121066412Y-49046489D01*
X121062070Y-49031768D01*
X121058064Y-49014915D01*
X121054381Y-48995697D01*
X121051007Y-48973879D01*
X121047928Y-48949228D01*
X121045132Y-48921509D01*
X121042605Y-48890490D01*
X121040333Y-48855935D01*
X121038303Y-48817611D01*
X121036501Y-48775285D01*
X121034914Y-48728722D01*
X121033529Y-48677688D01*
X121032332Y-48621950D01*
X121031310Y-48561273D01*
X121029736Y-48424168D01*
X121028698Y-48264502D01*
X121028091Y-48080405D01*
X121027734Y-47631429D01*
X121027734Y-46215962D01*
X124116921Y-46202077D01*
X127210893Y-46192983D01*
X127210893Y-43950353D01*
X127207898Y-42813952D01*
X127197164Y-42089856D01*
X127188072Y-41848617D01*
X127176060Y-41669887D01*
X127160799Y-41540144D01*
X127141961Y-41445867D01*
X127119764Y-41366359D01*
X127094526Y-41289725D01*
X127066220Y-41215937D01*
X127034819Y-41144971D01*
X127000295Y-41076798D01*
X126962620Y-41011394D01*
X126921766Y-40948732D01*
X126877705Y-40888785D01*
X126830411Y-40831528D01*
X126779855Y-40776935D01*
X126726010Y-40724978D01*
X126668847Y-40675633D01*
X126608340Y-40628872D01*
X126544460Y-40584669D01*
X126477180Y-40542999D01*
X126406472Y-40503835D01*
X126176705Y-40379857D01*
X124944566Y-40365971D01*
X123716989Y-40352330D01*
X123716989Y-41432241D01*
X123714913Y-42036021D01*
X123710943Y-42231684D01*
X123703794Y-42371892D01*
X123698742Y-42424800D01*
X123692551Y-42468166D01*
X123685107Y-42503428D01*
X123676295Y-42532028D01*
X123666001Y-42555405D01*
X123654110Y-42574999D01*
X123625077Y-42608601D01*
X123613294Y-42619835D01*
X123601204Y-42630289D01*
X123588824Y-42639965D01*
X123576172Y-42648864D01*
X123563266Y-42656986D01*
X123550123Y-42664332D01*
X123536762Y-42670904D01*
X123523200Y-42676701D01*
X123509455Y-42681725D01*
X123495544Y-42685976D01*
X123481486Y-42689455D01*
X123467299Y-42692164D01*
X123453000Y-42694102D01*
X123438607Y-42695270D01*
X123424137Y-42695670D01*
X123409609Y-42695302D01*
X123395040Y-42694167D01*
X123380448Y-42692265D01*
X123365852Y-42689598D01*
X123351268Y-42686166D01*
X123336715Y-42681971D01*
X123322209Y-42677012D01*
X123307771Y-42671291D01*
X123293416Y-42664808D01*
X123279162Y-42657564D01*
X123265028Y-42649560D01*
X123251032Y-42640797D01*
X123237191Y-42631276D01*
X123223522Y-42620997D01*
X123210044Y-42609961D01*
X123196775Y-42598169D01*
X123183732Y-42585622D01*
X123073396Y-42475285D01*
X123082734Y-41083043D01*
X123096368Y-39690557D01*
X124498673Y-39667577D01*
X125000180Y-39659613D01*
X125379059Y-39650406D01*
X125658801Y-39636134D01*
X125768835Y-39625905D01*
X125862894Y-39612975D01*
X125943914Y-39596868D01*
X126014830Y-39577105D01*
X126078580Y-39553208D01*
X126138098Y-39524701D01*
X126196323Y-39491104D01*
X126256190Y-39451940D01*
X126392594Y-39355000D01*
X126422056Y-39334221D01*
X126450112Y-39313084D01*
X126476869Y-39291456D01*
X126502437Y-39269203D01*
X126526924Y-39246192D01*
X126550438Y-39222288D01*
X126573088Y-39197358D01*
X126594981Y-39171269D01*
X126616227Y-39143887D01*
X126636933Y-39115078D01*
X126657207Y-39084708D01*
X126677159Y-39052645D01*
X126696897Y-39018753D01*
X126716528Y-38982900D01*
X126736162Y-38944952D01*
X126755906Y-38904775D01*
X126779583Y-38857460D01*
X126800737Y-38813305D01*
X126819534Y-38771592D01*
X126836144Y-38731597D01*
X126850735Y-38692603D01*
X126863475Y-38653887D01*
X126874532Y-38614729D01*
X126884075Y-38574410D01*
X126892272Y-38532209D01*
X126899290Y-38487405D01*
X126905299Y-38439278D01*
X126910467Y-38387108D01*
X126914961Y-38330174D01*
X126918951Y-38267756D01*
X126926087Y-38123586D01*
X126949060Y-37645619D01*
X129233819Y-37645619D01*
X129233819Y-35288091D01*
X129228998Y-33746295D01*
X129216590Y-33265193D01*
X129206025Y-33080860D01*
X129191844Y-32927821D01*
X129173514Y-32801439D01*
X129150504Y-32697075D01*
X129122282Y-32610093D01*
X129088317Y-32535854D01*
X129048075Y-32469722D01*
X129001026Y-32407057D01*
X128884377Y-32273580D01*
X128861096Y-32248396D01*
X128836162Y-32222926D01*
X128809759Y-32197311D01*
X128782067Y-32171692D01*
X128753269Y-32146210D01*
X128723546Y-32121007D01*
X128693081Y-32096222D01*
X128662055Y-32071998D01*
X128630651Y-32048474D01*
X128599050Y-32025793D01*
X128567434Y-32004095D01*
X128535986Y-31983521D01*
X128504887Y-31964212D01*
X128474320Y-31946310D01*
X128444465Y-31929955D01*
X128415505Y-31915288D01*
X128153428Y-31786519D01*
X126967248Y-31772649D01*
X125785852Y-31754445D01*
X125785852Y-32852544D01*
X125783847Y-33459128D01*
X125780046Y-33657272D01*
X125773227Y-33799890D01*
X125762526Y-33897911D01*
X125755450Y-33933614D01*
X125747080Y-33962266D01*
X125737307Y-33985234D01*
X125726024Y-34003884D01*
X125713122Y-34019583D01*
X125698495Y-34033696D01*
X125686954Y-34043591D01*
X125674768Y-34052642D01*
X125661937Y-34060860D01*
X125648460Y-34068260D01*
X125634338Y-34074855D01*
X125619571Y-34080657D01*
X125604159Y-34085682D01*
X125588101Y-34089942D01*
X125571399Y-34093450D01*
X125554051Y-34096220D01*
X125536058Y-34098265D01*
X125517420Y-34099599D01*
X125498137Y-34100235D01*
X125478209Y-34100186D01*
X125457636Y-34099466D01*
X125436417Y-34098088D01*
X125411315Y-34095779D01*
X125387677Y-34093026D01*
X125365459Y-34089629D01*
X125344617Y-34085385D01*
X125325108Y-34080094D01*
X125306887Y-34073556D01*
X125289912Y-34065568D01*
X125274138Y-34055929D01*
X125259521Y-34044440D01*
X125246019Y-34030898D01*
X125233587Y-34015101D01*
X125222181Y-33996850D01*
X125211758Y-33975944D01*
X125202274Y-33952179D01*
X125193685Y-33925357D01*
X125185947Y-33895276D01*
X125179018Y-33861734D01*
X125172852Y-33824531D01*
X125167407Y-33783465D01*
X125162638Y-33738335D01*
X125158502Y-33688941D01*
X125154956Y-33635080D01*
X125151954Y-33576552D01*
X125149454Y-33513156D01*
X125145785Y-33370955D01*
X125143597Y-33206868D01*
X125142541Y-33019286D01*
X125142266Y-32806600D01*
X125142266Y-31763555D01*
X123712442Y-31763555D01*
X123726319Y-33105290D01*
X123739961Y-34451833D01*
X123868730Y-34709126D01*
X123896273Y-34763342D01*
X123927085Y-34817278D01*
X123960982Y-34870766D01*
X123997784Y-34923639D01*
X124037307Y-34975728D01*
X124079370Y-35026865D01*
X124123792Y-35076883D01*
X124170389Y-35125613D01*
X124218981Y-35172888D01*
X124269385Y-35218538D01*
X124321419Y-35262397D01*
X124374902Y-35304296D01*
X124429651Y-35344067D01*
X124485485Y-35381542D01*
X124542222Y-35416554D01*
X124599679Y-35448934D01*
X124633778Y-35466809D01*
X124666560Y-35482574D01*
X124683023Y-35489713D01*
X124699836Y-35496383D01*
X124717226Y-35502602D01*
X124735419Y-35508391D01*
X124754641Y-35513769D01*
X124775120Y-35518755D01*
X124797082Y-35523368D01*
X124820753Y-35527628D01*
X124846360Y-35531555D01*
X124874129Y-35535168D01*
X124904288Y-35538485D01*
X124937061Y-35541528D01*
X125011361Y-35546864D01*
X125098841Y-35551331D01*
X125201313Y-35555086D01*
X125320589Y-35558282D01*
X125458482Y-35561075D01*
X125616805Y-35563622D01*
X126001985Y-35568593D01*
X127210893Y-35582250D01*
X127210893Y-33413335D01*
X127330567Y-33298436D01*
X127343184Y-33285957D01*
X127356029Y-33274364D01*
X127369086Y-33263657D01*
X127382340Y-33253835D01*
X127395775Y-33244898D01*
X127409378Y-33236844D01*
X127423132Y-33229674D01*
X127437023Y-33223385D01*
X127451034Y-33217978D01*
X127465153Y-33213451D01*
X127479362Y-33209804D01*
X127493646Y-33207036D01*
X127507992Y-33205146D01*
X127522382Y-33204133D01*
X127536804Y-33203998D01*
X127551240Y-33204737D01*
X127565676Y-33206353D01*
X127580097Y-33208842D01*
X127594488Y-33212205D01*
X127608834Y-33216441D01*
X127623118Y-33221548D01*
X127637327Y-33227527D01*
X127651445Y-33234376D01*
X127665457Y-33242095D01*
X127679348Y-33250682D01*
X127693102Y-33260138D01*
X127706704Y-33270461D01*
X127720140Y-33281650D01*
X127733394Y-33293705D01*
X127746451Y-33306625D01*
X127759295Y-33320410D01*
X127771913Y-33335057D01*
X127778615Y-33343029D01*
X127784952Y-33351544D01*
X127790932Y-33360798D01*
X127796568Y-33370983D01*
X127801867Y-33382296D01*
X127806841Y-33394929D01*
X127811499Y-33409078D01*
X127815851Y-33424937D01*
X127819909Y-33442701D01*
X127823680Y-33462563D01*
X127827176Y-33484719D01*
X127830407Y-33509362D01*
X127833382Y-33536687D01*
X127836112Y-33566889D01*
X127840876Y-33636699D01*
X127844778Y-33720347D01*
X127847900Y-33819390D01*
X127850321Y-33935381D01*
X127852122Y-34069877D01*
X127853383Y-34224433D01*
X127854185Y-34400603D01*
X127854730Y-34824010D01*
X127854730Y-36221044D01*
X121694306Y-36221044D01*
X121694306Y-37645619D01*
X125643212Y-37645619D01*
X125739900Y-37769597D01*
X125750266Y-37783461D01*
X125759828Y-37797446D01*
X125768587Y-37811536D01*
X125776546Y-37825719D01*
X125783706Y-37839982D01*
X125790072Y-37854310D01*
X125795645Y-37868691D01*
X125800427Y-37883112D01*
X125804422Y-37897559D01*
X125807632Y-37912017D01*
X125810058Y-37926475D01*
X125811705Y-37940919D01*
X125812573Y-37955335D01*
X125812667Y-37969710D01*
X125811987Y-37984030D01*
X125810537Y-37998282D01*
X125808320Y-38012453D01*
X125805337Y-38026530D01*
X125801591Y-38040498D01*
X125797085Y-38054345D01*
X125791821Y-38068056D01*
X125785802Y-38081620D01*
X125779030Y-38095022D01*
X125771508Y-38108248D01*
X125763238Y-38121286D01*
X125754222Y-38134123D01*
X125744464Y-38146744D01*
X125733965Y-38159136D01*
X125722729Y-38171287D01*
X125710757Y-38183181D01*
X125698052Y-38194807D01*
X125684617Y-38206151D01*
X125676152Y-38213275D01*
X125666946Y-38219981D01*
X125656717Y-38226279D01*
X125645183Y-38232183D01*
X125632060Y-38237706D01*
X125617065Y-38242860D01*
X125599916Y-38247659D01*
X125580329Y-38252113D01*
X125558022Y-38256237D01*
X125532711Y-38260043D01*
X125504115Y-38263544D01*
X125471949Y-38266752D01*
X125435932Y-38269680D01*
X125395780Y-38272340D01*
X125301940Y-38276910D01*
X125188166Y-38280562D01*
X125052196Y-38283399D01*
X124891766Y-38285521D01*
X124704613Y-38287029D01*
X124488474Y-38288026D01*
X124241086Y-38288613D01*
X123643510Y-38288960D01*
X121694306Y-38288960D01*
X121694306Y-40623509D01*
X121698334Y-42117213D01*
X121708859Y-42585654D01*
X121729938Y-42916453D01*
X121745580Y-43041479D01*
X121765232Y-43145585D01*
X121789354Y-43233268D01*
X121818402Y-43309025D01*
X121852833Y-43377352D01*
X121893106Y-43442746D01*
X121993005Y-43582723D01*
X122014678Y-43611346D01*
X122036711Y-43638681D01*
X122059245Y-43664843D01*
X122082420Y-43689947D01*
X122106378Y-43714106D01*
X122131260Y-43737436D01*
X122157205Y-43760052D01*
X122184357Y-43782067D01*
X122212854Y-43803598D01*
X122242839Y-43824757D01*
X122274452Y-43845661D01*
X122307835Y-43866423D01*
X122343128Y-43887159D01*
X122380472Y-43907983D01*
X122420008Y-43929009D01*
X122461877Y-43950353D01*
X122769914Y-44102086D01*
X123956086Y-44115972D01*
X125142266Y-44129628D01*
X125142266Y-43091115D01*
X125143900Y-42682600D01*
X125151029Y-42368902D01*
X125157698Y-42243723D01*
X125166993Y-42137586D01*
X125179332Y-42048934D01*
X125195132Y-41976214D01*
X125214812Y-41917872D01*
X125238788Y-41872352D01*
X125252517Y-41853914D01*
X125267478Y-41838100D01*
X125301300Y-41813562D01*
X125340671Y-41797182D01*
X125386009Y-41787407D01*
X125437731Y-41782682D01*
X125496255Y-41781453D01*
X125545732Y-41782297D01*
X125568206Y-41783756D01*
X125589233Y-41786265D01*
X125608863Y-41790094D01*
X125627142Y-41795511D01*
X125635790Y-41798900D01*
X125644119Y-41802786D01*
X125652134Y-41807205D01*
X125659841Y-41812188D01*
X125667247Y-41817771D01*
X125674358Y-41823987D01*
X125681179Y-41830869D01*
X125687717Y-41838451D01*
X125693977Y-41846767D01*
X125699966Y-41855850D01*
X125705689Y-41865734D01*
X125711153Y-41876452D01*
X125721326Y-41900528D01*
X125730533Y-41928347D01*
X125738822Y-41960177D01*
X125746242Y-41996287D01*
X125752839Y-42036948D01*
X125758663Y-42082428D01*
X125763761Y-42132997D01*
X125768182Y-42188923D01*
X125771973Y-42250476D01*
X125775182Y-42317926D01*
X125777857Y-42391541D01*
X125780048Y-42471590D01*
X125783163Y-42652069D01*
X125784913Y-42861517D01*
X125785681Y-43102088D01*
X125785852Y-43375935D01*
X125785852Y-44768422D01*
X119625436Y-44768422D01*
X119625436Y-47098180D01*
X119032885Y-47098180D01*
X119032350Y-46845433D01*
X119027802Y-44216969D01*
X121799859Y-44216969D01*
X121611497Y-44014730D01*
X121572241Y-43970196D01*
X121531272Y-43920499D01*
X121489884Y-43867362D01*
X121449368Y-43812512D01*
X121411019Y-43757674D01*
X121376128Y-43704572D01*
X121360383Y-43679211D01*
X121345988Y-43654931D01*
X121333104Y-43631949D01*
X121321893Y-43610478D01*
X121282247Y-43532050D01*
X121264301Y-43494883D01*
X121247550Y-43458017D01*
X121231954Y-43420653D01*
X121217472Y-43381995D01*
X121204062Y-43341244D01*
X121191683Y-43297603D01*
X121180294Y-43250275D01*
X121169853Y-43198460D01*
X121160320Y-43141362D01*
X121151653Y-43078183D01*
X121143810Y-43008125D01*
X121136751Y-42930390D01*
X121130434Y-42844181D01*
X121124819Y-42748700D01*
X121119863Y-42643149D01*
X121115526Y-42526730D01*
X121108542Y-42258098D01*
X121103539Y-41936423D01*
X121100185Y-41555323D01*
X121098150Y-41108414D01*
X121097105Y-40589317D01*
X121096665Y-39309026D01*
X121096665Y-35669591D01*
X123868730Y-35669591D01*
X123680367Y-35467366D01*
X123641318Y-35423238D01*
X123600929Y-35374653D01*
X123560438Y-35323170D01*
X123521087Y-35270345D01*
X123484113Y-35217734D01*
X123450758Y-35166894D01*
X123435824Y-35142625D01*
X123422259Y-35119383D01*
X123410219Y-35097362D01*
X123399858Y-35076756D01*
X123361607Y-35001274D01*
X123327727Y-34928282D01*
X123297956Y-34855317D01*
X123272030Y-34779915D01*
X123260427Y-34740530D01*
X123249687Y-34699612D01*
X123239777Y-34656854D01*
X123230665Y-34611947D01*
X123214701Y-34514455D01*
X123201531Y-34404674D01*
X123190895Y-34280139D01*
X123182529Y-34138388D01*
X123176170Y-33976957D01*
X123171557Y-33793384D01*
X123168425Y-33585204D01*
X123166514Y-33349955D01*
X123165299Y-32788396D01*
X123165299Y-31212102D01*
X125588159Y-31212102D01*
X127159028Y-31218431D01*
X127670891Y-31230538D01*
X128045482Y-31252335D01*
X128191874Y-31267742D01*
X128316633Y-31286620D01*
X128423991Y-31309318D01*
X128518175Y-31336187D01*
X128603414Y-31367577D01*
X128683939Y-31403835D01*
X128847756Y-31492360D01*
X128906283Y-31527881D01*
X128964535Y-31567089D01*
X129022343Y-31609797D01*
X129079538Y-31655816D01*
X129135953Y-31704959D01*
X129191418Y-31757035D01*
X129245765Y-31811859D01*
X129298824Y-31869241D01*
X129350428Y-31928992D01*
X129400408Y-31990926D01*
X129448595Y-32054853D01*
X129494820Y-32120585D01*
X129538915Y-32187934D01*
X129580711Y-32256712D01*
X129620039Y-32326730D01*
X129656732Y-32397801D01*
X129808473Y-32705586D01*
X129822358Y-35448918D01*
X129836000Y-38197041D01*
X128686677Y-38197041D01*
X128276143Y-38197198D01*
X127971726Y-38200000D01*
X127854362Y-38203485D01*
X127757589Y-38208943D01*
X127679426Y-38216811D01*
X127617896Y-38227526D01*
X127571018Y-38241526D01*
X127536812Y-38259247D01*
X127513300Y-38281127D01*
X127498501Y-38307602D01*
X127490437Y-38339111D01*
X127487128Y-38376089D01*
X127486856Y-38468205D01*
X127485065Y-38503186D01*
X127479861Y-38543933D01*
X127471492Y-38589747D01*
X127460206Y-38639927D01*
X127446254Y-38693770D01*
X127429883Y-38750578D01*
X127411342Y-38809648D01*
X127390881Y-38870280D01*
X127368748Y-38931773D01*
X127345192Y-38993426D01*
X127320463Y-39054539D01*
X127294808Y-39114409D01*
X127268478Y-39172338D01*
X127241721Y-39227623D01*
X127214785Y-39279563D01*
X127187921Y-39327458D01*
X127175589Y-39348173D01*
X127161068Y-39370508D01*
X127144548Y-39394255D01*
X127126217Y-39419204D01*
X127106264Y-39445147D01*
X127084880Y-39471877D01*
X127038572Y-39526858D01*
X126988809Y-39582480D01*
X126937105Y-39637073D01*
X126884974Y-39688970D01*
X126859222Y-39713385D01*
X126833932Y-39736501D01*
X126786230Y-39781986D01*
X126743646Y-39824847D01*
X126724527Y-39845005D01*
X126706991Y-39864162D01*
X126691140Y-39882203D01*
X126677075Y-39899013D01*
X126664898Y-39914476D01*
X126654710Y-39928478D01*
X126646612Y-39940903D01*
X126640705Y-39951637D01*
X126637092Y-39960565D01*
X126636177Y-39964316D01*
X126635873Y-39967572D01*
X126636193Y-39970319D01*
X126637149Y-39972543D01*
X126638755Y-39974228D01*
X126641023Y-39975362D01*
X126671933Y-39986730D01*
X126703455Y-40000103D01*
X126768080Y-40032597D01*
X126834393Y-40072306D01*
X126901889Y-40118692D01*
X126970062Y-40171217D01*
X127038407Y-40229341D01*
X127106419Y-40292529D01*
X127173593Y-40360240D01*
X127239423Y-40431937D01*
X127303404Y-40507082D01*
X127365031Y-40585137D01*
X127423798Y-40665563D01*
X127479202Y-40747822D01*
X127530735Y-40831377D01*
X127577893Y-40915688D01*
X127620171Y-41000218D01*
X127739602Y-41252965D01*
X127739602Y-46767400D01*
X125082429Y-46813359D01*
X125257150Y-47020146D01*
X125275640Y-47042725D01*
X125294841Y-47067221D01*
X125334748Y-47121028D01*
X125375632Y-47179681D01*
X125416253Y-47241296D01*
X125455370Y-47303988D01*
X125491744Y-47365872D01*
X125524134Y-47425064D01*
X125538448Y-47453062D01*
X125551301Y-47479680D01*
X125670968Y-47732427D01*
X125684617Y-49464772D01*
X125698495Y-51201924D01*
X123216042Y-51201924D01*
X121594146Y-51197036D01*
G37*
D12*
X38978571Y-94521428D02*
X38978571Y-95378571D01*
X38978571Y-94950000D02*
X37478571Y-94950000D01*
X37692857Y-95092857D01*
X37835714Y-95235714D01*
X37907142Y-95378571D01*
X38192857Y-93378571D02*
X38264285Y-93164285D01*
X38335714Y-93092857D01*
X38478571Y-93021428D01*
X38692857Y-93021428D01*
X38835714Y-93092857D01*
X38907142Y-93164285D01*
X38978571Y-93307142D01*
X38978571Y-93878571D01*
X37478571Y-93878571D01*
X37478571Y-93378571D01*
X37550000Y-93235714D01*
X37621428Y-93164285D01*
X37764285Y-93092857D01*
X37907142Y-93092857D01*
X38050000Y-93164285D01*
X38121428Y-93235714D01*
X38192857Y-93378571D01*
X38192857Y-93878571D01*
X41178571Y-94114285D02*
X41178571Y-94971428D01*
X41178571Y-94542857D02*
X39678571Y-94542857D01*
X39892857Y-94685714D01*
X40035714Y-94828571D01*
X40107142Y-94971428D01*
X40750000Y-93542857D02*
X40750000Y-92828571D01*
X41178571Y-93685714D02*
X39678571Y-93185714D01*
X41178571Y-92685714D01*
D13*
X128204761Y-76452380D02*
X126204761Y-76452380D01*
X128204761Y-75880952D01*
X126204761Y-75880952D01*
X128204761Y-74976190D02*
X127157142Y-74976190D01*
X126966666Y-75023809D01*
X126871428Y-75119047D01*
X126871428Y-75309523D01*
X126966666Y-75404761D01*
X128109523Y-74976190D02*
X128204761Y-75071428D01*
X128204761Y-75309523D01*
X128109523Y-75404761D01*
X127919047Y-75452380D01*
X127728571Y-75452380D01*
X127538095Y-75404761D01*
X127442857Y-75309523D01*
X127442857Y-75071428D01*
X127347619Y-74976190D01*
X128204761Y-74071428D02*
X126204761Y-74071428D01*
X128109523Y-74071428D02*
X128204761Y-74166666D01*
X128204761Y-74357142D01*
X128109523Y-74452380D01*
X128014285Y-74500000D01*
X127823809Y-74547619D01*
X127252380Y-74547619D01*
X127061904Y-74500000D01*
X126966666Y-74452380D01*
X126871428Y-74357142D01*
X126871428Y-74166666D01*
X126966666Y-74071428D01*
X128109523Y-73214285D02*
X128204761Y-73309523D01*
X128204761Y-73500000D01*
X128109523Y-73595238D01*
X127919047Y-73642857D01*
X127157142Y-73642857D01*
X126966666Y-73595238D01*
X126871428Y-73500000D01*
X126871428Y-73309523D01*
X126966666Y-73214285D01*
X127157142Y-73166666D01*
X127347619Y-73166666D01*
X127538095Y-73642857D01*
X126871428Y-72833333D02*
X126871428Y-72309523D01*
X128204761Y-72833333D01*
X128204761Y-72309523D01*
X128204761Y-71928571D02*
X126204761Y-71928571D01*
X128204761Y-71500000D02*
X127157142Y-71500000D01*
X126966666Y-71547619D01*
X126871428Y-71642857D01*
X126871428Y-71785714D01*
X126966666Y-71880952D01*
X127061904Y-71928571D01*
X128204761Y-70595238D02*
X126204761Y-70595238D01*
X128109523Y-70595238D02*
X128204761Y-70690476D01*
X128204761Y-70880952D01*
X128109523Y-70976190D01*
X128014285Y-71023809D01*
X127823809Y-71071428D01*
X127252380Y-71071428D01*
X127061904Y-71023809D01*
X126966666Y-70976190D01*
X126871428Y-70880952D01*
X126871428Y-70690476D01*
X126966666Y-70595238D01*
X128204761Y-69690476D02*
X127157142Y-69690476D01*
X126966666Y-69738095D01*
X126871428Y-69833333D01*
X126871428Y-70023809D01*
X126966666Y-70119047D01*
X128109523Y-69690476D02*
X128204761Y-69785714D01*
X128204761Y-70023809D01*
X128109523Y-70119047D01*
X127919047Y-70166666D01*
X127728571Y-70166666D01*
X127538095Y-70119047D01*
X127442857Y-70023809D01*
X127442857Y-69785714D01*
X127347619Y-69690476D01*
X126300000Y-67928571D02*
X126204761Y-68023809D01*
X126204761Y-68166666D01*
X126300000Y-68309523D01*
X126490476Y-68404761D01*
X126680952Y-68452380D01*
X127061904Y-68500000D01*
X127347619Y-68500000D01*
X127728571Y-68452380D01*
X127919047Y-68404761D01*
X128109523Y-68309523D01*
X128204761Y-68166666D01*
X128204761Y-68071428D01*
X128109523Y-67928571D01*
X128014285Y-67880952D01*
X127347619Y-67880952D01*
X127347619Y-68071428D01*
X128109523Y-67071428D02*
X128204761Y-67166666D01*
X128204761Y-67357142D01*
X128109523Y-67452380D01*
X127919047Y-67500000D01*
X127157142Y-67500000D01*
X126966666Y-67452380D01*
X126871428Y-67357142D01*
X126871428Y-67166666D01*
X126966666Y-67071428D01*
X127157142Y-67023809D01*
X127347619Y-67023809D01*
X127538095Y-67500000D01*
X128204761Y-66452380D02*
X128109523Y-66547619D01*
X128014285Y-66595238D01*
X127823809Y-66642857D01*
X127252380Y-66642857D01*
X127061904Y-66595238D01*
X126966666Y-66547619D01*
X126871428Y-66452380D01*
X126871428Y-66309523D01*
X126966666Y-66214285D01*
X127061904Y-66166666D01*
X127252380Y-66119047D01*
X127823809Y-66119047D01*
X128014285Y-66166666D01*
X128109523Y-66214285D01*
X128204761Y-66309523D01*
X128204761Y-66452380D01*
X128204761Y-65690476D02*
X126871428Y-65690476D01*
X127252380Y-65690476D02*
X127061904Y-65642857D01*
X126966666Y-65595238D01*
X126871428Y-65500000D01*
X126871428Y-65404761D01*
X126871428Y-64642857D02*
X128490476Y-64642857D01*
X128680952Y-64690476D01*
X128776190Y-64738095D01*
X128871428Y-64833333D01*
X128871428Y-64976190D01*
X128776190Y-65071428D01*
X128109523Y-64642857D02*
X128204761Y-64738095D01*
X128204761Y-64928571D01*
X128109523Y-65023809D01*
X128014285Y-65071428D01*
X127823809Y-65119047D01*
X127252380Y-65119047D01*
X127061904Y-65071428D01*
X126966666Y-65023809D01*
X126871428Y-64928571D01*
X126871428Y-64738095D01*
X126966666Y-64642857D01*
X128204761Y-64166666D02*
X126871428Y-64166666D01*
X126204761Y-64166666D02*
X126300000Y-64214285D01*
X126395238Y-64166666D01*
X126300000Y-64119047D01*
X126204761Y-64166666D01*
X126395238Y-64166666D01*
X128109523Y-63309523D02*
X128204761Y-63404761D01*
X128204761Y-63595238D01*
X128109523Y-63690476D01*
X127919047Y-63738095D01*
X127157142Y-63738095D01*
X126966666Y-63690476D01*
X126871428Y-63595238D01*
X126871428Y-63404761D01*
X126966666Y-63309523D01*
X127157142Y-63261904D01*
X127347619Y-63261904D01*
X127538095Y-63738095D01*
X126871428Y-62928571D02*
X128204761Y-62690476D01*
X126871428Y-62452380D01*
X128204761Y-61642857D02*
X127157142Y-61642857D01*
X126966666Y-61690476D01*
X126871428Y-61785714D01*
X126871428Y-61976190D01*
X126966666Y-62071428D01*
X128109523Y-61642857D02*
X128204761Y-61738095D01*
X128204761Y-61976190D01*
X128109523Y-62071428D01*
X127919047Y-62119047D01*
X127728571Y-62119047D01*
X127538095Y-62071428D01*
X127442857Y-61976190D01*
X127442857Y-61738095D01*
X127347619Y-61642857D01*
X128204761Y-59880952D02*
X128204761Y-60452380D01*
X128204761Y-60166666D02*
X126204761Y-60166666D01*
X126490476Y-60261904D01*
X126680952Y-60357142D01*
X126776190Y-60452380D01*
X126395238Y-59500000D02*
X126300000Y-59452380D01*
X126204761Y-59357142D01*
X126204761Y-59119047D01*
X126300000Y-59023809D01*
X126395238Y-58976190D01*
X126585714Y-58928571D01*
X126776190Y-58928571D01*
X127061904Y-58976190D01*
X128204761Y-59547619D01*
X128204761Y-58928571D01*
X126204761Y-58642857D02*
X128204761Y-58309523D01*
X126204761Y-57976190D01*
X126395238Y-56928571D02*
X126300000Y-56880952D01*
X126204761Y-56785714D01*
X126204761Y-56547619D01*
X126300000Y-56452380D01*
X126395238Y-56404761D01*
X126585714Y-56357142D01*
X126776190Y-56357142D01*
X127061904Y-56404761D01*
X128204761Y-56976190D01*
X128204761Y-56357142D01*
X126204761Y-55738095D02*
X126204761Y-55642857D01*
X126300000Y-55547619D01*
X126395238Y-55500000D01*
X126585714Y-55452380D01*
X126966666Y-55404761D01*
X127442857Y-55404761D01*
X127823809Y-55452380D01*
X128014285Y-55500000D01*
X128109523Y-55547619D01*
X128204761Y-55642857D01*
X128204761Y-55738095D01*
X128109523Y-55833333D01*
X128014285Y-55880952D01*
X127823809Y-55928571D01*
X127442857Y-55976190D01*
X126966666Y-55976190D01*
X126585714Y-55928571D01*
X126395238Y-55880952D01*
X126300000Y-55833333D01*
X126204761Y-55738095D01*
X126395238Y-55023809D02*
X126300000Y-54976190D01*
X126204761Y-54880952D01*
X126204761Y-54642857D01*
X126300000Y-54547619D01*
X126395238Y-54500000D01*
X126585714Y-54452380D01*
X126776190Y-54452380D01*
X127061904Y-54500000D01*
X128204761Y-55071428D01*
X128204761Y-54452380D01*
X126871428Y-53595238D02*
X128204761Y-53595238D01*
X126109523Y-53833333D02*
X127538095Y-54071428D01*
X127538095Y-53452380D01*
D12*
X81478571Y-91514285D02*
X79978571Y-91514285D01*
X81478571Y-90657142D01*
X79978571Y-90657142D01*
X79978571Y-89657142D02*
X79978571Y-89371428D01*
X80050000Y-89228571D01*
X80192857Y-89085714D01*
X80478571Y-89014285D01*
X80978571Y-89014285D01*
X81264285Y-89085714D01*
X81407142Y-89228571D01*
X81478571Y-89371428D01*
X81478571Y-89657142D01*
X81407142Y-89800000D01*
X81264285Y-89942857D01*
X80978571Y-90014285D01*
X80478571Y-90014285D01*
X80192857Y-89942857D01*
X80050000Y-89800000D01*
X79978571Y-89657142D01*
X42121428Y-95071428D02*
X42050000Y-95000000D01*
X41978571Y-94857142D01*
X41978571Y-94500000D01*
X42050000Y-94357142D01*
X42121428Y-94285714D01*
X42264285Y-94214285D01*
X42407142Y-94214285D01*
X42621428Y-94285714D01*
X43478571Y-95142857D01*
X43478571Y-94214285D01*
X43050000Y-93642857D02*
X43050000Y-92928571D01*
X43478571Y-93785714D02*
X41978571Y-93285714D01*
X43478571Y-92785714D01*
X44621428Y-95178571D02*
X44550000Y-95107142D01*
X44478571Y-94964285D01*
X44478571Y-94607142D01*
X44550000Y-94464285D01*
X44621428Y-94392857D01*
X44764285Y-94321428D01*
X44907142Y-94321428D01*
X45121428Y-94392857D01*
X45978571Y-95250000D01*
X45978571Y-94321428D01*
X45192857Y-93178571D02*
X45264285Y-92964285D01*
X45335714Y-92892857D01*
X45478571Y-92821428D01*
X45692857Y-92821428D01*
X45835714Y-92892857D01*
X45907142Y-92964285D01*
X45978571Y-93107142D01*
X45978571Y-93678571D01*
X44478571Y-93678571D01*
X44478571Y-93178571D01*
X44550000Y-93035714D01*
X44621428Y-92964285D01*
X44764285Y-92892857D01*
X44907142Y-92892857D01*
X45050000Y-92964285D01*
X45121428Y-93035714D01*
X45192857Y-93178571D01*
X45192857Y-93678571D01*
X79178571Y-91478571D02*
X77678571Y-91478571D01*
X79178571Y-90621428D01*
X77678571Y-90621428D01*
X79035714Y-89050000D02*
X79107142Y-89121428D01*
X79178571Y-89335714D01*
X79178571Y-89478571D01*
X79107142Y-89692857D01*
X78964285Y-89835714D01*
X78821428Y-89907142D01*
X78535714Y-89978571D01*
X78321428Y-89978571D01*
X78035714Y-89907142D01*
X77892857Y-89835714D01*
X77750000Y-89692857D01*
X77678571Y-89478571D01*
X77678571Y-89335714D01*
X77750000Y-89121428D01*
X77821428Y-89050000D01*
X83635714Y-89535714D02*
X83707142Y-89607142D01*
X83778571Y-89821428D01*
X83778571Y-89964285D01*
X83707142Y-90178571D01*
X83564285Y-90321428D01*
X83421428Y-90392857D01*
X83135714Y-90464285D01*
X82921428Y-90464285D01*
X82635714Y-90392857D01*
X82492857Y-90321428D01*
X82350000Y-90178571D01*
X82278571Y-89964285D01*
X82278571Y-89821428D01*
X82350000Y-89607142D01*
X82421428Y-89535714D01*
%TO.C,R2*%
X52202380Y-86066666D02*
X51726190Y-86400000D01*
X52202380Y-86638095D02*
X51202380Y-86638095D01*
X51202380Y-86257142D01*
X51250000Y-86161904D01*
X51297619Y-86114285D01*
X51392857Y-86066666D01*
X51535714Y-86066666D01*
X51630952Y-86114285D01*
X51678571Y-86161904D01*
X51726190Y-86257142D01*
X51726190Y-86638095D01*
X51297619Y-85685714D02*
X51250000Y-85638095D01*
X51202380Y-85542857D01*
X51202380Y-85304761D01*
X51250000Y-85209523D01*
X51297619Y-85161904D01*
X51392857Y-85114285D01*
X51488095Y-85114285D01*
X51630952Y-85161904D01*
X52202380Y-85733333D01*
X52202380Y-85114285D01*
%TO.C,*%
%TO.C,C1*%
X41733333Y-87257142D02*
X41685714Y-87304761D01*
X41542857Y-87352380D01*
X41447619Y-87352380D01*
X41304761Y-87304761D01*
X41209523Y-87209523D01*
X41161904Y-87114285D01*
X41114285Y-86923809D01*
X41114285Y-86780952D01*
X41161904Y-86590476D01*
X41209523Y-86495238D01*
X41304761Y-86400000D01*
X41447619Y-86352380D01*
X41542857Y-86352380D01*
X41685714Y-86400000D01*
X41733333Y-86447619D01*
X42685714Y-87352380D02*
X42114285Y-87352380D01*
X42400000Y-87352380D02*
X42400000Y-86352380D01*
X42304761Y-86495238D01*
X42209523Y-86590476D01*
X42114285Y-86638095D01*
%TO.C,M2*%
X53490476Y-89522380D02*
X53490476Y-88522380D01*
X53823809Y-89236666D01*
X54157142Y-88522380D01*
X54157142Y-89522380D01*
X54585714Y-88617619D02*
X54633333Y-88570000D01*
X54728571Y-88522380D01*
X54966666Y-88522380D01*
X55061904Y-88570000D01*
X55109523Y-88617619D01*
X55157142Y-88712857D01*
X55157142Y-88808095D01*
X55109523Y-88950952D01*
X54538095Y-89522380D01*
X55157142Y-89522380D01*
X50038095Y-99262380D02*
X50038095Y-98262380D01*
X50371428Y-98976666D01*
X50704761Y-98262380D01*
X50704761Y-99262380D01*
X51323809Y-99262380D02*
X51228571Y-99214761D01*
X51180952Y-99167142D01*
X51133333Y-99071904D01*
X51133333Y-98786190D01*
X51180952Y-98690952D01*
X51228571Y-98643333D01*
X51323809Y-98595714D01*
X51466666Y-98595714D01*
X51561904Y-98643333D01*
X51609523Y-98690952D01*
X51657142Y-98786190D01*
X51657142Y-99071904D01*
X51609523Y-99167142D01*
X51561904Y-99214761D01*
X51466666Y-99262380D01*
X51323809Y-99262380D01*
X51942857Y-98595714D02*
X52323809Y-98595714D01*
X52085714Y-98262380D02*
X52085714Y-99119523D01*
X52133333Y-99214761D01*
X52228571Y-99262380D01*
X52323809Y-99262380D01*
X52800000Y-99262380D02*
X52704761Y-99214761D01*
X52657142Y-99167142D01*
X52609523Y-99071904D01*
X52609523Y-98786190D01*
X52657142Y-98690952D01*
X52704761Y-98643333D01*
X52800000Y-98595714D01*
X52942857Y-98595714D01*
X53038095Y-98643333D01*
X53085714Y-98690952D01*
X53133333Y-98786190D01*
X53133333Y-99071904D01*
X53085714Y-99167142D01*
X53038095Y-99214761D01*
X52942857Y-99262380D01*
X52800000Y-99262380D01*
X53561904Y-99262380D02*
X53561904Y-98595714D01*
X53561904Y-98786190D02*
X53609523Y-98690952D01*
X53657142Y-98643333D01*
X53752380Y-98595714D01*
X53847619Y-98595714D01*
X53942857Y-99357619D02*
X54704761Y-99357619D01*
X54895238Y-99214761D02*
X55038095Y-99262380D01*
X55276190Y-99262380D01*
X55371428Y-99214761D01*
X55419047Y-99167142D01*
X55466666Y-99071904D01*
X55466666Y-98976666D01*
X55419047Y-98881428D01*
X55371428Y-98833809D01*
X55276190Y-98786190D01*
X55085714Y-98738571D01*
X54990476Y-98690952D01*
X54942857Y-98643333D01*
X54895238Y-98548095D01*
X54895238Y-98452857D01*
X54942857Y-98357619D01*
X54990476Y-98310000D01*
X55085714Y-98262380D01*
X55323809Y-98262380D01*
X55466666Y-98310000D01*
X56276190Y-99214761D02*
X56180952Y-99262380D01*
X55990476Y-99262380D01*
X55895238Y-99214761D01*
X55847619Y-99119523D01*
X55847619Y-98738571D01*
X55895238Y-98643333D01*
X55990476Y-98595714D01*
X56180952Y-98595714D01*
X56276190Y-98643333D01*
X56323809Y-98738571D01*
X56323809Y-98833809D01*
X55847619Y-98929047D01*
X56752380Y-99262380D02*
X56752380Y-98595714D01*
X56752380Y-98786190D02*
X56800000Y-98690952D01*
X56847619Y-98643333D01*
X56942857Y-98595714D01*
X57038095Y-98595714D01*
X57276190Y-98595714D02*
X57514285Y-99262380D01*
X57752380Y-98595714D01*
X58276190Y-99262380D02*
X58180952Y-99214761D01*
X58133333Y-99167142D01*
X58085714Y-99071904D01*
X58085714Y-98786190D01*
X58133333Y-98690952D01*
X58180952Y-98643333D01*
X58276190Y-98595714D01*
X58419047Y-98595714D01*
X58514285Y-98643333D01*
X58561904Y-98690952D01*
X58609523Y-98786190D01*
X58609523Y-99071904D01*
X58561904Y-99167142D01*
X58514285Y-99214761D01*
X58419047Y-99262380D01*
X58276190Y-99262380D01*
%TO.C,*%
%TO.C,R1*%
X59102380Y-86166666D02*
X58626190Y-86500000D01*
X59102380Y-86738095D02*
X58102380Y-86738095D01*
X58102380Y-86357142D01*
X58150000Y-86261904D01*
X58197619Y-86214285D01*
X58292857Y-86166666D01*
X58435714Y-86166666D01*
X58530952Y-86214285D01*
X58578571Y-86261904D01*
X58626190Y-86357142D01*
X58626190Y-86738095D01*
X59102380Y-85214285D02*
X59102380Y-85785714D01*
X59102380Y-85500000D02*
X58102380Y-85500000D01*
X58245238Y-85595238D01*
X58340476Y-85690476D01*
X58388095Y-85785714D01*
%TO.C,*%
%TO.C,U3*%
X107437699Y-96212096D02*
X107437699Y-97022040D01*
X107485342Y-97117328D01*
X107532986Y-97164972D01*
X107628274Y-97212616D01*
X107818849Y-97212616D01*
X107914137Y-97164972D01*
X107961780Y-97117328D01*
X108009424Y-97022040D01*
X108009424Y-96212096D01*
X108390575Y-96212096D02*
X109009944Y-96212096D01*
X108676438Y-96593246D01*
X108819369Y-96593246D01*
X108914657Y-96640890D01*
X108962300Y-96688534D01*
X109009944Y-96783821D01*
X109009944Y-97022040D01*
X108962300Y-97117328D01*
X108914657Y-97164972D01*
X108819369Y-97212616D01*
X108533506Y-97212616D01*
X108438219Y-97164972D01*
X108390575Y-97117328D01*
X105161023Y-95293146D02*
X105161023Y-94291453D01*
X105161023Y-94768450D02*
X105733419Y-94768450D01*
X105733419Y-95293146D02*
X105733419Y-94291453D01*
X106782812Y-95197747D02*
X106735112Y-95245447D01*
X106592013Y-95293146D01*
X106496614Y-95293146D01*
X106353515Y-95245447D01*
X106258115Y-95150047D01*
X106210416Y-95054648D01*
X106162716Y-94863849D01*
X106162716Y-94720750D01*
X106210416Y-94529952D01*
X106258115Y-94434552D01*
X106353515Y-94339153D01*
X106496614Y-94291453D01*
X106592013Y-94291453D01*
X106735112Y-94339153D01*
X106782812Y-94386853D01*
X107212109Y-94911549D02*
X107975303Y-94911549D01*
X108404600Y-95245447D02*
X108547699Y-95293146D01*
X108786198Y-95293146D01*
X108881597Y-95245447D01*
X108929297Y-95197747D01*
X108976996Y-95102348D01*
X108976996Y-95006948D01*
X108929297Y-94911549D01*
X108881597Y-94863849D01*
X108786198Y-94816150D01*
X108595399Y-94768450D01*
X108500000Y-94720750D01*
X108452300Y-94673051D01*
X108404600Y-94577651D01*
X108404600Y-94482252D01*
X108452300Y-94386853D01*
X108500000Y-94339153D01*
X108595399Y-94291453D01*
X108833897Y-94291453D01*
X108976996Y-94339153D01*
X109978689Y-95293146D02*
X109644792Y-94816150D01*
X109406293Y-95293146D02*
X109406293Y-94291453D01*
X109787891Y-94291453D01*
X109883290Y-94339153D01*
X109930990Y-94386853D01*
X109978689Y-94482252D01*
X109978689Y-94625351D01*
X109930990Y-94720750D01*
X109883290Y-94768450D01*
X109787891Y-94816150D01*
X109406293Y-94816150D01*
X110598785Y-94291453D02*
X110694184Y-94291453D01*
X110789584Y-94339153D01*
X110837283Y-94386853D01*
X110884983Y-94482252D01*
X110932683Y-94673051D01*
X110932683Y-94911549D01*
X110884983Y-95102348D01*
X110837283Y-95197747D01*
X110789584Y-95245447D01*
X110694184Y-95293146D01*
X110598785Y-95293146D01*
X110503386Y-95245447D01*
X110455686Y-95197747D01*
X110407986Y-95102348D01*
X110360287Y-94911549D01*
X110360287Y-94673051D01*
X110407986Y-94482252D01*
X110455686Y-94386853D01*
X110503386Y-94339153D01*
X110598785Y-94291453D01*
X111791277Y-94625351D02*
X111791277Y-95293146D01*
X111552778Y-94243754D02*
X111314280Y-94959249D01*
X111934376Y-94959249D01*
X104352380Y-90833333D02*
X105352380Y-90500000D01*
X104352380Y-90166666D01*
X105257142Y-89261904D02*
X105304761Y-89309523D01*
X105352380Y-89452380D01*
X105352380Y-89547619D01*
X105304761Y-89690476D01*
X105209523Y-89785714D01*
X105114285Y-89833333D01*
X104923809Y-89880952D01*
X104780952Y-89880952D01*
X104590476Y-89833333D01*
X104495238Y-89785714D01*
X104400000Y-89690476D01*
X104352380Y-89547619D01*
X104352380Y-89452380D01*
X104400000Y-89309523D01*
X104447619Y-89261904D01*
X105257142Y-88261904D02*
X105304761Y-88309523D01*
X105352380Y-88452380D01*
X105352380Y-88547619D01*
X105304761Y-88690476D01*
X105209523Y-88785714D01*
X105114285Y-88833333D01*
X104923809Y-88880952D01*
X104780952Y-88880952D01*
X104590476Y-88833333D01*
X104495238Y-88785714D01*
X104400000Y-88690476D01*
X104352380Y-88547619D01*
X104352380Y-88452380D01*
X104400000Y-88309523D01*
X104447619Y-88261904D01*
X111900000Y-90221904D02*
X111852380Y-90317142D01*
X111852380Y-90460000D01*
X111900000Y-90602857D01*
X111995238Y-90698095D01*
X112090476Y-90745714D01*
X112280952Y-90793333D01*
X112423809Y-90793333D01*
X112614285Y-90745714D01*
X112709523Y-90698095D01*
X112804761Y-90602857D01*
X112852380Y-90460000D01*
X112852380Y-90364761D01*
X112804761Y-90221904D01*
X112757142Y-90174285D01*
X112423809Y-90174285D01*
X112423809Y-90364761D01*
X112852380Y-89745714D02*
X111852380Y-89745714D01*
X112852380Y-89174285D01*
X111852380Y-89174285D01*
X112852380Y-88698095D02*
X111852380Y-88698095D01*
X111852380Y-88460000D01*
X111900000Y-88317142D01*
X111995238Y-88221904D01*
X112090476Y-88174285D01*
X112280952Y-88126666D01*
X112423809Y-88126666D01*
X112614285Y-88174285D01*
X112709523Y-88221904D01*
X112804761Y-88317142D01*
X112852380Y-88460000D01*
X112852380Y-88698095D01*
X106752380Y-90823809D02*
X106752380Y-90252380D01*
X107752380Y-90538095D02*
X106752380Y-90538095D01*
X107752380Y-89347619D02*
X107276190Y-89680952D01*
X107752380Y-89919047D02*
X106752380Y-89919047D01*
X106752380Y-89538095D01*
X106800000Y-89442857D01*
X106847619Y-89395238D01*
X106942857Y-89347619D01*
X107085714Y-89347619D01*
X107180952Y-89395238D01*
X107228571Y-89442857D01*
X107276190Y-89538095D01*
X107276190Y-89919047D01*
X107752380Y-88919047D02*
X106752380Y-88919047D01*
X106800000Y-87919047D02*
X106752380Y-88014285D01*
X106752380Y-88157142D01*
X106800000Y-88300000D01*
X106895238Y-88395238D01*
X106990476Y-88442857D01*
X107180952Y-88490476D01*
X107323809Y-88490476D01*
X107514285Y-88442857D01*
X107609523Y-88395238D01*
X107704761Y-88300000D01*
X107752380Y-88157142D01*
X107752380Y-88061904D01*
X107704761Y-87919047D01*
X107657142Y-87871428D01*
X107323809Y-87871428D01*
X107323809Y-88061904D01*
X109828571Y-90861904D02*
X109828571Y-90528571D01*
X110352380Y-90385714D02*
X110352380Y-90861904D01*
X109352380Y-90861904D01*
X109352380Y-90385714D01*
X110257142Y-89385714D02*
X110304761Y-89433333D01*
X110352380Y-89576190D01*
X110352380Y-89671428D01*
X110304761Y-89814285D01*
X110209523Y-89909523D01*
X110114285Y-89957142D01*
X109923809Y-90004761D01*
X109780952Y-90004761D01*
X109590476Y-89957142D01*
X109495238Y-89909523D01*
X109400000Y-89814285D01*
X109352380Y-89671428D01*
X109352380Y-89576190D01*
X109400000Y-89433333D01*
X109447619Y-89385714D01*
X110352380Y-88957142D02*
X109352380Y-88957142D01*
X109828571Y-88957142D02*
X109828571Y-88385714D01*
X110352380Y-88385714D02*
X109352380Y-88385714D01*
X109352380Y-87719047D02*
X109352380Y-87528571D01*
X109400000Y-87433333D01*
X109495238Y-87338095D01*
X109685714Y-87290476D01*
X110019047Y-87290476D01*
X110209523Y-87338095D01*
X110304761Y-87433333D01*
X110352380Y-87528571D01*
X110352380Y-87719047D01*
X110304761Y-87814285D01*
X110209523Y-87909523D01*
X110019047Y-87957142D01*
X109685714Y-87957142D01*
X109495238Y-87909523D01*
X109400000Y-87814285D01*
X109352380Y-87719047D01*
%TO.C,J7*%
X77952380Y-93833333D02*
X78666666Y-93833333D01*
X78809523Y-93880952D01*
X78904761Y-93976190D01*
X78952380Y-94119047D01*
X78952380Y-94214285D01*
X77952380Y-93452380D02*
X77952380Y-92785714D01*
X78952380Y-93214285D01*
X76628571Y-96552380D02*
X76628571Y-95885714D01*
X76628571Y-95980952D02*
X76676190Y-95933333D01*
X76771428Y-95885714D01*
X76914285Y-95885714D01*
X77009523Y-95933333D01*
X77057142Y-96028571D01*
X77057142Y-96552380D01*
X77057142Y-96028571D02*
X77104761Y-95933333D01*
X77200000Y-95885714D01*
X77342857Y-95885714D01*
X77438095Y-95933333D01*
X77485714Y-96028571D01*
X77485714Y-96552380D01*
X77961904Y-96552380D02*
X77961904Y-95885714D01*
X77961904Y-95552380D02*
X77914285Y-95600000D01*
X77961904Y-95647619D01*
X78009523Y-95600000D01*
X77961904Y-95552380D01*
X77961904Y-95647619D01*
X78866666Y-96504761D02*
X78771428Y-96552380D01*
X78580952Y-96552380D01*
X78485714Y-96504761D01*
X78438095Y-96457142D01*
X78390476Y-96361904D01*
X78390476Y-96076190D01*
X78438095Y-95980952D01*
X78485714Y-95933333D01*
X78580952Y-95885714D01*
X78771428Y-95885714D01*
X78866666Y-95933333D01*
X79295238Y-96552380D02*
X79295238Y-95885714D01*
X79295238Y-96076190D02*
X79342857Y-95980952D01*
X79390476Y-95933333D01*
X79485714Y-95885714D01*
X79580952Y-95885714D01*
X80057142Y-96552380D02*
X79961904Y-96504761D01*
X79914285Y-96457142D01*
X79866666Y-96361904D01*
X79866666Y-96076190D01*
X79914285Y-95980952D01*
X79961904Y-95933333D01*
X80057142Y-95885714D01*
X80200000Y-95885714D01*
X80295238Y-95933333D01*
X80342857Y-95980952D01*
X80390476Y-96076190D01*
X80390476Y-96361904D01*
X80342857Y-96457142D01*
X80295238Y-96504761D01*
X80200000Y-96552380D01*
X80057142Y-96552380D01*
X81533333Y-96504761D02*
X81628571Y-96552380D01*
X81819047Y-96552380D01*
X81914285Y-96504761D01*
X81961904Y-96409523D01*
X81961904Y-96361904D01*
X81914285Y-96266666D01*
X81819047Y-96219047D01*
X81676190Y-96219047D01*
X81580952Y-96171428D01*
X81533333Y-96076190D01*
X81533333Y-96028571D01*
X81580952Y-95933333D01*
X81676190Y-95885714D01*
X81819047Y-95885714D01*
X81914285Y-95933333D01*
X82295238Y-95885714D02*
X82485714Y-96552380D01*
X82676190Y-96076190D01*
X82866666Y-96552380D01*
X83057142Y-95885714D01*
X83438095Y-96552380D02*
X83438095Y-95885714D01*
X83438095Y-95552380D02*
X83390476Y-95600000D01*
X83438095Y-95647619D01*
X83485714Y-95600000D01*
X83438095Y-95552380D01*
X83438095Y-95647619D01*
X83771428Y-95885714D02*
X84152380Y-95885714D01*
X83914285Y-95552380D02*
X83914285Y-96409523D01*
X83961904Y-96504761D01*
X84057142Y-96552380D01*
X84152380Y-96552380D01*
X84914285Y-96504761D02*
X84819047Y-96552380D01*
X84628571Y-96552380D01*
X84533333Y-96504761D01*
X84485714Y-96457142D01*
X84438095Y-96361904D01*
X84438095Y-96076190D01*
X84485714Y-95980952D01*
X84533333Y-95933333D01*
X84628571Y-95885714D01*
X84819047Y-95885714D01*
X84914285Y-95933333D01*
X85342857Y-96552380D02*
X85342857Y-95552380D01*
X85771428Y-96552380D02*
X85771428Y-96028571D01*
X85723809Y-95933333D01*
X85628571Y-95885714D01*
X85485714Y-95885714D01*
X85390476Y-95933333D01*
X85342857Y-95980952D01*
%TO.C,R5*%
X49333333Y-46602380D02*
X49000000Y-46126190D01*
X48761904Y-46602380D02*
X48761904Y-45602380D01*
X49142857Y-45602380D01*
X49238095Y-45650000D01*
X49285714Y-45697619D01*
X49333333Y-45792857D01*
X49333333Y-45935714D01*
X49285714Y-46030952D01*
X49238095Y-46078571D01*
X49142857Y-46126190D01*
X48761904Y-46126190D01*
X50238095Y-45602380D02*
X49761904Y-45602380D01*
X49714285Y-46078571D01*
X49761904Y-46030952D01*
X49857142Y-45983333D01*
X50095238Y-45983333D01*
X50190476Y-46030952D01*
X50238095Y-46078571D01*
X50285714Y-46173809D01*
X50285714Y-46411904D01*
X50238095Y-46507142D01*
X50190476Y-46554761D01*
X50095238Y-46602380D01*
X49857142Y-46602380D01*
X49761904Y-46554761D01*
X49714285Y-46507142D01*
%TO.C,U5*%
X89652380Y-95061904D02*
X90461904Y-95061904D01*
X90557142Y-95014285D01*
X90604761Y-94966666D01*
X90652380Y-94871428D01*
X90652380Y-94680952D01*
X90604761Y-94585714D01*
X90557142Y-94538095D01*
X90461904Y-94490476D01*
X89652380Y-94490476D01*
X89652380Y-93538095D02*
X89652380Y-94014285D01*
X90128571Y-94061904D01*
X90080952Y-94014285D01*
X90033333Y-93919047D01*
X90033333Y-93680952D01*
X90080952Y-93585714D01*
X90128571Y-93538095D01*
X90223809Y-93490476D01*
X90461904Y-93490476D01*
X90557142Y-93538095D01*
X90604761Y-93585714D01*
X90652380Y-93680952D01*
X90652380Y-93919047D01*
X90604761Y-94014285D01*
X90557142Y-94061904D01*
X88752380Y-94990476D02*
X87752380Y-94990476D01*
X88228571Y-94990476D02*
X88228571Y-94419047D01*
X88752380Y-94419047D02*
X87752380Y-94419047D01*
X87752380Y-94038095D02*
X88752380Y-93371428D01*
X87752380Y-93371428D02*
X88752380Y-94038095D01*
X87752380Y-93085714D02*
X87752380Y-92419047D01*
X88752380Y-92847619D01*
X88752380Y-91514285D02*
X88752380Y-92085714D01*
X88752380Y-91800000D02*
X87752380Y-91800000D01*
X87895238Y-91895238D01*
X87990476Y-91990476D01*
X88038095Y-92085714D01*
X88752380Y-90561904D02*
X88752380Y-91133333D01*
X88752380Y-90847619D02*
X87752380Y-90847619D01*
X87895238Y-90942857D01*
X87990476Y-91038095D01*
X88038095Y-91133333D01*
%TO.C,R8*%
X52120833Y-39402380D02*
X51787500Y-38926190D01*
X51549404Y-39402380D02*
X51549404Y-38402380D01*
X51930357Y-38402380D01*
X52025595Y-38450000D01*
X52073214Y-38497619D01*
X52120833Y-38592857D01*
X52120833Y-38735714D01*
X52073214Y-38830952D01*
X52025595Y-38878571D01*
X51930357Y-38926190D01*
X51549404Y-38926190D01*
X52692261Y-38830952D02*
X52597023Y-38783333D01*
X52549404Y-38735714D01*
X52501785Y-38640476D01*
X52501785Y-38592857D01*
X52549404Y-38497619D01*
X52597023Y-38450000D01*
X52692261Y-38402380D01*
X52882738Y-38402380D01*
X52977976Y-38450000D01*
X53025595Y-38497619D01*
X53073214Y-38592857D01*
X53073214Y-38640476D01*
X53025595Y-38735714D01*
X52977976Y-38783333D01*
X52882738Y-38830952D01*
X52692261Y-38830952D01*
X52597023Y-38878571D01*
X52549404Y-38926190D01*
X52501785Y-39021428D01*
X52501785Y-39211904D01*
X52549404Y-39307142D01*
X52597023Y-39354761D01*
X52692261Y-39402380D01*
X52882738Y-39402380D01*
X52977976Y-39354761D01*
X53025595Y-39307142D01*
X53073214Y-39211904D01*
X53073214Y-39021428D01*
X53025595Y-38926190D01*
X52977976Y-38878571D01*
X52882738Y-38830952D01*
%TO.C,R4*%
X49733333Y-55402380D02*
X49400000Y-54926190D01*
X49161904Y-55402380D02*
X49161904Y-54402380D01*
X49542857Y-54402380D01*
X49638095Y-54450000D01*
X49685714Y-54497619D01*
X49733333Y-54592857D01*
X49733333Y-54735714D01*
X49685714Y-54830952D01*
X49638095Y-54878571D01*
X49542857Y-54926190D01*
X49161904Y-54926190D01*
X50590476Y-54735714D02*
X50590476Y-55402380D01*
X50352380Y-54354761D02*
X50114285Y-55069047D01*
X50733333Y-55069047D01*
%TO.C,*%
%TO.C,R6*%
X51833333Y-33902380D02*
X51500000Y-33426190D01*
X51261904Y-33902380D02*
X51261904Y-32902380D01*
X51642857Y-32902380D01*
X51738095Y-32950000D01*
X51785714Y-32997619D01*
X51833333Y-33092857D01*
X51833333Y-33235714D01*
X51785714Y-33330952D01*
X51738095Y-33378571D01*
X51642857Y-33426190D01*
X51261904Y-33426190D01*
X52690476Y-32902380D02*
X52500000Y-32902380D01*
X52404761Y-32950000D01*
X52357142Y-32997619D01*
X52261904Y-33140476D01*
X52214285Y-33330952D01*
X52214285Y-33711904D01*
X52261904Y-33807142D01*
X52309523Y-33854761D01*
X52404761Y-33902380D01*
X52595238Y-33902380D01*
X52690476Y-33854761D01*
X52738095Y-33807142D01*
X52785714Y-33711904D01*
X52785714Y-33473809D01*
X52738095Y-33378571D01*
X52690476Y-33330952D01*
X52595238Y-33283333D01*
X52404761Y-33283333D01*
X52309523Y-33330952D01*
X52261904Y-33378571D01*
X52214285Y-33473809D01*
%TO.C,R7*%
X52920833Y-43902380D02*
X52587500Y-43426190D01*
X52349404Y-43902380D02*
X52349404Y-42902380D01*
X52730357Y-42902380D01*
X52825595Y-42950000D01*
X52873214Y-42997619D01*
X52920833Y-43092857D01*
X52920833Y-43235714D01*
X52873214Y-43330952D01*
X52825595Y-43378571D01*
X52730357Y-43426190D01*
X52349404Y-43426190D01*
X53254166Y-42902380D02*
X53920833Y-42902380D01*
X53492261Y-43902380D01*
%TO.C,U2*%
X57692380Y-95761904D02*
X58501904Y-95761904D01*
X58597142Y-95714285D01*
X58644761Y-95666666D01*
X58692380Y-95571428D01*
X58692380Y-95380952D01*
X58644761Y-95285714D01*
X58597142Y-95238095D01*
X58501904Y-95190476D01*
X57692380Y-95190476D01*
X57787619Y-94761904D02*
X57740000Y-94714285D01*
X57692380Y-94619047D01*
X57692380Y-94380952D01*
X57740000Y-94285714D01*
X57787619Y-94238095D01*
X57882857Y-94190476D01*
X57978095Y-94190476D01*
X58120952Y-94238095D01*
X58692380Y-94809523D01*
X58692380Y-94190476D01*
X60652380Y-97071428D02*
X60652380Y-96500000D01*
X61652380Y-96785714D02*
X60652380Y-96785714D01*
X61557142Y-95595238D02*
X61604761Y-95642857D01*
X61652380Y-95785714D01*
X61652380Y-95880952D01*
X61604761Y-96023809D01*
X61509523Y-96119047D01*
X61414285Y-96166666D01*
X61223809Y-96214285D01*
X61080952Y-96214285D01*
X60890476Y-96166666D01*
X60795238Y-96119047D01*
X60700000Y-96023809D01*
X60652380Y-95880952D01*
X60652380Y-95785714D01*
X60700000Y-95642857D01*
X60747619Y-95595238D01*
X61652380Y-94595238D02*
X61176190Y-94928571D01*
X61652380Y-95166666D02*
X60652380Y-95166666D01*
X60652380Y-94785714D01*
X60700000Y-94690476D01*
X60747619Y-94642857D01*
X60842857Y-94595238D01*
X60985714Y-94595238D01*
X61080952Y-94642857D01*
X61128571Y-94690476D01*
X61176190Y-94785714D01*
X61176190Y-95166666D01*
X60652380Y-94309523D02*
X60652380Y-93738095D01*
X61652380Y-94023809D02*
X60652380Y-94023809D01*
X60652380Y-92928571D02*
X60652380Y-93404761D01*
X61128571Y-93452380D01*
X61080952Y-93404761D01*
X61033333Y-93309523D01*
X61033333Y-93071428D01*
X61080952Y-92976190D01*
X61128571Y-92928571D01*
X61223809Y-92880952D01*
X61461904Y-92880952D01*
X61557142Y-92928571D01*
X61604761Y-92976190D01*
X61652380Y-93071428D01*
X61652380Y-93309523D01*
X61604761Y-93404761D01*
X61557142Y-93452380D01*
X60652380Y-92261904D02*
X60652380Y-92166666D01*
X60700000Y-92071428D01*
X60747619Y-92023809D01*
X60842857Y-91976190D01*
X61033333Y-91928571D01*
X61271428Y-91928571D01*
X61461904Y-91976190D01*
X61557142Y-92023809D01*
X61604761Y-92071428D01*
X61652380Y-92166666D01*
X61652380Y-92261904D01*
X61604761Y-92357142D01*
X61557142Y-92404761D01*
X61461904Y-92452380D01*
X61271428Y-92500000D01*
X61033333Y-92500000D01*
X60842857Y-92452380D01*
X60747619Y-92404761D01*
X60700000Y-92357142D01*
X60652380Y-92261904D01*
X60652380Y-91309523D02*
X60652380Y-91214285D01*
X60700000Y-91119047D01*
X60747619Y-91071428D01*
X60842857Y-91023809D01*
X61033333Y-90976190D01*
X61271428Y-90976190D01*
X61461904Y-91023809D01*
X61557142Y-91071428D01*
X61604761Y-91119047D01*
X61652380Y-91214285D01*
X61652380Y-91309523D01*
X61604761Y-91404761D01*
X61557142Y-91452380D01*
X61461904Y-91500000D01*
X61271428Y-91547619D01*
X61033333Y-91547619D01*
X60842857Y-91500000D01*
X60747619Y-91452380D01*
X60700000Y-91404761D01*
X60652380Y-91309523D01*
X60652380Y-90357142D02*
X60652380Y-90261904D01*
X60700000Y-90166666D01*
X60747619Y-90119047D01*
X60842857Y-90071428D01*
X61033333Y-90023809D01*
X61271428Y-90023809D01*
X61461904Y-90071428D01*
X61557142Y-90119047D01*
X61604761Y-90166666D01*
X61652380Y-90261904D01*
X61652380Y-90357142D01*
X61604761Y-90452380D01*
X61557142Y-90500000D01*
X61461904Y-90547619D01*
X61271428Y-90595238D01*
X61033333Y-90595238D01*
X60842857Y-90547619D01*
X60747619Y-90500000D01*
X60700000Y-90452380D01*
X60652380Y-90357142D01*
%TO.C,A2*%
X133351666Y-30074285D02*
X133351666Y-29598095D01*
X133637380Y-30169523D02*
X132637380Y-29836190D01*
X133637380Y-29502857D01*
X132732619Y-29217142D02*
X132685000Y-29169523D01*
X132637380Y-29074285D01*
X132637380Y-28836190D01*
X132685000Y-28740952D01*
X132732619Y-28693333D01*
X132827857Y-28645714D01*
X132923095Y-28645714D01*
X133065952Y-28693333D01*
X133637380Y-29264761D01*
X133637380Y-28645714D01*
X38431666Y-38600952D02*
X38431666Y-38124761D01*
X38717380Y-38696190D02*
X37717380Y-38362857D01*
X38717380Y-38029523D01*
X38717380Y-37696190D02*
X38050714Y-37696190D01*
X38241190Y-37696190D02*
X38145952Y-37648571D01*
X38098333Y-37600952D01*
X38050714Y-37505714D01*
X38050714Y-37410476D01*
X38717380Y-36648571D02*
X37717380Y-36648571D01*
X38669761Y-36648571D02*
X38717380Y-36743809D01*
X38717380Y-36934285D01*
X38669761Y-37029523D01*
X38622142Y-37077142D01*
X38526904Y-37124761D01*
X38241190Y-37124761D01*
X38145952Y-37077142D01*
X38098333Y-37029523D01*
X38050714Y-36934285D01*
X38050714Y-36743809D01*
X38098333Y-36648571D01*
X38050714Y-35743809D02*
X38717380Y-35743809D01*
X38050714Y-36172380D02*
X38574523Y-36172380D01*
X38669761Y-36124761D01*
X38717380Y-36029523D01*
X38717380Y-35886666D01*
X38669761Y-35791428D01*
X38622142Y-35743809D01*
X38717380Y-35267619D02*
X38050714Y-35267619D01*
X37717380Y-35267619D02*
X37765000Y-35315238D01*
X37812619Y-35267619D01*
X37765000Y-35220000D01*
X37717380Y-35267619D01*
X37812619Y-35267619D01*
X38050714Y-34791428D02*
X38717380Y-34791428D01*
X38145952Y-34791428D02*
X38098333Y-34743809D01*
X38050714Y-34648571D01*
X38050714Y-34505714D01*
X38098333Y-34410476D01*
X38193571Y-34362857D01*
X38717380Y-34362857D01*
X38717380Y-33743809D02*
X38669761Y-33839047D01*
X38622142Y-33886666D01*
X38526904Y-33934285D01*
X38241190Y-33934285D01*
X38145952Y-33886666D01*
X38098333Y-33839047D01*
X38050714Y-33743809D01*
X38050714Y-33600952D01*
X38098333Y-33505714D01*
X38145952Y-33458095D01*
X38241190Y-33410476D01*
X38526904Y-33410476D01*
X38622142Y-33458095D01*
X38669761Y-33505714D01*
X38717380Y-33600952D01*
X38717380Y-33743809D01*
X38717380Y-32220000D02*
X37717380Y-32220000D01*
X38431666Y-31886666D01*
X37717380Y-31553333D01*
X38717380Y-31553333D01*
X38669761Y-30696190D02*
X38717380Y-30791428D01*
X38717380Y-30981904D01*
X38669761Y-31077142D01*
X38574523Y-31124761D01*
X38193571Y-31124761D01*
X38098333Y-31077142D01*
X38050714Y-30981904D01*
X38050714Y-30791428D01*
X38098333Y-30696190D01*
X38193571Y-30648571D01*
X38288809Y-30648571D01*
X38384047Y-31124761D01*
X38050714Y-29791428D02*
X38860238Y-29791428D01*
X38955476Y-29839047D01*
X39003095Y-29886666D01*
X39050714Y-29981904D01*
X39050714Y-30124761D01*
X39003095Y-30220000D01*
X38669761Y-29791428D02*
X38717380Y-29886666D01*
X38717380Y-30077142D01*
X38669761Y-30172380D01*
X38622142Y-30220000D01*
X38526904Y-30267619D01*
X38241190Y-30267619D01*
X38145952Y-30220000D01*
X38098333Y-30172380D01*
X38050714Y-30077142D01*
X38050714Y-29886666D01*
X38098333Y-29791428D01*
X38717380Y-28886666D02*
X38193571Y-28886666D01*
X38098333Y-28934285D01*
X38050714Y-29029523D01*
X38050714Y-29220000D01*
X38098333Y-29315238D01*
X38669761Y-28886666D02*
X38717380Y-28981904D01*
X38717380Y-29220000D01*
X38669761Y-29315238D01*
X38574523Y-29362857D01*
X38479285Y-29362857D01*
X38384047Y-29315238D01*
X38336428Y-29220000D01*
X38336428Y-28981904D01*
X38288809Y-28886666D01*
%TO.C,R3*%
X49333333Y-50002380D02*
X49000000Y-49526190D01*
X48761904Y-50002380D02*
X48761904Y-49002380D01*
X49142857Y-49002380D01*
X49238095Y-49050000D01*
X49285714Y-49097619D01*
X49333333Y-49192857D01*
X49333333Y-49335714D01*
X49285714Y-49430952D01*
X49238095Y-49478571D01*
X49142857Y-49526190D01*
X48761904Y-49526190D01*
X49666666Y-49002380D02*
X50285714Y-49002380D01*
X49952380Y-49383333D01*
X50095238Y-49383333D01*
X50190476Y-49430952D01*
X50238095Y-49478571D01*
X50285714Y-49573809D01*
X50285714Y-49811904D01*
X50238095Y-49907142D01*
X50190476Y-49954761D01*
X50095238Y-50002380D01*
X49809523Y-50002380D01*
X49714285Y-49954761D01*
X49666666Y-49907142D01*
%TO.C,U4*%
X116552380Y-63680952D02*
X116552380Y-64157142D01*
X115552380Y-64157142D01*
X116457142Y-62776190D02*
X116504761Y-62823809D01*
X116552380Y-62966666D01*
X116552380Y-63061904D01*
X116504761Y-63204761D01*
X116409523Y-63300000D01*
X116314285Y-63347619D01*
X116123809Y-63395238D01*
X115980952Y-63395238D01*
X115790476Y-63347619D01*
X115695238Y-63300000D01*
X115600000Y-63204761D01*
X115552380Y-63061904D01*
X115552380Y-62966666D01*
X115600000Y-62823809D01*
X115647619Y-62776190D01*
X116552380Y-62347619D02*
X115552380Y-62347619D01*
X115552380Y-62109523D01*
X115600000Y-61966666D01*
X115695238Y-61871428D01*
X115790476Y-61823809D01*
X115980952Y-61776190D01*
X116123809Y-61776190D01*
X116314285Y-61823809D01*
X116409523Y-61871428D01*
X116504761Y-61966666D01*
X116552380Y-62109523D01*
X116552380Y-62347619D01*
X116171428Y-61347619D02*
X116171428Y-60585714D01*
X115552380Y-60252380D02*
X115552380Y-59680952D01*
X116552380Y-59966666D02*
X115552380Y-59966666D01*
X116028571Y-59014285D02*
X116028571Y-59347619D01*
X116552380Y-59347619D02*
X115552380Y-59347619D01*
X115552380Y-58871428D01*
X115552380Y-58633333D02*
X115552380Y-58061904D01*
X116552380Y-58347619D02*
X115552380Y-58347619D01*
X116171428Y-57728571D02*
X116171428Y-56966666D01*
X115647619Y-56538095D02*
X115600000Y-56490476D01*
X115552380Y-56395238D01*
X115552380Y-56157142D01*
X115600000Y-56061904D01*
X115647619Y-56014285D01*
X115742857Y-55966666D01*
X115838095Y-55966666D01*
X115980952Y-56014285D01*
X116552380Y-56585714D01*
X116552380Y-55966666D01*
X116457142Y-55538095D02*
X116504761Y-55490476D01*
X116552380Y-55538095D01*
X116504761Y-55585714D01*
X116457142Y-55538095D01*
X116552380Y-55538095D01*
X115980952Y-54919047D02*
X115933333Y-55014285D01*
X115885714Y-55061904D01*
X115790476Y-55109523D01*
X115742857Y-55109523D01*
X115647619Y-55061904D01*
X115600000Y-55014285D01*
X115552380Y-54919047D01*
X115552380Y-54728571D01*
X115600000Y-54633333D01*
X115647619Y-54585714D01*
X115742857Y-54538095D01*
X115790476Y-54538095D01*
X115885714Y-54585714D01*
X115933333Y-54633333D01*
X115980952Y-54728571D01*
X115980952Y-54919047D01*
X116028571Y-55014285D01*
X116076190Y-55061904D01*
X116171428Y-55109523D01*
X116361904Y-55109523D01*
X116457142Y-55061904D01*
X116504761Y-55014285D01*
X116552380Y-54919047D01*
X116552380Y-54728571D01*
X116504761Y-54633333D01*
X116457142Y-54585714D01*
X116361904Y-54538095D01*
X116171428Y-54538095D01*
X116076190Y-54585714D01*
X116028571Y-54633333D01*
X115980952Y-54728571D01*
X116552380Y-54109523D02*
X115885714Y-54109523D01*
X115552380Y-54109523D02*
X115600000Y-54157142D01*
X115647619Y-54109523D01*
X115600000Y-54061904D01*
X115552380Y-54109523D01*
X115647619Y-54109523D01*
X115885714Y-53633333D02*
X116552380Y-53633333D01*
X115980952Y-53633333D02*
X115933333Y-53585714D01*
X115885714Y-53490476D01*
X115885714Y-53347619D01*
X115933333Y-53252380D01*
X116028571Y-53204761D01*
X116552380Y-53204761D01*
X116504761Y-52300000D02*
X116552380Y-52395238D01*
X116552380Y-52585714D01*
X116504761Y-52680952D01*
X116457142Y-52728571D01*
X116361904Y-52776190D01*
X116076190Y-52776190D01*
X115980952Y-52728571D01*
X115933333Y-52680952D01*
X115885714Y-52585714D01*
X115885714Y-52395238D01*
X115933333Y-52300000D01*
X116552380Y-51871428D02*
X115552380Y-51871428D01*
X116552380Y-51442857D02*
X116028571Y-51442857D01*
X115933333Y-51490476D01*
X115885714Y-51585714D01*
X115885714Y-51728571D01*
X115933333Y-51823809D01*
X115980952Y-51871428D01*
X115652380Y-70661904D02*
X116461904Y-70661904D01*
X116557142Y-70614285D01*
X116604761Y-70566666D01*
X116652380Y-70471428D01*
X116652380Y-70280952D01*
X116604761Y-70185714D01*
X116557142Y-70138095D01*
X116461904Y-70090476D01*
X115652380Y-70090476D01*
X115985714Y-69185714D02*
X116652380Y-69185714D01*
X115604761Y-69423809D02*
X116319047Y-69661904D01*
X116319047Y-69042857D01*
%TO.C,J1*%
X126892380Y-86393333D02*
X127606666Y-86393333D01*
X127749523Y-86440952D01*
X127844761Y-86536190D01*
X127892380Y-86679047D01*
X127892380Y-86774285D01*
X127892380Y-85393333D02*
X127892380Y-85964761D01*
X127892380Y-85679047D02*
X126892380Y-85679047D01*
X127035238Y-85774285D01*
X127130476Y-85869523D01*
X127178095Y-85964761D01*
X113140000Y-83112380D02*
X113140000Y-82112380D01*
X113520952Y-82112380D01*
X113616190Y-82160000D01*
X113663809Y-82207619D01*
X113711428Y-82302857D01*
X113711428Y-82445714D01*
X113663809Y-82540952D01*
X113616190Y-82588571D01*
X113520952Y-82636190D01*
X113140000Y-82636190D01*
X114282857Y-83112380D02*
X114187619Y-83064761D01*
X114140000Y-83017142D01*
X114092380Y-82921904D01*
X114092380Y-82636190D01*
X114140000Y-82540952D01*
X114187619Y-82493333D01*
X114282857Y-82445714D01*
X114425714Y-82445714D01*
X114520952Y-82493333D01*
X114568571Y-82540952D01*
X114616190Y-82636190D01*
X114616190Y-82921904D01*
X114568571Y-83017142D01*
X114520952Y-83064761D01*
X114425714Y-83112380D01*
X114282857Y-83112380D01*
X114949523Y-82445714D02*
X115140000Y-83112380D01*
X115330476Y-82636190D01*
X115520952Y-83112380D01*
X115711428Y-82445714D01*
X116473333Y-83064761D02*
X116378095Y-83112380D01*
X116187619Y-83112380D01*
X116092380Y-83064761D01*
X116044761Y-82969523D01*
X116044761Y-82588571D01*
X116092380Y-82493333D01*
X116187619Y-82445714D01*
X116378095Y-82445714D01*
X116473333Y-82493333D01*
X116520952Y-82588571D01*
X116520952Y-82683809D01*
X116044761Y-82779047D01*
X116949523Y-83112380D02*
X116949523Y-82445714D01*
X116949523Y-82636190D02*
X116997142Y-82540952D01*
X117044761Y-82493333D01*
X117140000Y-82445714D01*
X117235238Y-82445714D01*
X118330476Y-83112380D02*
X118330476Y-82445714D01*
X118330476Y-82112380D02*
X118282857Y-82160000D01*
X118330476Y-82207619D01*
X118378095Y-82160000D01*
X118330476Y-82112380D01*
X118330476Y-82207619D01*
X118806666Y-82445714D02*
X118806666Y-83112380D01*
X118806666Y-82540952D02*
X118854285Y-82493333D01*
X118949523Y-82445714D01*
X119092380Y-82445714D01*
X119187619Y-82493333D01*
X119235238Y-82588571D01*
X119235238Y-83112380D01*
X119711428Y-82445714D02*
X119711428Y-83445714D01*
X119711428Y-82493333D02*
X119806666Y-82445714D01*
X119997142Y-82445714D01*
X120092380Y-82493333D01*
X120140000Y-82540952D01*
X120187619Y-82636190D01*
X120187619Y-82921904D01*
X120140000Y-83017142D01*
X120092380Y-83064761D01*
X119997142Y-83112380D01*
X119806666Y-83112380D01*
X119711428Y-83064761D01*
X121044761Y-82445714D02*
X121044761Y-83112380D01*
X120616190Y-82445714D02*
X120616190Y-82969523D01*
X120663809Y-83064761D01*
X120759047Y-83112380D01*
X120901904Y-83112380D01*
X120997142Y-83064761D01*
X121044761Y-83017142D01*
X121378095Y-82445714D02*
X121759047Y-82445714D01*
X121520952Y-82112380D02*
X121520952Y-82969523D01*
X121568571Y-83064761D01*
X121663809Y-83112380D01*
X121759047Y-83112380D01*
X123378095Y-83112380D02*
X122806666Y-83112380D01*
X123092380Y-83112380D02*
X123092380Y-82112380D01*
X122997142Y-82255238D01*
X122901904Y-82350476D01*
X122806666Y-82398095D01*
X123759047Y-82207619D02*
X123806666Y-82160000D01*
X123901904Y-82112380D01*
X124140000Y-82112380D01*
X124235238Y-82160000D01*
X124282857Y-82207619D01*
X124330476Y-82302857D01*
X124330476Y-82398095D01*
X124282857Y-82540952D01*
X123711428Y-83112380D01*
X124330476Y-83112380D01*
X124616190Y-82112380D02*
X124949523Y-83112380D01*
X125282857Y-82112380D01*
X125616190Y-83112380D02*
X125616190Y-82112380D01*
X125854285Y-82112380D01*
X125997142Y-82160000D01*
X126092380Y-82255238D01*
X126140000Y-82350476D01*
X126187619Y-82540952D01*
X126187619Y-82683809D01*
X126140000Y-82874285D01*
X126092380Y-82969523D01*
X125997142Y-83064761D01*
X125854285Y-83112380D01*
X125616190Y-83112380D01*
X127187619Y-83017142D02*
X127140000Y-83064761D01*
X126997142Y-83112380D01*
X126901904Y-83112380D01*
X126759047Y-83064761D01*
X126663809Y-82969523D01*
X126616190Y-82874285D01*
X126568571Y-82683809D01*
X126568571Y-82540952D01*
X126616190Y-82350476D01*
X126663809Y-82255238D01*
X126759047Y-82160000D01*
X126901904Y-82112380D01*
X126997142Y-82112380D01*
X127140000Y-82160000D01*
X127187619Y-82207619D01*
%TO.C,U1*%
X64752380Y-94066666D02*
X64752380Y-93495238D01*
X65752380Y-93780952D02*
X64752380Y-93780952D01*
X65657142Y-92590476D02*
X65704761Y-92638095D01*
X65752380Y-92780952D01*
X65752380Y-92876190D01*
X65704761Y-93019047D01*
X65609523Y-93114285D01*
X65514285Y-93161904D01*
X65323809Y-93209523D01*
X65180952Y-93209523D01*
X64990476Y-93161904D01*
X64895238Y-93114285D01*
X64800000Y-93019047D01*
X64752380Y-92876190D01*
X64752380Y-92780952D01*
X64800000Y-92638095D01*
X64847619Y-92590476D01*
X65704761Y-92209523D02*
X65752380Y-92066666D01*
X65752380Y-91828571D01*
X65704761Y-91733333D01*
X65657142Y-91685714D01*
X65561904Y-91638095D01*
X65466666Y-91638095D01*
X65371428Y-91685714D01*
X65323809Y-91733333D01*
X65276190Y-91828571D01*
X65228571Y-92019047D01*
X65180952Y-92114285D01*
X65133333Y-92161904D01*
X65038095Y-92209523D01*
X64942857Y-92209523D01*
X64847619Y-92161904D01*
X64800000Y-92114285D01*
X64752380Y-92019047D01*
X64752380Y-91780952D01*
X64800000Y-91638095D01*
X64752380Y-91304761D02*
X64752380Y-90685714D01*
X65133333Y-91019047D01*
X65133333Y-90876190D01*
X65180952Y-90780952D01*
X65228571Y-90733333D01*
X65323809Y-90685714D01*
X65561904Y-90685714D01*
X65657142Y-90733333D01*
X65704761Y-90780952D01*
X65752380Y-90876190D01*
X65752380Y-91161904D01*
X65704761Y-91257142D01*
X65657142Y-91304761D01*
X64847619Y-90304761D02*
X64800000Y-90257142D01*
X64752380Y-90161904D01*
X64752380Y-89923809D01*
X64800000Y-89828571D01*
X64847619Y-89780952D01*
X64942857Y-89733333D01*
X65038095Y-89733333D01*
X65180952Y-89780952D01*
X65752380Y-90352380D01*
X65752380Y-89733333D01*
X64752380Y-89114285D02*
X64752380Y-89019047D01*
X64800000Y-88923809D01*
X64847619Y-88876190D01*
X64942857Y-88828571D01*
X65133333Y-88780952D01*
X65371428Y-88780952D01*
X65561904Y-88828571D01*
X65657142Y-88876190D01*
X65704761Y-88923809D01*
X65752380Y-89019047D01*
X65752380Y-89114285D01*
X65704761Y-89209523D01*
X65657142Y-89257142D01*
X65561904Y-89304761D01*
X65371428Y-89352380D01*
X65133333Y-89352380D01*
X64942857Y-89304761D01*
X64847619Y-89257142D01*
X64800000Y-89209523D01*
X64752380Y-89114285D01*
X64752380Y-88161904D02*
X64752380Y-88066666D01*
X64800000Y-87971428D01*
X64847619Y-87923809D01*
X64942857Y-87876190D01*
X65133333Y-87828571D01*
X65371428Y-87828571D01*
X65561904Y-87876190D01*
X65657142Y-87923809D01*
X65704761Y-87971428D01*
X65752380Y-88066666D01*
X65752380Y-88161904D01*
X65704761Y-88257142D01*
X65657142Y-88304761D01*
X65561904Y-88352380D01*
X65371428Y-88400000D01*
X65133333Y-88400000D01*
X64942857Y-88352380D01*
X64847619Y-88304761D01*
X64800000Y-88257142D01*
X64752380Y-88161904D01*
X71804761Y-84521904D02*
X71852380Y-84379047D01*
X71852380Y-84140952D01*
X71804761Y-84045714D01*
X71757142Y-83998095D01*
X71661904Y-83950476D01*
X71566666Y-83950476D01*
X71471428Y-83998095D01*
X71423809Y-84045714D01*
X71376190Y-84140952D01*
X71328571Y-84331428D01*
X71280952Y-84426666D01*
X71233333Y-84474285D01*
X71138095Y-84521904D01*
X71042857Y-84521904D01*
X70947619Y-84474285D01*
X70900000Y-84426666D01*
X70852380Y-84331428D01*
X70852380Y-84093333D01*
X70900000Y-83950476D01*
X71852380Y-82998095D02*
X71852380Y-83569523D01*
X71852380Y-83283809D02*
X70852380Y-83283809D01*
X70995238Y-83379047D01*
X71090476Y-83474285D01*
X71138095Y-83569523D01*
X65772380Y-100173333D02*
X66772380Y-99840000D01*
X65772380Y-99506666D01*
X66677142Y-98601904D02*
X66724761Y-98649523D01*
X66772380Y-98792380D01*
X66772380Y-98887619D01*
X66724761Y-99030476D01*
X66629523Y-99125714D01*
X66534285Y-99173333D01*
X66343809Y-99220952D01*
X66200952Y-99220952D01*
X66010476Y-99173333D01*
X65915238Y-99125714D01*
X65820000Y-99030476D01*
X65772380Y-98887619D01*
X65772380Y-98792380D01*
X65820000Y-98649523D01*
X65867619Y-98601904D01*
X66677142Y-97601904D02*
X66724761Y-97649523D01*
X66772380Y-97792380D01*
X66772380Y-97887619D01*
X66724761Y-98030476D01*
X66629523Y-98125714D01*
X66534285Y-98173333D01*
X66343809Y-98220952D01*
X66200952Y-98220952D01*
X66010476Y-98173333D01*
X65915238Y-98125714D01*
X65820000Y-98030476D01*
X65772380Y-97887619D01*
X65772380Y-97792380D01*
X65820000Y-97649523D01*
X65867619Y-97601904D01*
X71804761Y-99481904D02*
X71852380Y-99339047D01*
X71852380Y-99100952D01*
X71804761Y-99005714D01*
X71757142Y-98958095D01*
X71661904Y-98910476D01*
X71566666Y-98910476D01*
X71471428Y-98958095D01*
X71423809Y-99005714D01*
X71376190Y-99100952D01*
X71328571Y-99291428D01*
X71280952Y-99386666D01*
X71233333Y-99434285D01*
X71138095Y-99481904D01*
X71042857Y-99481904D01*
X70947619Y-99434285D01*
X70900000Y-99386666D01*
X70852380Y-99291428D01*
X70852380Y-99053333D01*
X70900000Y-98910476D01*
X70947619Y-98529523D02*
X70900000Y-98481904D01*
X70852380Y-98386666D01*
X70852380Y-98148571D01*
X70900000Y-98053333D01*
X70947619Y-98005714D01*
X71042857Y-97958095D01*
X71138095Y-97958095D01*
X71280952Y-98005714D01*
X71852380Y-98577142D01*
X71852380Y-97958095D01*
X65820000Y-83921904D02*
X65772380Y-84017142D01*
X65772380Y-84160000D01*
X65820000Y-84302857D01*
X65915238Y-84398095D01*
X66010476Y-84445714D01*
X66200952Y-84493333D01*
X66343809Y-84493333D01*
X66534285Y-84445714D01*
X66629523Y-84398095D01*
X66724761Y-84302857D01*
X66772380Y-84160000D01*
X66772380Y-84064761D01*
X66724761Y-83921904D01*
X66677142Y-83874285D01*
X66343809Y-83874285D01*
X66343809Y-84064761D01*
X66772380Y-83445714D02*
X65772380Y-83445714D01*
X66772380Y-82874285D01*
X65772380Y-82874285D01*
X66772380Y-82398095D02*
X65772380Y-82398095D01*
X65772380Y-82160000D01*
X65820000Y-82017142D01*
X65915238Y-81921904D01*
X66010476Y-81874285D01*
X66200952Y-81826666D01*
X66343809Y-81826666D01*
X66534285Y-81874285D01*
X66629523Y-81921904D01*
X66724761Y-82017142D01*
X66772380Y-82160000D01*
X66772380Y-82398095D01*
X68312380Y-99840000D02*
X68312380Y-99649523D01*
X68360000Y-99554285D01*
X68455238Y-99459047D01*
X68645714Y-99411428D01*
X68979047Y-99411428D01*
X69169523Y-99459047D01*
X69264761Y-99554285D01*
X69312380Y-99649523D01*
X69312380Y-99840000D01*
X69264761Y-99935238D01*
X69169523Y-100030476D01*
X68979047Y-100078095D01*
X68645714Y-100078095D01*
X68455238Y-100030476D01*
X68360000Y-99935238D01*
X68312380Y-99840000D01*
X68312380Y-98982857D02*
X69121904Y-98982857D01*
X69217142Y-98935238D01*
X69264761Y-98887619D01*
X69312380Y-98792380D01*
X69312380Y-98601904D01*
X69264761Y-98506666D01*
X69217142Y-98459047D01*
X69121904Y-98411428D01*
X68312380Y-98411428D01*
X68312380Y-98078095D02*
X68312380Y-97506666D01*
X69312380Y-97792380D02*
X68312380Y-97792380D01*
X74344761Y-84521904D02*
X74392380Y-84379047D01*
X74392380Y-84140952D01*
X74344761Y-84045714D01*
X74297142Y-83998095D01*
X74201904Y-83950476D01*
X74106666Y-83950476D01*
X74011428Y-83998095D01*
X73963809Y-84045714D01*
X73916190Y-84140952D01*
X73868571Y-84331428D01*
X73820952Y-84426666D01*
X73773333Y-84474285D01*
X73678095Y-84521904D01*
X73582857Y-84521904D01*
X73487619Y-84474285D01*
X73440000Y-84426666D01*
X73392380Y-84331428D01*
X73392380Y-84093333D01*
X73440000Y-83950476D01*
X73392380Y-83331428D02*
X73392380Y-83236190D01*
X73440000Y-83140952D01*
X73487619Y-83093333D01*
X73582857Y-83045714D01*
X73773333Y-82998095D01*
X74011428Y-82998095D01*
X74201904Y-83045714D01*
X74297142Y-83093333D01*
X74344761Y-83140952D01*
X74392380Y-83236190D01*
X74392380Y-83331428D01*
X74344761Y-83426666D01*
X74297142Y-83474285D01*
X74201904Y-83521904D01*
X74011428Y-83569523D01*
X73773333Y-83569523D01*
X73582857Y-83521904D01*
X73487619Y-83474285D01*
X73440000Y-83426666D01*
X73392380Y-83331428D01*
X68112380Y-84107619D02*
X68112380Y-83917142D01*
X68160000Y-83821904D01*
X68255238Y-83726666D01*
X68445714Y-83679047D01*
X68779047Y-83679047D01*
X68969523Y-83726666D01*
X69064761Y-83821904D01*
X69112380Y-83917142D01*
X69112380Y-84107619D01*
X69064761Y-84202857D01*
X68969523Y-84298095D01*
X68779047Y-84345714D01*
X68445714Y-84345714D01*
X68255238Y-84298095D01*
X68160000Y-84202857D01*
X68112380Y-84107619D01*
X68588571Y-83250476D02*
X68588571Y-82917142D01*
X69112380Y-82774285D02*
X69112380Y-83250476D01*
X68112380Y-83250476D01*
X68112380Y-82774285D01*
X74344761Y-99481904D02*
X74392380Y-99339047D01*
X74392380Y-99100952D01*
X74344761Y-99005714D01*
X74297142Y-98958095D01*
X74201904Y-98910476D01*
X74106666Y-98910476D01*
X74011428Y-98958095D01*
X73963809Y-99005714D01*
X73916190Y-99100952D01*
X73868571Y-99291428D01*
X73820952Y-99386666D01*
X73773333Y-99434285D01*
X73678095Y-99481904D01*
X73582857Y-99481904D01*
X73487619Y-99434285D01*
X73440000Y-99386666D01*
X73392380Y-99291428D01*
X73392380Y-99053333D01*
X73440000Y-98910476D01*
X73392380Y-98577142D02*
X73392380Y-97958095D01*
X73773333Y-98291428D01*
X73773333Y-98148571D01*
X73820952Y-98053333D01*
X73868571Y-98005714D01*
X73963809Y-97958095D01*
X74201904Y-97958095D01*
X74297142Y-98005714D01*
X74344761Y-98053333D01*
X74392380Y-98148571D01*
X74392380Y-98434285D01*
X74344761Y-98529523D01*
X74297142Y-98577142D01*
%TO.C,A1*%
X51106666Y-90314285D02*
X51106666Y-89838095D01*
X51392380Y-90409523D02*
X50392380Y-90076190D01*
X51392380Y-89742857D01*
X51392380Y-88885714D02*
X51392380Y-89457142D01*
X51392380Y-89171428D02*
X50392380Y-89171428D01*
X50535238Y-89266666D01*
X50630476Y-89361904D01*
X50678095Y-89457142D01*
X39857142Y-85466666D02*
X40333333Y-85466666D01*
X39761904Y-85752380D02*
X40095238Y-84752380D01*
X40428571Y-85752380D01*
X41190476Y-85085714D02*
X41190476Y-85752380D01*
X40952380Y-84704761D02*
X40714285Y-85419047D01*
X41333333Y-85419047D01*
X41761904Y-85752380D02*
X41952380Y-85752380D01*
X42047619Y-85704761D01*
X42095238Y-85657142D01*
X42190476Y-85514285D01*
X42238095Y-85323809D01*
X42238095Y-84942857D01*
X42190476Y-84847619D01*
X42142857Y-84800000D01*
X42047619Y-84752380D01*
X41857142Y-84752380D01*
X41761904Y-84800000D01*
X41714285Y-84847619D01*
X41666666Y-84942857D01*
X41666666Y-85180952D01*
X41714285Y-85276190D01*
X41761904Y-85323809D01*
X41857142Y-85371428D01*
X42047619Y-85371428D01*
X42142857Y-85323809D01*
X42190476Y-85276190D01*
X42238095Y-85180952D01*
X42809523Y-85180952D02*
X42714285Y-85133333D01*
X42666666Y-85085714D01*
X42619047Y-84990476D01*
X42619047Y-84942857D01*
X42666666Y-84847619D01*
X42714285Y-84800000D01*
X42809523Y-84752380D01*
X43000000Y-84752380D01*
X43095238Y-84800000D01*
X43142857Y-84847619D01*
X43190476Y-84942857D01*
X43190476Y-84990476D01*
X43142857Y-85085714D01*
X43095238Y-85133333D01*
X43000000Y-85180952D01*
X42809523Y-85180952D01*
X42714285Y-85228571D01*
X42666666Y-85276190D01*
X42619047Y-85371428D01*
X42619047Y-85561904D01*
X42666666Y-85657142D01*
X42714285Y-85704761D01*
X42809523Y-85752380D01*
X43000000Y-85752380D01*
X43095238Y-85704761D01*
X43142857Y-85657142D01*
X43190476Y-85561904D01*
X43190476Y-85371428D01*
X43142857Y-85276190D01*
X43095238Y-85228571D01*
X43000000Y-85180952D01*
X43761904Y-85180952D02*
X43666666Y-85133333D01*
X43619047Y-85085714D01*
X43571428Y-84990476D01*
X43571428Y-84942857D01*
X43619047Y-84847619D01*
X43666666Y-84800000D01*
X43761904Y-84752380D01*
X43952380Y-84752380D01*
X44047619Y-84800000D01*
X44095238Y-84847619D01*
X44142857Y-84942857D01*
X44142857Y-84990476D01*
X44095238Y-85085714D01*
X44047619Y-85133333D01*
X43952380Y-85180952D01*
X43761904Y-85180952D01*
X43666666Y-85228571D01*
X43619047Y-85276190D01*
X43571428Y-85371428D01*
X43571428Y-85561904D01*
X43619047Y-85657142D01*
X43666666Y-85704761D01*
X43761904Y-85752380D01*
X43952380Y-85752380D01*
X44047619Y-85704761D01*
X44095238Y-85657142D01*
X44142857Y-85561904D01*
X44142857Y-85371428D01*
X44095238Y-85276190D01*
X44047619Y-85228571D01*
X43952380Y-85180952D01*
D14*
%TO.C,R2*%
X52665000Y-86127064D02*
X52665000Y-85672936D01*
X54135000Y-86127064D02*
X54135000Y-85672936D01*
%TO.C,C1*%
X40704437Y-92360000D02*
X44160000Y-92360000D01*
X39640000Y-88904437D02*
X40704437Y-87840000D01*
X39640000Y-91295563D02*
X40704437Y-92360000D01*
X44160000Y-87840000D02*
X44160000Y-89040000D01*
X44160000Y-92360000D02*
X44160000Y-91160000D01*
X38900000Y-88540000D02*
X39400000Y-88540000D01*
X39150000Y-88290000D02*
X39150000Y-88790000D01*
X40704437Y-87840000D02*
X44160000Y-87840000D01*
X39640000Y-88904437D02*
X39640000Y-89040000D01*
X39640000Y-91295563D02*
X39640000Y-91160000D01*
%TO.C,M2*%
X52970000Y-97810000D02*
X55630000Y-97810000D01*
X52970000Y-91400000D02*
X52970000Y-90070000D01*
X52970000Y-90070000D02*
X54300000Y-90070000D01*
X52970000Y-92670000D02*
X52970000Y-97810000D01*
X55630000Y-92670000D02*
X55630000Y-97810000D01*
X52970000Y-92670000D02*
X55630000Y-92670000D01*
%TO.C,REF\u002A\u002A*%
X47030000Y-97870000D02*
X47030000Y-99200000D01*
X36750000Y-97870000D02*
X36750000Y-100530000D01*
X45700000Y-97870000D02*
X47030000Y-97870000D01*
X44430000Y-100530000D02*
X36750000Y-100530000D01*
X44430000Y-97870000D02*
X44430000Y-100530000D01*
X44430000Y-97870000D02*
X36750000Y-97870000D01*
%TO.C,R1*%
X57735000Y-85772936D02*
X57735000Y-86227064D01*
X56265000Y-85772936D02*
X56265000Y-86227064D01*
%TO.C,U3*%
X103500000Y-91100000D02*
X113500000Y-91100000D01*
X113500000Y-91100000D02*
X113500000Y-95500000D01*
X113500000Y-95500000D02*
X103500000Y-95500000D01*
X103500000Y-95500000D02*
X103500000Y-91100000D01*
%TO.C,J7*%
X78475000Y-94530000D02*
X77145000Y-94530000D01*
X79745000Y-91870000D02*
X84885000Y-91870000D01*
X79745000Y-94530000D02*
X84885000Y-94530000D01*
X79745000Y-94530000D02*
X79745000Y-91870000D01*
X77145000Y-94530000D02*
X77145000Y-93200000D01*
X84885000Y-94530000D02*
X84885000Y-91870000D01*
%TO.C,R5*%
X49272936Y-48535000D02*
X49727064Y-48535000D01*
X49272936Y-47065000D02*
X49727064Y-47065000D01*
%TO.C,U5*%
X86900000Y-95715000D02*
X101800000Y-95715000D01*
X101800000Y-95715000D02*
X101800000Y-89905000D01*
X101800000Y-89905000D02*
X86900000Y-89905000D01*
X86900000Y-89905000D02*
X86900000Y-95715000D01*
%TO.C,R8*%
X52060436Y-39865000D02*
X52514564Y-39865000D01*
X52060436Y-41335000D02*
X52514564Y-41335000D01*
%TO.C,R4*%
X49672936Y-57335000D02*
X50127064Y-57335000D01*
X49672936Y-55865000D02*
X50127064Y-55865000D01*
%TO.C,R6*%
X51772936Y-35835000D02*
X52227064Y-35835000D01*
X51772936Y-34365000D02*
X52227064Y-34365000D01*
%TO.C,R7*%
X52860436Y-44365000D02*
X53314564Y-44365000D01*
X52860436Y-45835000D02*
X53314564Y-45835000D01*
%TO.C,U2*%
X60127500Y-94015000D02*
X60127500Y-91705000D01*
X57307500Y-96325000D02*
X57522500Y-96325000D01*
X60127500Y-94015000D02*
X60127500Y-96325000D01*
X60127500Y-96325000D02*
X59912500Y-96325000D01*
X57307500Y-91705000D02*
X57522500Y-91705000D01*
X57307500Y-94015000D02*
X57307500Y-91705000D01*
X60127500Y-91705000D02*
X59912500Y-91705000D01*
X57307500Y-94015000D02*
X57307500Y-96325000D01*
D15*
%TO.C,A2*%
X35725000Y-24830000D02*
X137325000Y-24830000D01*
X137325000Y-37122000D02*
X137325000Y-53720000D01*
X143675000Y-53720000D02*
X137325000Y-53720000D01*
X143675000Y-65520000D02*
X143675000Y-53720000D01*
X35725000Y-78170000D02*
X35725000Y-24830000D01*
X137325000Y-53720000D02*
X137325000Y-65520000D01*
X137325000Y-78170000D02*
X35725000Y-78170000D01*
X137325000Y-65520000D02*
X143675000Y-65520000D01*
X137325000Y-28130000D02*
X137325000Y-37122000D01*
X137325000Y-65520000D02*
X137325000Y-78170000D01*
X137325000Y-24830000D02*
X137325000Y-28130000D01*
X139135000Y-37122000D02*
X137325000Y-37122000D01*
X137325000Y-28130000D02*
X139135000Y-28130000D01*
X139135000Y-28130000D02*
X139135000Y-37122000D01*
D14*
%TO.C,R3*%
X49272936Y-50465000D02*
X49727064Y-50465000D01*
X49272936Y-51935000D02*
X49727064Y-51935000D01*
%TO.C,U4*%
X36423000Y-24404000D02*
X30923000Y-24404000D01*
X116953000Y-74419000D02*
X30847000Y-74419000D01*
X30847000Y-74419000D02*
X30847000Y-24381000D01*
X30847000Y-24381000D02*
X116953000Y-24381000D01*
X116953000Y-24381000D02*
X116953000Y-74419000D01*
%TO.C,J1*%
X125550000Y-84790000D02*
X128610000Y-84790000D01*
X121450000Y-95010000D02*
X115390000Y-95010000D01*
X115390000Y-87600000D02*
X115390000Y-84790000D01*
X115200000Y-90900000D02*
X115200000Y-88900000D01*
X128610000Y-95010000D02*
X125550000Y-95010000D01*
X115390000Y-95010000D02*
X115390000Y-92200000D01*
X128610000Y-84790000D02*
X128610000Y-95010000D01*
X115390000Y-84790000D02*
X121450000Y-84790000D01*
%TO.C,U1*%
X63520000Y-97240000D02*
X76480000Y-97240000D01*
X76480000Y-97240000D02*
X76480000Y-84760000D01*
X76480000Y-84760000D02*
X63520000Y-84760000D01*
X63520000Y-84760000D02*
X63520000Y-97240000D01*
%TD*%
M02*
