%TF.GenerationSoftware,KiCad,Pcbnew,8.0.2*%
%TF.CreationDate,2024-05-11T13:38:57+03:00*%
%TF.ProjectId,diplomna-shema,6469706c-6f6d-46e6-912d-7368656d612e,rev?*%
%TF.SameCoordinates,Original*%
%TF.FileFunction,Soldermask,Top*%
%TF.FilePolarity,Negative*%
%FSLAX46Y46*%
G04 Gerber Fmt 4.6, Leading zero omitted, Abs format (unit mm)*
G04 Created by KiCad (PCBNEW 8.0.2) date 2024-05-11 13:38:57*
%MOMM*%
%LPD*%
G01*
G04 APERTURE LIST*
G04 Aperture macros list*
%AMRoundRect*
0 Rectangle with rounded corners*
0 $1 Rounding radius*
0 $2 $3 $4 $5 $6 $7 $8 $9 X,Y pos of 4 corners*
0 Add a 4 corners polygon primitive as box body*
4,1,4,$2,$3,$4,$5,$6,$7,$8,$9,$2,$3,0*
0 Add four circle primitives for the rounded corners*
1,1,$1+$1,$2,$3*
1,1,$1+$1,$4,$5*
1,1,$1+$1,$6,$7*
1,1,$1+$1,$8,$9*
0 Add four rect primitives between the rounded corners*
20,1,$1+$1,$2,$3,$4,$5,0*
20,1,$1+$1,$4,$5,$6,$7,0*
20,1,$1+$1,$6,$7,$8,$9,0*
20,1,$1+$1,$8,$9,$2,$3,0*%
G04 Aperture macros list end*
%ADD10C,3.200000*%
%ADD11C,1.600000*%
%ADD12C,1.524000*%
%ADD13C,1.734000*%
%ADD14R,1.700000X1.700000*%
%ADD15O,1.700000X1.700000*%
%ADD16R,2.000000X4.600000*%
%ADD17O,2.000000X4.200000*%
%ADD18O,4.200000X2.000000*%
%ADD19C,1.562000*%
%ADD20RoundRect,0.102000X-0.679000X0.679000X-0.679000X-0.679000X0.679000X-0.679000X0.679000X0.679000X0*%
%TA.AperFunction,Profile*%
%ADD21C,0.100000*%
%TD*%
G04 APERTURE END LIST*
D10*
%TO.C,*%
X115750000Y-100000000D03*
%TD*%
%TO.C,*%
X33250000Y-97750000D03*
%TD*%
D11*
%TO.C,U3*%
X119025000Y-84090000D03*
X119000000Y-40380000D03*
X41650000Y-40415000D03*
X41570000Y-84200000D03*
D12*
X119590000Y-79660000D03*
X119590000Y-77120000D03*
X119590000Y-74580000D03*
X119590000Y-72040000D03*
X119590000Y-69500000D03*
X119590000Y-66960000D03*
X119590000Y-64420000D03*
X119590000Y-61880000D03*
X119590000Y-59340000D03*
X119590000Y-56800000D03*
X119590000Y-54260000D03*
X119590000Y-51720000D03*
X119590000Y-49180000D03*
X119590000Y-46640000D03*
X38310000Y-69500000D03*
X38310000Y-66960000D03*
X38310000Y-64420000D03*
X38310000Y-61880000D03*
%TD*%
%TO.C,U2*%
X60050000Y-79845000D03*
X60050000Y-81845000D03*
X66450000Y-79845000D03*
X66450000Y-81845000D03*
%TD*%
D13*
%TO.C,U1*%
X73500000Y-81750000D03*
X76040000Y-81750000D03*
X78580000Y-81750000D03*
X81120000Y-81750000D03*
%TD*%
D14*
%TO.C,J9*%
X44500000Y-89760000D03*
D15*
X44500000Y-92300000D03*
X44500000Y-94840000D03*
X44500000Y-97380000D03*
%TD*%
D12*
%TO.C,U4*%
X29070000Y-89820000D03*
X29070000Y-92360000D03*
X29070000Y-94900000D03*
X29070000Y-97440000D03*
X39230000Y-97440000D03*
X39230000Y-94900000D03*
X39230000Y-92360000D03*
X39230000Y-89820000D03*
%TD*%
D14*
%TO.C,J8*%
X103425000Y-81410000D03*
D15*
X105965000Y-81410000D03*
%TD*%
D16*
%TO.C,J2*%
X124550000Y-92600000D03*
D17*
X118250000Y-92600000D03*
D18*
X121650000Y-97400000D03*
%TD*%
D14*
%TO.C,M2*%
X92730000Y-93495000D03*
D15*
X92730000Y-96035000D03*
X92730000Y-98575000D03*
%TD*%
D14*
%TO.C,M1*%
X85460000Y-93495000D03*
D15*
X85460000Y-96035000D03*
X85460000Y-98575000D03*
%TD*%
D12*
%TO.C,U5*%
X49690000Y-87550000D03*
X49690000Y-90100000D03*
X49665000Y-92650000D03*
X49690000Y-95200000D03*
X49690000Y-97750000D03*
X77515000Y-87650000D03*
X77515000Y-90200000D03*
X77490000Y-92750000D03*
X77515000Y-95300000D03*
X77490000Y-97750000D03*
%TD*%
D10*
%TO.C,A1*%
X115800000Y-26750000D03*
X33250000Y-26750000D03*
X63730000Y-31830000D03*
X63730000Y-59770000D03*
X114530000Y-75010000D03*
X39600000Y-75010000D03*
D19*
X66270000Y-75010000D03*
X68810000Y-75010000D03*
X71350000Y-75010000D03*
X73890000Y-75010000D03*
X94210000Y-26750000D03*
X76430000Y-75010000D03*
X78970000Y-75010000D03*
X91670000Y-26750000D03*
X35790000Y-75010000D03*
X33250000Y-75010000D03*
X81510000Y-75010000D03*
X84050000Y-75010000D03*
X88114000Y-75010000D03*
X90654000Y-75010000D03*
X93194000Y-75010000D03*
X95734000Y-75010000D03*
X98274000Y-75010000D03*
X100814000Y-75010000D03*
X61190000Y-75010000D03*
X58650000Y-75010000D03*
X56110000Y-75010000D03*
X53570000Y-75010000D03*
X51030000Y-75010000D03*
X48490000Y-75010000D03*
X45950000Y-75010000D03*
X43410000Y-75010000D03*
X35790000Y-72470000D03*
X33250000Y-72470000D03*
X35790000Y-69930000D03*
X33250000Y-69930000D03*
X35790000Y-67390000D03*
X33250000Y-67390000D03*
X35790000Y-64850000D03*
X33250000Y-64850000D03*
X35790000Y-62310000D03*
X33250000Y-62310000D03*
X35790000Y-59770000D03*
X33250000Y-59770000D03*
X35790000Y-57230000D03*
X33250000Y-57230000D03*
X35790000Y-54690000D03*
X33250000Y-54690000D03*
X35790000Y-52150000D03*
X33250000Y-52150000D03*
X35790000Y-49610000D03*
X33250000Y-49610000D03*
X35790000Y-47070000D03*
X33250000Y-47070000D03*
X35790000Y-44530000D03*
X33250000Y-44530000D03*
X35790000Y-41990000D03*
X33250000Y-41990000D03*
X35790000Y-39450000D03*
X33250000Y-39450000D03*
X35790000Y-36910000D03*
X33250000Y-36910000D03*
X35790000Y-34370000D03*
X33250000Y-34370000D03*
X78970000Y-26750000D03*
X76430000Y-26750000D03*
X73890000Y-26750000D03*
X71350000Y-26750000D03*
X68810000Y-26750000D03*
X66270000Y-26750000D03*
X63730000Y-26750000D03*
X61190000Y-26750000D03*
X56110000Y-26750000D03*
X53570000Y-26750000D03*
X51030000Y-26750000D03*
X48490000Y-26750000D03*
X45950000Y-26750000D03*
X43410000Y-26750000D03*
X40870000Y-26750000D03*
X38330000Y-26750000D03*
X105894000Y-75010000D03*
X89130000Y-26750000D03*
X86590000Y-26750000D03*
X103354000Y-75010000D03*
X35790000Y-31830000D03*
X33250000Y-31830000D03*
X99290000Y-26750000D03*
D20*
X101830000Y-26750000D03*
D19*
X96750000Y-26750000D03*
X110974000Y-75010000D03*
X108434000Y-75010000D03*
X84050000Y-26750000D03*
%TD*%
D21*
X26210000Y-22290000D02*
X126210000Y-22290000D01*
X126210000Y-102290000D01*
X26210000Y-102290000D01*
X26210000Y-22290000D01*
M02*
