%TF.GenerationSoftware,KiCad,Pcbnew,8.0.2*%
%TF.CreationDate,2024-05-11T13:38:57+03:00*%
%TF.ProjectId,diplomna-shema,6469706c-6f6d-46e6-912d-7368656d612e,rev?*%
%TF.SameCoordinates,Original*%
%TF.FileFunction,Copper,L1,Top*%
%TF.FilePolarity,Positive*%
%FSLAX46Y46*%
G04 Gerber Fmt 4.6, Leading zero omitted, Abs format (unit mm)*
G04 Created by KiCad (PCBNEW 8.0.2) date 2024-05-11 13:38:57*
%MOMM*%
%LPD*%
G01*
G04 APERTURE LIST*
G04 Aperture macros list*
%AMRoundRect*
0 Rectangle with rounded corners*
0 $1 Rounding radius*
0 $2 $3 $4 $5 $6 $7 $8 $9 X,Y pos of 4 corners*
0 Add a 4 corners polygon primitive as box body*
4,1,4,$2,$3,$4,$5,$6,$7,$8,$9,$2,$3,0*
0 Add four circle primitives for the rounded corners*
1,1,$1+$1,$2,$3*
1,1,$1+$1,$4,$5*
1,1,$1+$1,$6,$7*
1,1,$1+$1,$8,$9*
0 Add four rect primitives between the rounded corners*
20,1,$1+$1,$2,$3,$4,$5,0*
20,1,$1+$1,$4,$5,$6,$7,0*
20,1,$1+$1,$6,$7,$8,$9,0*
20,1,$1+$1,$8,$9,$2,$3,0*%
%AMFreePoly0*
4,1,11,1.467500,1.700000,0.527500,0.844500,0.527500,-0.844500,1.467500,-1.700000,1.467500,-2.755000,0.527500,-2.755000,-0.527500,-1.700000,-0.527500,1.700000,0.527500,2.755000,1.467500,2.755000,1.467500,1.700000,1.467500,1.700000,$1*%
%AMFreePoly1*
4,1,11,0.527500,1.700000,0.527500,-1.700000,-0.527500,-2.755000,-1.467500,-2.755000,-1.467500,-1.700000,-0.527500,-0.844500,-0.527500,0.844500,-1.467500,1.700000,-1.467500,2.755000,-0.527500,2.755000,0.527500,1.700000,0.527500,1.700000,$1*%
G04 Aperture macros list end*
%TA.AperFunction,NonConductor*%
%ADD10C,0.200000*%
%TD*%
%TA.AperFunction,Conductor*%
%ADD11C,0.200000*%
%TD*%
%TA.AperFunction,ComponentPad*%
%ADD12C,1.524000*%
%TD*%
%TA.AperFunction,ComponentPad*%
%ADD13C,1.530000*%
%TD*%
%TA.AperFunction,ComponentPad*%
%ADD14R,1.700000X1.700000*%
%TD*%
%TA.AperFunction,ComponentPad*%
%ADD15O,1.700000X1.700000*%
%TD*%
%TA.AperFunction,ComponentPad*%
%ADD16R,2.000000X4.600000*%
%TD*%
%TA.AperFunction,ComponentPad*%
%ADD17O,2.000000X4.200000*%
%TD*%
%TA.AperFunction,ComponentPad*%
%ADD18O,4.200000X2.000000*%
%TD*%
%TA.AperFunction,ComponentPad*%
%ADD19C,1.358000*%
%TD*%
%TA.AperFunction,ComponentPad*%
%ADD20R,1.358000X1.358000*%
%TD*%
%TA.AperFunction,SMDPad,CuDef*%
%ADD21RoundRect,0.250000X-0.262500X-0.450000X0.262500X-0.450000X0.262500X0.450000X-0.262500X0.450000X0*%
%TD*%
%TA.AperFunction,SMDPad,CuDef*%
%ADD22FreePoly0,180.000000*%
%TD*%
%TA.AperFunction,SMDPad,CuDef*%
%ADD23FreePoly1,180.000000*%
%TD*%
%TA.AperFunction,SMDPad,CuDef*%
%ADD24RoundRect,0.250000X1.000000X-1.750000X1.000000X1.750000X-1.000000X1.750000X-1.000000X-1.750000X0*%
%TD*%
%TA.AperFunction,ViaPad*%
%ADD25C,1.300000*%
%TD*%
%TA.AperFunction,Conductor*%
%ADD26C,0.500000*%
%TD*%
%TA.AperFunction,Conductor*%
%ADD27C,0.300000*%
%TD*%
%TA.AperFunction,Profile*%
%ADD28C,0.100000*%
%TD*%
G04 APERTURE END LIST*
D10*
X126220000Y-22270000D02*
X126220000Y-26980000D01*
X119380000Y-22270000D02*
X126220000Y-22270000D01*
X26210000Y-22190000D02*
X33480000Y-22190000D01*
X126210000Y-102280000D02*
X126210000Y-97460000D01*
X123050000Y-102280000D02*
X126210000Y-102280000D01*
D11*
%TO.N,unconnected-(A1-Pad40)*%
X26210000Y-102300000D02*
X29910000Y-102300000D01*
X26210000Y-102300000D02*
X26200000Y-99330000D01*
D10*
X26210000Y-30190000D02*
X26210000Y-22190000D01*
%TD*%
D12*
%TO.P,U3,1,PIN_1*%
%TO.N,+5V*%
X119590000Y-79660000D03*
%TO.P,U3,2,PIN_2*%
%TO.N,GND*%
X119590000Y-77120000D03*
%TO.P,U3,3,PIN_3*%
%TO.N,Net-(U3-PIN_3)*%
X119590000Y-74580000D03*
%TO.P,U3,4,PIN_4*%
%TO.N,+3.3V*%
X119590000Y-72040000D03*
%TO.P,U3,5,PIN_5*%
%TO.N,Net-(U3-PIN_5)*%
X119590000Y-69500000D03*
%TO.P,U3,6,PIN_6*%
%TO.N,Net-(U3-PIN_12)*%
X119590000Y-66960000D03*
%TO.P,U3,7,PIN_7*%
%TO.N,Net-(U3-PIN_10)*%
X119590000Y-64420000D03*
%TO.P,U3,8,PIN_8*%
%TO.N,+3.3V*%
X119590000Y-61880000D03*
%TO.P,U3,9,PIN_9*%
%TO.N,Net-(U3-PIN_13)*%
X119590000Y-59340000D03*
%TO.P,U3,10,PIN_10*%
%TO.N,Net-(U3-PIN_10)*%
X119590000Y-56800000D03*
%TO.P,U3,11,PIN_11*%
%TO.N,Net-(U3-PIN_11)*%
X119590000Y-54260000D03*
%TO.P,U3,12,PIN_12*%
%TO.N,Net-(U3-PIN_12)*%
X119590000Y-51720000D03*
%TO.P,U3,13,PIN_13*%
%TO.N,Net-(U3-PIN_13)*%
X119590000Y-49180000D03*
%TO.P,U3,14,PIN_14*%
%TO.N,Net-(U3-PIN_14)*%
X119590000Y-46640000D03*
%TO.P,U3,15*%
%TO.N,N/C*%
X38310000Y-69500000D03*
%TO.P,U3,16*%
X38310000Y-66960000D03*
%TO.P,U3,17*%
X38310000Y-64420000D03*
%TO.P,U3,18*%
X38310000Y-61880000D03*
%TD*%
%TO.P,U2,1*%
%TO.N,Net-(R2-Pad2)*%
X60050000Y-79845000D03*
%TO.P,U2,2*%
%TO.N,GND*%
X60050000Y-81845000D03*
%TO.P,U2,3*%
X66450000Y-79845000D03*
%TO.P,U2,4*%
%TO.N,Net-(A1-PadAD0)*%
X66450000Y-81845000D03*
%TD*%
D13*
%TO.P,U1,1,VCC*%
%TO.N,+5V*%
X73500000Y-81750000D03*
%TO.P,U1,2,TRIG*%
%TO.N,Net-(U1-TRIG)*%
X76040000Y-81750000D03*
%TO.P,U1,3,ECHO*%
%TO.N,Net-(U1-ECHO)*%
X78580000Y-81750000D03*
%TO.P,U1,4,GND*%
%TO.N,GND*%
X81120000Y-81750000D03*
%TD*%
D14*
%TO.P,J9,1*%
%TO.N,Net-(J3-Pin_2)*%
X44500000Y-89760000D03*
D15*
%TO.P,J9,2*%
%TO.N,Net-(J5-Pin_2)*%
X44500000Y-92300000D03*
%TO.P,J9,3*%
%TO.N,Net-(J6-Pin_2)*%
X44500000Y-94840000D03*
%TO.P,J9,4*%
%TO.N,Net-(J4-Pin_2)*%
X44500000Y-97380000D03*
%TD*%
D12*
%TO.P,U4,1,S0*%
%TO.N,Net-(U4-S0)*%
X29070000Y-89820000D03*
%TO.P,U4,2,S1*%
%TO.N,Net-(U4-S1)*%
X29070000Y-92360000D03*
%TO.P,U4,3,~{OE}*%
%TO.N,Net-(U4-~{OE})*%
X29070000Y-94900000D03*
%TO.P,U4,4,GND*%
%TO.N,GND*%
X29070000Y-97440000D03*
%TO.P,U4,5,VDD*%
%TO.N,+5V*%
X39230000Y-97440000D03*
%TO.P,U4,6,OUT*%
%TO.N,Net-(U4-OUT)*%
X39230000Y-94900000D03*
%TO.P,U4,7,S2*%
%TO.N,Net-(U4-S2)*%
X39230000Y-92360000D03*
%TO.P,U4,8,S3*%
%TO.N,Net-(U4-S3)*%
X39230000Y-89820000D03*
%TD*%
D14*
%TO.P,J8,1*%
%TO.N,Net-(A1-PadAD0)*%
X103425000Y-81410000D03*
D15*
%TO.P,J8,2*%
%TO.N,+5V*%
X105965000Y-81410000D03*
%TD*%
D16*
%TO.P,J2,1*%
%TO.N,Net-(A1-PadVIN)*%
X124550000Y-92600000D03*
D17*
%TO.P,J2,2*%
%TO.N,GND*%
X118250000Y-92600000D03*
D18*
%TO.P,J2,3*%
X121650000Y-97400000D03*
%TD*%
D14*
%TO.P,M2,1,PWM*%
%TO.N,Net-(M2-PWM)*%
X92730000Y-93495000D03*
D15*
%TO.P,M2,2,+*%
%TO.N,Net-(M1-+)*%
X92730000Y-96035000D03*
%TO.P,M2,3,-*%
%TO.N,GND*%
X92730000Y-98575000D03*
%TD*%
D14*
%TO.P,M1,1,PWM*%
%TO.N,Net-(M1-PWM)*%
X85460000Y-93495000D03*
D15*
%TO.P,M1,2,+*%
%TO.N,Net-(M1-+)*%
X85460000Y-96035000D03*
%TO.P,M1,3,-*%
%TO.N,GND*%
X85460000Y-98575000D03*
%TD*%
D12*
%TO.P,U5,1,PIN_1*%
%TO.N,Net-(J3-Pin_2)*%
X49690000Y-87550000D03*
%TO.P,U5,2,PIN_2*%
%TO.N,Net-(J5-Pin_2)*%
X49690000Y-90100000D03*
%TO.P,U5,3,PIN_3*%
%TO.N,Net-(J6-Pin_2)*%
X49665000Y-92650000D03*
%TO.P,U5,4,PIN_4*%
%TO.N,Net-(J4-Pin_2)*%
X49690000Y-95200000D03*
%TO.P,U5,5,PIN_5*%
%TO.N,unconnected-(U5-PIN_5-Pad5)*%
X49690000Y-97750000D03*
%TO.P,U5,6,PIN_6*%
%TO.N,+5V*%
X77515000Y-87650000D03*
%TO.P,U5,7,PIN_7*%
X77515000Y-90200000D03*
%TO.P,U5,8,PIN_8*%
%TO.N,Net-(U5-PIN_8)*%
X77490000Y-92750000D03*
%TO.P,U5,9,PIN_9*%
%TO.N,Net-(U5-PIN_9)*%
X77515000Y-95300000D03*
%TO.P,U5,10,PIN_10*%
%TO.N,GND*%
X77490000Y-97750000D03*
%TD*%
D19*
%TO.P,A1,0,0*%
%TO.N,unconnected-(A1-Pad0)*%
X66270000Y-75010000D03*
%TO.P,A1,1,1*%
%TO.N,unconnected-(A1-Pad1)*%
X68810000Y-75010000D03*
%TO.P,A1,2,2*%
%TO.N,unconnected-(A1-Pad2)*%
X71350000Y-75010000D03*
%TO.P,A1,3,3*%
%TO.N,unconnected-(A1-Pad3)*%
X73890000Y-75010000D03*
%TO.P,A1,3V3,+3V3*%
%TO.N,+3.3V*%
X94210000Y-26750000D03*
%TO.P,A1,4,4*%
%TO.N,unconnected-(A1-Pad4)*%
X76430000Y-75010000D03*
%TO.P,A1,5,5*%
%TO.N,unconnected-(A1-Pad5)*%
X78970000Y-75010000D03*
%TO.P,A1,5V_1,+5V_1*%
%TO.N,+5V*%
X91670000Y-26750000D03*
%TO.P,A1,5V_2,+5V_2*%
X35790000Y-75010000D03*
%TO.P,A1,5V_3,+5V_3*%
X33250000Y-75010000D03*
%TO.P,A1,6,6*%
%TO.N,unconnected-(A1-Pad6)*%
X81510000Y-75010000D03*
%TO.P,A1,7,7*%
%TO.N,unconnected-(A1-Pad7)*%
X84050000Y-75010000D03*
%TO.P,A1,8,8*%
%TO.N,unconnected-(A1-Pad8)*%
X88114000Y-75010000D03*
%TO.P,A1,9,9*%
%TO.N,unconnected-(A1-Pad9)*%
X90654000Y-75010000D03*
%TO.P,A1,10,10*%
%TO.N,unconnected-(A1-Pad10)*%
X93194000Y-75010000D03*
%TO.P,A1,11,11*%
%TO.N,unconnected-(A1-Pad11)*%
X95734000Y-75010000D03*
%TO.P,A1,12,12*%
%TO.N,unconnected-(A1-Pad12)*%
X98274000Y-75010000D03*
%TO.P,A1,13,13*%
%TO.N,unconnected-(A1-Pad13)*%
X100814000Y-75010000D03*
%TO.P,A1,14,14*%
%TO.N,Net-(U4-~{OE})*%
X61190000Y-75010000D03*
%TO.P,A1,15,15*%
%TO.N,unconnected-(A1-Pad15)*%
X58650000Y-75010000D03*
%TO.P,A1,16,16*%
%TO.N,unconnected-(A1-Pad16)*%
X56110000Y-75010000D03*
%TO.P,A1,17,17*%
%TO.N,unconnected-(A1-Pad17)*%
X53570000Y-75010000D03*
%TO.P,A1,18,18*%
%TO.N,unconnected-(A1-Pad18)*%
X51030000Y-75010000D03*
%TO.P,A1,19,19*%
%TO.N,Net-(U3-PIN_14)*%
X48490000Y-75010000D03*
%TO.P,A1,20,20*%
%TO.N,unconnected-(A1-Pad20)*%
X45950000Y-75010000D03*
%TO.P,A1,21,21*%
%TO.N,unconnected-(A1-Pad21)*%
X43410000Y-75010000D03*
%TO.P,A1,22,22*%
%TO.N,Net-(U4-OUT)*%
X35790000Y-72470000D03*
%TO.P,A1,23,23*%
%TO.N,unconnected-(A1-Pad23)*%
X33250000Y-72470000D03*
%TO.P,A1,24,24*%
%TO.N,Net-(U4-S0)*%
X35790000Y-69930000D03*
%TO.P,A1,25,25*%
%TO.N,unconnected-(A1-Pad25)*%
X33250000Y-69930000D03*
%TO.P,A1,26,26*%
%TO.N,Net-(U4-S1)*%
X35790000Y-67390000D03*
%TO.P,A1,27,27*%
%TO.N,unconnected-(A1-Pad27)*%
X33250000Y-67390000D03*
%TO.P,A1,28,28*%
%TO.N,Net-(U4-S2)*%
X35790000Y-64850000D03*
%TO.P,A1,29,29*%
%TO.N,unconnected-(A1-Pad29)*%
X33250000Y-64850000D03*
%TO.P,A1,30,30*%
%TO.N,Net-(U4-S3)*%
X35790000Y-62310000D03*
%TO.P,A1,31,31*%
%TO.N,unconnected-(A1-Pad31)*%
X33250000Y-62310000D03*
%TO.P,A1,32,32*%
%TO.N,Net-(U5-PIN_8)*%
X35790000Y-59770000D03*
%TO.P,A1,33,33*%
%TO.N,Net-(M1-PWM)*%
X33250000Y-59770000D03*
%TO.P,A1,34,34*%
%TO.N,Net-(U5-PIN_9)*%
X35790000Y-57230000D03*
%TO.P,A1,35,35*%
%TO.N,Net-(M2-PWM)*%
X33250000Y-57230000D03*
%TO.P,A1,36,36*%
%TO.N,unconnected-(A1-Pad36)*%
X35790000Y-54690000D03*
%TO.P,A1,37,37*%
%TO.N,unconnected-(A1-Pad37)*%
X33250000Y-54690000D03*
%TO.P,A1,38,38*%
%TO.N,unconnected-(A1-Pad38)*%
X35790000Y-52150000D03*
%TO.P,A1,39,39*%
%TO.N,unconnected-(A1-Pad39)*%
X33250000Y-52150000D03*
%TO.P,A1,40,40*%
%TO.N,unconnected-(A1-Pad40)*%
X35790000Y-49610000D03*
%TO.P,A1,41,41*%
%TO.N,unconnected-(A1-Pad41)*%
X33250000Y-49610000D03*
%TO.P,A1,42,42*%
%TO.N,unconnected-(A1-Pad42)*%
X35790000Y-47070000D03*
%TO.P,A1,43,43*%
%TO.N,unconnected-(A1-Pad43)*%
X33250000Y-47070000D03*
%TO.P,A1,44,44*%
%TO.N,unconnected-(A1-Pad44)*%
X35790000Y-44530000D03*
%TO.P,A1,45,45*%
%TO.N,Net-(U1-TRIG)*%
X33250000Y-44530000D03*
%TO.P,A1,46,46*%
%TO.N,unconnected-(A1-Pad46)*%
X35790000Y-41990000D03*
%TO.P,A1,47,47*%
%TO.N,Net-(U1-ECHO)*%
X33250000Y-41990000D03*
%TO.P,A1,48,48*%
%TO.N,Net-(A1-Pad48)*%
X35790000Y-39450000D03*
%TO.P,A1,49,49*%
%TO.N,Net-(A1-Pad49)*%
X33250000Y-39450000D03*
%TO.P,A1,50,50*%
%TO.N,Net-(A1-Pad50)*%
X35790000Y-36910000D03*
%TO.P,A1,51,51*%
%TO.N,Net-(A1-Pad51)*%
X33250000Y-36910000D03*
%TO.P,A1,52,52*%
%TO.N,Net-(A1-Pad52)*%
X35790000Y-34370000D03*
%TO.P,A1,53,53*%
%TO.N,Net-(A1-Pad53)*%
X33250000Y-34370000D03*
%TO.P,A1,AD0,AD0*%
%TO.N,Net-(A1-PadAD0)*%
X78970000Y-26750000D03*
%TO.P,A1,AD1,AD1*%
%TO.N,unconnected-(A1-PadAD1)*%
X76430000Y-26750000D03*
%TO.P,A1,AD2,AD2*%
%TO.N,unconnected-(A1-PadAD2)*%
X73890000Y-26750000D03*
%TO.P,A1,AD3,AD3*%
%TO.N,unconnected-(A1-PadAD3)*%
X71350000Y-26750000D03*
%TO.P,A1,AD4,AD4*%
%TO.N,unconnected-(A1-PadAD4)*%
X68810000Y-26750000D03*
%TO.P,A1,AD5,AD5*%
%TO.N,unconnected-(A1-PadAD5)*%
X66270000Y-26750000D03*
%TO.P,A1,AD6,AD6*%
%TO.N,unconnected-(A1-PadAD6)*%
X63730000Y-26750000D03*
%TO.P,A1,AD7,AD7*%
%TO.N,unconnected-(A1-PadAD7)*%
X61190000Y-26750000D03*
%TO.P,A1,AD8,AD8*%
%TO.N,unconnected-(A1-PadAD8)*%
X56110000Y-26750000D03*
%TO.P,A1,AD9,AD9*%
%TO.N,unconnected-(A1-PadAD9)*%
X53570000Y-26750000D03*
%TO.P,A1,AD10,AD10*%
%TO.N,unconnected-(A1-PadAD10)*%
X51030000Y-26750000D03*
%TO.P,A1,AD11,AD11*%
%TO.N,unconnected-(A1-PadAD11)*%
X48490000Y-26750000D03*
%TO.P,A1,AD12,AD12*%
%TO.N,unconnected-(A1-PadAD12)*%
X45950000Y-26750000D03*
%TO.P,A1,AD13,AD13*%
%TO.N,unconnected-(A1-PadAD13)*%
X43410000Y-26750000D03*
%TO.P,A1,AD14,AD14*%
%TO.N,unconnected-(A1-PadAD14)*%
X40870000Y-26750000D03*
%TO.P,A1,AD15,AD15*%
%TO.N,unconnected-(A1-PadAD15)*%
X38330000Y-26750000D03*
%TO.P,A1,AREF,AREF*%
%TO.N,unconnected-(A1-PadAREF)*%
X105894000Y-75010000D03*
%TO.P,A1,GND1,GND1*%
%TO.N,GND*%
X89130000Y-26750000D03*
%TO.P,A1,GND2,GND2*%
X86590000Y-26750000D03*
%TO.P,A1,GND3,GND3*%
X103354000Y-75010000D03*
%TO.P,A1,GND4,GND4*%
X35790000Y-31830000D03*
%TO.P,A1,GND5,GND5*%
%TO.N,unconnected-(A1-PadGND5)*%
X33250000Y-31830000D03*
%TO.P,A1,IOREF,IOREF*%
%TO.N,unconnected-(A1-PadIOREF)*%
X99290000Y-26750000D03*
D20*
%TO.P,A1,NC,NC*%
%TO.N,unconnected-(A1-PadNC)*%
X101830000Y-26750000D03*
D19*
%TO.P,A1,RESET,RESET*%
%TO.N,unconnected-(A1-PadRESET)*%
X96750000Y-26750000D03*
%TO.P,A1,SCL,SCL*%
%TO.N,unconnected-(A1-PadSCL)*%
X110974000Y-75010000D03*
%TO.P,A1,SDA,SDA*%
%TO.N,unconnected-(A1-PadSDA)*%
X108434000Y-75010000D03*
%TO.P,A1,VIN,VIN*%
%TO.N,Net-(A1-PadVIN)*%
X84050000Y-26750000D03*
%TD*%
D21*
%TO.P,R9,1*%
%TO.N,Net-(U3-PIN_3)*%
X55500000Y-35750000D03*
%TO.P,R9,2*%
%TO.N,Net-(A1-Pad53)*%
X57325000Y-35750000D03*
%TD*%
%TO.P,R8,2*%
%TO.N,Net-(A1-Pad48)*%
X50912500Y-46500000D03*
%TO.P,R8,1*%
%TO.N,Net-(U3-PIN_5)*%
X49087500Y-46500000D03*
%TD*%
%TO.P,R7,1*%
%TO.N,Net-(A1-Pad52)*%
X64837500Y-41250000D03*
%TO.P,R7,2*%
%TO.N,Net-(U3-PIN_10)*%
X66662500Y-41250000D03*
%TD*%
%TO.P,R6,1*%
%TO.N,Net-(A1-Pad50)*%
X44500000Y-35500000D03*
%TO.P,R6,2*%
%TO.N,Net-(U3-PIN_13)*%
X46325000Y-35500000D03*
%TD*%
%TO.P,R5,1*%
%TO.N,Net-(U3-PIN_12)*%
X61087500Y-48500000D03*
%TO.P,R5,2*%
%TO.N,Net-(A1-Pad51)*%
X62912500Y-48500000D03*
%TD*%
%TO.P,R4,1*%
%TO.N,Net-(A1-Pad49)*%
X75250000Y-50250000D03*
%TO.P,R4,2*%
%TO.N,Net-(U3-PIN_11)*%
X77075000Y-50250000D03*
%TD*%
%TO.P,R3,1*%
%TO.N,Net-(A1-PadAD0)*%
X51837500Y-83250000D03*
%TO.P,R3,2*%
%TO.N,+5V*%
X53662500Y-83250000D03*
%TD*%
%TO.P,R2,1*%
%TO.N,+5V*%
X51837500Y-79500000D03*
%TO.P,R2,2*%
%TO.N,Net-(R2-Pad2)*%
X53662500Y-79500000D03*
%TD*%
D22*
%TO.P,L1,1,1*%
%TO.N,Net-(M1-+)*%
X101437500Y-94540000D03*
D23*
%TO.P,L1,2,2*%
%TO.N,+5V*%
X96982500Y-94540000D03*
%TD*%
D24*
%TO.P,C1,2*%
%TO.N,GND*%
X107960000Y-91990000D03*
%TO.P,C1,1*%
%TO.N,Net-(M1-+)*%
X107960000Y-98090000D03*
%TD*%
D25*
%TO.N,Net-(U3-PIN_3)*%
X83158500Y-38148500D03*
%TO.N,Net-(U3-PIN_5)*%
X69500000Y-51000000D03*
%TO.N,Net-(U3-PIN_10)*%
X102217000Y-41250000D03*
%TO.N,Net-(U3-PIN_13)*%
X108250000Y-46220800D03*
%TO.N,Net-(U3-PIN_12)*%
X114500000Y-52000000D03*
%TO.N,Net-(U3-PIN_11)*%
X116000000Y-54000000D03*
%TO.N,Net-(U3-PIN_14)*%
X48532900Y-72000000D03*
%TO.N,Net-(U4-S2)*%
X30500000Y-63719300D03*
X36560000Y-89690000D03*
%TO.N,Net-(U5-PIN_9)*%
X49634600Y-67250000D03*
X73078800Y-95170200D03*
%TO.N,Net-(U4-S3)*%
X37750000Y-79250000D03*
X36750000Y-86750000D03*
%TO.N,Net-(A1-PadAD0)*%
X63165500Y-78232300D03*
X80250000Y-33250000D03*
%TO.N,+3.3V*%
X100500000Y-30500000D03*
%TO.N,+5V*%
X55750000Y-81250000D03*
X42000000Y-88500000D03*
X86750000Y-24250000D03*
X115580000Y-81330000D03*
%TO.N,GND*%
X122500000Y-77000000D03*
%TD*%
D26*
%TO.N,GND*%
X60500000Y-25000000D02*
X53670000Y-31830000D01*
X53670000Y-31830000D02*
X35790000Y-31830000D01*
X82250000Y-25000000D02*
X60500000Y-25000000D01*
X81750000Y-26750000D02*
X81750000Y-25000000D01*
X88614000Y-33614000D02*
X81750000Y-26750000D01*
X97984800Y-33614000D02*
X88614000Y-33614000D01*
X115528000Y-50402100D02*
X114773000Y-50402100D01*
X117364000Y-52238500D02*
X115528000Y-50402100D01*
X117364000Y-72272400D02*
X117364000Y-52238500D01*
X114773000Y-50402100D02*
X97984800Y-33614000D01*
X81750000Y-25000000D02*
X84840000Y-25000000D01*
X84840000Y-25000000D02*
X86590000Y-26750000D01*
D27*
%TO.N,Net-(U3-PIN_5)*%
X50241100Y-45346400D02*
X49087500Y-46500000D01*
X51487100Y-45346400D02*
X50241100Y-45346400D01*
X57140700Y-51000000D02*
X51487100Y-45346400D01*
X69500000Y-51000000D02*
X57140700Y-51000000D01*
%TO.N,Net-(A1-Pad52)*%
X52007100Y-34000000D02*
X36160000Y-34000000D01*
X59257100Y-41250000D02*
X52007100Y-34000000D01*
X36160000Y-34000000D02*
X35790000Y-34370000D01*
X64837500Y-41250000D02*
X59257100Y-41250000D01*
D26*
%TO.N,GND*%
X32090000Y-48340000D02*
X36276300Y-48340000D01*
X31500000Y-47750000D02*
X32090000Y-48340000D01*
X66450000Y-78513700D02*
X66450000Y-79845000D01*
X32500000Y-30250000D02*
X31500000Y-31250000D01*
X34210000Y-30250000D02*
X32500000Y-30250000D01*
X35790000Y-31830000D02*
X34210000Y-30250000D01*
X31500000Y-31250000D02*
X31500000Y-47750000D01*
X36276300Y-48340000D02*
X66450000Y-78513700D01*
D27*
%TO.N,Net-(U4-OUT)*%
X34520000Y-73740000D02*
X35790000Y-72470000D01*
X31750000Y-74858900D02*
X32868900Y-73740000D01*
X39230000Y-94900000D02*
X31750000Y-87420000D01*
X31750000Y-87420000D02*
X31750000Y-74858900D01*
X32868900Y-73740000D02*
X34520000Y-73740000D01*
D26*
%TO.N,GND*%
X29070000Y-98320000D02*
X29070000Y-97440000D01*
X31500000Y-100750000D02*
X29070000Y-98320000D01*
X77490000Y-97750000D02*
X74490000Y-100750000D01*
X74490000Y-100750000D02*
X31500000Y-100750000D01*
D27*
%TO.N,Net-(M2-PWM)*%
X38639300Y-58639300D02*
X34659300Y-58639300D01*
X34659300Y-58639300D02*
X33250000Y-57230000D01*
X49649000Y-83149000D02*
X49649000Y-69649000D01*
X89420800Y-91487500D02*
X57987500Y-91487500D01*
X57987500Y-91487500D02*
X49649000Y-83149000D01*
X49649000Y-69649000D02*
X38639300Y-58639300D01*
X91428300Y-93495000D02*
X89420800Y-91487500D01*
X92730000Y-93495000D02*
X91428300Y-93495000D01*
%TO.N,Net-(U5-PIN_8)*%
X47337700Y-81837700D02*
X58250000Y-92750000D01*
X37924900Y-59770000D02*
X47337700Y-69182800D01*
X35790000Y-59770000D02*
X37924900Y-59770000D01*
X47337700Y-69182800D02*
X47337700Y-81837700D01*
X58250000Y-92750000D02*
X77490000Y-92750000D01*
%TO.N,Net-(M1-PWM)*%
X84158300Y-93495000D02*
X85460000Y-93495000D01*
X83683600Y-93969700D02*
X84158300Y-93495000D01*
X44680000Y-80680000D02*
X57969700Y-93969700D01*
X37008500Y-62324900D02*
X37777300Y-63093700D01*
X57969700Y-93969700D02*
X83683600Y-93969700D01*
X44680000Y-69058100D02*
X44680000Y-80680000D01*
X37008500Y-61895900D02*
X37008500Y-62324900D01*
X36152600Y-61040000D02*
X37008500Y-61895900D01*
X34520000Y-61040000D02*
X36152600Y-61040000D01*
X37777300Y-63093700D02*
X38715600Y-63093700D01*
X38715600Y-63093700D02*
X44680000Y-69058100D01*
X33250000Y-59770000D02*
X34520000Y-61040000D01*
%TO.N,Net-(U1-ECHO)*%
X78000000Y-81750000D02*
X78580000Y-81750000D01*
X67750000Y-73500000D02*
X71750000Y-73500000D01*
X71750000Y-73500000D02*
X72750000Y-74500000D01*
X37583200Y-43333200D02*
X67750000Y-73500000D01*
X72750000Y-74500000D02*
X72750000Y-76500000D01*
X34593200Y-43333200D02*
X37583200Y-43333200D01*
X33250000Y-41990000D02*
X34593200Y-43333200D01*
X72750000Y-76500000D02*
X78000000Y-81750000D01*
D26*
%TO.N,GND*%
X102043000Y-75957000D02*
X96250000Y-81750000D01*
X102043000Y-74500931D02*
X102043000Y-75957000D01*
X102000000Y-74000000D02*
X102000000Y-74457931D01*
X102000000Y-74457931D02*
X102043000Y-74500931D01*
X117364000Y-71500000D02*
X117364000Y-70500000D01*
X117364000Y-70500000D02*
X105500000Y-70500000D01*
X105500000Y-70500000D02*
X102000000Y-74000000D01*
X96250000Y-81750000D02*
X81120000Y-81750000D01*
X103354000Y-75010000D02*
X102990000Y-75010000D01*
%TO.N,+5V*%
X99890200Y-80008300D02*
X104563000Y-80008300D01*
X104563000Y-80008300D02*
X105965000Y-81410000D01*
X74137300Y-83750000D02*
X96148500Y-83750000D01*
X73500000Y-83112700D02*
X74137300Y-83750000D01*
X96148500Y-83750000D02*
X99890200Y-80008300D01*
D27*
%TO.N,Net-(M1-+)*%
X100594300Y-98250000D02*
X96246700Y-98250000D01*
X96246700Y-98250000D02*
X94031700Y-96035000D01*
X94031700Y-96035000D02*
X92730000Y-96035000D01*
X101438000Y-97406300D02*
X100594300Y-98250000D01*
X102031700Y-98000000D02*
X101438000Y-97406300D01*
X107870000Y-98000000D02*
X102031700Y-98000000D01*
X107960000Y-98090000D02*
X107870000Y-98000000D01*
D26*
%TO.N,GND*%
X113416000Y-97084000D02*
X113416000Y-92600000D01*
X109250000Y-101250000D02*
X113416000Y-97084000D01*
X96806700Y-101250000D02*
X109250000Y-101250000D01*
X94131700Y-98575000D02*
X96806700Y-101250000D01*
X92730000Y-98575000D02*
X94131700Y-98575000D01*
%TO.N,Net-(A1-PadVIN)*%
X124550000Y-53800000D02*
X124550000Y-92600000D01*
X121500000Y-50750000D02*
X124550000Y-53800000D01*
X120500000Y-44750000D02*
X121500000Y-45750000D01*
X111250000Y-44750000D02*
X120500000Y-44750000D01*
X121500000Y-45750000D02*
X121500000Y-50750000D01*
X97750000Y-31250000D02*
X111250000Y-44750000D01*
X84050000Y-26750000D02*
X88550000Y-31250000D01*
X88550000Y-31250000D02*
X97750000Y-31250000D01*
%TO.N,GND*%
X120992450Y-78507550D02*
X120992450Y-78757550D01*
X122500000Y-77000000D02*
X120992450Y-78507550D01*
X122000000Y-79765100D02*
X120992450Y-78757550D01*
X120000000Y-92600000D02*
X122000000Y-90600000D01*
X122000000Y-90600000D02*
X122000000Y-79765100D01*
X117364000Y-71500000D02*
X117364000Y-72272100D01*
%TO.N,+3.3V*%
X94210000Y-26770100D02*
X94210000Y-26750000D01*
X97889900Y-30450000D02*
X94210000Y-26770100D01*
X100500000Y-30500000D02*
X100450000Y-30450000D01*
X100450000Y-30450000D02*
X97889900Y-30450000D01*
%TO.N,+5V*%
X72112700Y-84500000D02*
X73500000Y-83112700D01*
X54912500Y-84500000D02*
X72112700Y-84500000D01*
X53662500Y-83250000D02*
X54912500Y-84500000D01*
%TO.N,Net-(A1-PadAD0)*%
X51837500Y-83389800D02*
X51837500Y-83250000D01*
X53947700Y-85500000D02*
X51837500Y-83389800D01*
X97933000Y-85500000D02*
X53947700Y-85500000D01*
X102023000Y-81410000D02*
X97933000Y-85500000D01*
X103425000Y-81410000D02*
X102023000Y-81410000D01*
X62683200Y-77750000D02*
X63165500Y-78232300D01*
X51250000Y-77750000D02*
X62683200Y-77750000D01*
X50404500Y-78595500D02*
X51250000Y-77750000D01*
X50404500Y-81817000D02*
X50404500Y-78595500D01*
X51837500Y-83250000D02*
X50404500Y-81817000D01*
D27*
%TO.N,Net-(A1-Pad48)*%
X38312500Y-41972500D02*
X35790000Y-39450000D01*
X39472500Y-41972500D02*
X38312500Y-41972500D01*
X45156600Y-47656600D02*
X39472500Y-41972500D01*
X49755900Y-47656600D02*
X45156600Y-47656600D01*
X50912500Y-46500000D02*
X49755900Y-47656600D01*
%TO.N,Net-(A1-Pad49)*%
X34520000Y-40720000D02*
X33250000Y-39450000D01*
X38097100Y-42652900D02*
X36164200Y-40720000D01*
X38652900Y-42652900D02*
X38097100Y-42652900D01*
X75250000Y-50250000D02*
X72500000Y-53000000D01*
X72500000Y-53000000D02*
X49000000Y-53000000D01*
X49000000Y-53000000D02*
X38652900Y-42652900D01*
X36164200Y-40720000D02*
X34520000Y-40720000D01*
D26*
%TO.N,+5V*%
X53662500Y-83210400D02*
X53662500Y-83250000D01*
X55622900Y-81250000D02*
X53662500Y-83210400D01*
X51837500Y-79525798D02*
X51837500Y-79500000D01*
X55750000Y-81250000D02*
X53561702Y-81250000D01*
X55750000Y-81250000D02*
X55622900Y-81250000D01*
X53561702Y-81250000D02*
X51837500Y-79525798D01*
D27*
%TO.N,Net-(U4-S2)*%
X39230000Y-92360000D02*
X36560000Y-89690000D01*
%TO.N,Net-(U4-S3)*%
X36750000Y-86750000D02*
X39230000Y-89230000D01*
X39230000Y-89230000D02*
X39230000Y-89820000D01*
D26*
%TO.N,+5V*%
X40569000Y-87069000D02*
X40569000Y-86939900D01*
X42000000Y-88500000D02*
X40569000Y-87069000D01*
D27*
%TO.N,Net-(U4-S3)*%
X37001700Y-63521700D02*
X35790000Y-62310000D01*
X37750000Y-79250000D02*
X37001700Y-78501700D01*
X37001700Y-78501700D02*
X37001700Y-63521700D01*
%TO.N,Net-(U4-S2)*%
X34659300Y-63719300D02*
X35790000Y-64850000D01*
X30500000Y-63719300D02*
X34659300Y-63719300D01*
%TO.N,Net-(U3-PIN_14)*%
X48532900Y-74967100D02*
X48490000Y-75010000D01*
X48532900Y-72000000D02*
X48532900Y-74967100D01*
%TO.N,Net-(U5-PIN_9)*%
X42576600Y-57230000D02*
X35790000Y-57230000D01*
X49634600Y-64288000D02*
X42576600Y-57230000D01*
X49634600Y-67250000D02*
X49634600Y-64288000D01*
D26*
%TO.N,+5V*%
X89997300Y-25077300D02*
X91670000Y-26750000D01*
X87577300Y-25077300D02*
X89997300Y-25077300D01*
X86750000Y-24250000D02*
X87577300Y-25077300D01*
%TO.N,Net-(A1-PadAD0)*%
X78970000Y-26750000D02*
X78970000Y-31970000D01*
X78970000Y-31970000D02*
X80250000Y-33250000D01*
D27*
%TO.N,Net-(U3-PIN_13)*%
X51616400Y-35500000D02*
X46325000Y-35500000D01*
X62337200Y-46220800D02*
X51616400Y-35500000D01*
X108250000Y-46220800D02*
X62337200Y-46220800D01*
%TO.N,Net-(U3-PIN_12)*%
X62266900Y-49679400D02*
X61087500Y-48500000D01*
X111999000Y-48730800D02*
X68440800Y-48730800D01*
X114500000Y-51231800D02*
X111999000Y-48730800D01*
X114500000Y-52000000D02*
X114500000Y-51231800D01*
X68440800Y-48730800D02*
X67492200Y-49679400D01*
X67492200Y-49679400D02*
X62266900Y-49679400D01*
%TO.N,Net-(U3-PIN_11)*%
X80825000Y-54000000D02*
X77075000Y-50250000D01*
X116000000Y-54000000D02*
X80825000Y-54000000D01*
%TO.N,Net-(M1-+)*%
X92730000Y-96035000D02*
X85460000Y-96035000D01*
X101438000Y-94540000D02*
X101438000Y-95973100D01*
X101438000Y-95973100D02*
X101438000Y-97406300D01*
X101437500Y-95972600D02*
X101437500Y-94540000D01*
X101438000Y-95973100D02*
X101437500Y-95972600D01*
%TO.N,Net-(U3-PIN_3)*%
X57898500Y-38148500D02*
X55500000Y-35750000D01*
X83158500Y-38148500D02*
X57898500Y-38148500D01*
%TO.N,Net-(U3-PIN_10)*%
X66662500Y-41250000D02*
X102217000Y-41250000D01*
%TO.N,Net-(A1-Pad53)*%
X34440600Y-33179400D02*
X33250000Y-34370000D01*
X54754400Y-33179400D02*
X34440600Y-33179400D01*
X57325000Y-35750000D02*
X54754400Y-33179400D01*
%TO.N,Net-(A1-Pad50)*%
X43090000Y-36910000D02*
X44500000Y-35500000D01*
X35790000Y-36910000D02*
X43090000Y-36910000D01*
%TO.N,Net-(A1-Pad51)*%
X34520000Y-38180000D02*
X33250000Y-36910000D01*
X52592500Y-38180000D02*
X34520000Y-38180000D01*
X62912500Y-48500000D02*
X52592500Y-38180000D01*
%TO.N,Net-(J6-Pin_2)*%
X47475000Y-94840000D02*
X44500000Y-94840000D01*
X49665000Y-92650000D02*
X47475000Y-94840000D01*
%TO.N,Net-(J5-Pin_2)*%
X48001700Y-90100000D02*
X49690000Y-90100000D01*
X45801700Y-92300000D02*
X48001700Y-90100000D01*
X44500000Y-92300000D02*
X45801700Y-92300000D01*
%TO.N,Net-(J4-Pin_2)*%
X47981700Y-95200000D02*
X49690000Y-95200000D01*
X45801700Y-97380000D02*
X47981700Y-95200000D01*
X44500000Y-97380000D02*
X45801700Y-97380000D01*
%TO.N,Net-(J3-Pin_2)*%
X48011700Y-87550000D02*
X49690000Y-87550000D01*
X45801700Y-89760000D02*
X48011700Y-87550000D01*
X44500000Y-89760000D02*
X45801700Y-89760000D01*
%TO.N,Net-(U4-S1)*%
X34512800Y-68667200D02*
X35790000Y-67390000D01*
X32909200Y-68667200D02*
X34512800Y-68667200D01*
X27835800Y-73740600D02*
X32909200Y-68667200D01*
X27835800Y-91125800D02*
X27835800Y-73740600D01*
X29070000Y-92360000D02*
X27835800Y-91125800D01*
%TO.N,Net-(U5-PIN_9)*%
X77385200Y-95170200D02*
X77515000Y-95300000D01*
X73078800Y-95170200D02*
X77385200Y-95170200D01*
%TO.N,Net-(U4-S0)*%
X29070000Y-74963400D02*
X29070000Y-89820000D01*
X32833400Y-71200000D02*
X29070000Y-74963400D01*
X34520000Y-71200000D02*
X32833400Y-71200000D01*
X35790000Y-69930000D02*
X34520000Y-71200000D01*
%TO.N,Net-(U4-~{OE})*%
X27224400Y-93054400D02*
X29070000Y-94900000D01*
X27224400Y-61635000D02*
X27224400Y-93054400D01*
X32770700Y-56088700D02*
X27224400Y-61635000D01*
X42993400Y-56088700D02*
X32770700Y-56088700D01*
X61190000Y-74285300D02*
X42993400Y-56088700D01*
X61190000Y-75010000D02*
X61190000Y-74285300D01*
%TO.N,Net-(U1-TRIG)*%
X73980100Y-79690100D02*
X76040000Y-81750000D01*
X71831500Y-79690100D02*
X73980100Y-79690100D01*
X67662200Y-75520800D02*
X71831500Y-79690100D01*
X67662200Y-74725700D02*
X67662200Y-75520800D01*
X38736500Y-45800000D02*
X67662200Y-74725700D01*
X34520000Y-45800000D02*
X38736500Y-45800000D01*
X33250000Y-44530000D02*
X34520000Y-45800000D01*
%TO.N,Net-(R2-Pad2)*%
X59705000Y-79500000D02*
X60050000Y-79845000D01*
X53662500Y-79500000D02*
X59705000Y-79500000D01*
D26*
%TO.N,Net-(A1-PadAD0)*%
X63165500Y-78560500D02*
X66450000Y-81845000D01*
X63165500Y-78232300D02*
X63165500Y-78560500D01*
%TO.N,+5V*%
X33250000Y-75010000D02*
X35790000Y-75010000D01*
X73500000Y-81750000D02*
X73500000Y-83112700D01*
X96982500Y-94540000D02*
X96982500Y-90200000D01*
X97175000Y-90200000D02*
X105965000Y-81410000D01*
X96982500Y-90200000D02*
X97175000Y-90200000D01*
X35790000Y-82160900D02*
X35790000Y-75010000D01*
X40569000Y-86939900D02*
X35790000Y-82160900D01*
X40569000Y-96101000D02*
X39230000Y-97440000D01*
X40569000Y-86939900D02*
X40569000Y-96101000D01*
X96982500Y-90200000D02*
X77515000Y-90200000D01*
X77515000Y-90200000D02*
X77515000Y-87650000D01*
X115500000Y-81250000D02*
X115580000Y-81330000D01*
X115340000Y-81410000D02*
X115500000Y-81250000D01*
X105965000Y-81410000D02*
X115340000Y-81410000D01*
X115580000Y-81330000D02*
X115660000Y-81410000D01*
%TO.N,GND*%
X61365500Y-83160500D02*
X60050000Y-81845000D01*
X67023200Y-83160500D02*
X61365500Y-83160500D01*
X67772400Y-82411300D02*
X67023200Y-83160500D01*
X67772400Y-81167400D02*
X67772400Y-82411300D01*
X66450000Y-79845000D02*
X67772400Y-81167400D01*
X118250000Y-92600000D02*
X120000000Y-92600000D01*
X121650000Y-95848300D02*
X121650000Y-97400000D01*
X120000000Y-94197800D02*
X121650000Y-95848300D01*
X120000000Y-92600000D02*
X120000000Y-94197800D01*
X113416000Y-92600000D02*
X118250000Y-92600000D01*
X112806000Y-91990000D02*
X113416000Y-92600000D01*
X107960000Y-91990000D02*
X112806000Y-91990000D01*
X92730000Y-98575000D02*
X85460000Y-98575000D01*
X78315000Y-98575000D02*
X77490000Y-97750000D01*
X85460000Y-98575000D02*
X78315000Y-98575000D01*
X86590000Y-26750000D02*
X89130000Y-26750000D01*
X118348000Y-78348000D02*
X117500000Y-77500000D01*
X120582900Y-78348000D02*
X118348000Y-78348000D01*
X117500000Y-77500000D02*
X117500000Y-71636000D01*
X120992450Y-78757550D02*
X120582900Y-78348000D01*
X117500000Y-71636000D02*
X117364000Y-71500000D01*
%TD*%
D28*
X26210000Y-22290000D02*
X126210000Y-22290000D01*
X126210000Y-102290000D01*
X26210000Y-102290000D01*
X26210000Y-22290000D01*
M02*
