%TF.GenerationSoftware,KiCad,Pcbnew,(6.0.9)*%
%TF.CreationDate,2024-03-22T17:54:06+02:00*%
%TF.ProjectId,diplomna-shema,6469706c-6f6d-46e6-912d-7368656d612e,rev?*%
%TF.SameCoordinates,Original*%
%TF.FileFunction,Soldermask,Bot*%
%TF.FilePolarity,Negative*%
%FSLAX46Y46*%
G04 Gerber Fmt 4.6, Leading zero omitted, Abs format (unit mm)*
G04 Created by KiCad (PCBNEW (6.0.9)) date 2024-03-22 17:54:06*
%MOMM*%
%LPD*%
G01*
G04 APERTURE LIST*
%ADD10C,0.150000*%
%ADD11C,0.120000*%
%ADD12C,3.200000*%
%ADD13R,1.700000X1.700000*%
%ADD14O,1.700000X1.700000*%
%ADD15C,1.524000*%
%ADD16C,1.600000*%
%ADD17R,2.000000X4.000000*%
%ADD18O,2.000000X3.300000*%
%ADD19O,3.500000X2.000000*%
%ADD20R,1.500000X1.500000*%
%ADD21O,1.500000X1.500000*%
G04 APERTURE END LIST*
D10*
X130400000Y-23600000D02*
X130400000Y-33800000D01*
X30600000Y-23600000D02*
X30600000Y-29100000D01*
X30600000Y-102700000D02*
X34700000Y-102700000D01*
X130400000Y-96100000D02*
X130400000Y-102700000D01*
X120100000Y-23600000D02*
X130400000Y-23600000D01*
X130400000Y-102700000D02*
X125000000Y-102700000D01*
X35700000Y-23600000D02*
X30600000Y-23600000D01*
X30600000Y-99000000D02*
X30600000Y-102700000D01*
D11*
%TO.C,U4*%
X37998000Y-71329000D02*
G75*
G03*
X37998000Y-71329000I-1600000J0D01*
G01*
X115373000Y-27529000D02*
G75*
G03*
X115373000Y-27529000I-1600000J0D01*
G01*
X38073000Y-27554000D02*
G75*
G03*
X38073000Y-27554000I-1600000J0D01*
G01*
X115448000Y-71229000D02*
G75*
G03*
X115448000Y-71229000I-1600000J0D01*
G01*
%TD*%
D12*
%TO.C,*%
X32600000Y-25600000D03*
%TD*%
D13*
%TO.C,M2*%
X54300000Y-91400000D03*
D14*
X54300000Y-93940000D03*
X54300000Y-96480000D03*
%TD*%
D13*
%TO.C,REF\u002A\u002A*%
X45700000Y-99200000D03*
D14*
X43160000Y-99200000D03*
X40620000Y-99200000D03*
X38080000Y-99200000D03*
%TD*%
D12*
%TO.C,*%
X128400000Y-100700000D03*
%TD*%
%TO.C,*%
X128400000Y-25600000D03*
%TD*%
D15*
%TO.C,U3*%
X112475000Y-92250000D03*
X109925000Y-92250000D03*
X107275000Y-92225000D03*
X104725000Y-92250000D03*
%TD*%
D13*
%TO.C,J7*%
X78475000Y-93200000D03*
D14*
X81015000Y-93200000D03*
X83555000Y-93200000D03*
%TD*%
D15*
%TO.C,U5*%
X90190000Y-91880000D03*
X92740000Y-91880000D03*
X95290000Y-91905000D03*
X97840000Y-91880000D03*
X100390000Y-91880000D03*
%TD*%
D12*
%TO.C,*%
X32600000Y-100700000D03*
%TD*%
D15*
%TO.C,U2*%
X59787500Y-90785000D03*
X57787500Y-90785000D03*
X59787500Y-97185000D03*
X57787500Y-97185000D03*
%TD*%
D12*
%TO.C,A2*%
X123355000Y-27370000D03*
X71285000Y-60390000D03*
X71285000Y-32450000D03*
X40805000Y-27370000D03*
X122085000Y-75630000D03*
X47155000Y-75630000D03*
%TD*%
D16*
%TO.C,U4*%
X113773000Y-27554000D03*
X36398000Y-71329000D03*
X36473000Y-27554000D03*
X113848000Y-71229000D03*
D15*
X114413000Y-66799000D03*
X114413000Y-64259000D03*
X114413000Y-61719000D03*
X114413000Y-59179000D03*
X114413000Y-56639000D03*
X114413000Y-54099000D03*
X114413000Y-51559000D03*
X114413000Y-49019000D03*
X114413000Y-46479000D03*
X114413000Y-43939000D03*
X114413000Y-41399000D03*
X114413000Y-38859000D03*
X114413000Y-36319000D03*
X114413000Y-33779000D03*
X33133000Y-56639000D03*
X33133000Y-54099000D03*
X33133000Y-51559000D03*
X33133000Y-49019000D03*
%TD*%
D16*
%TO.C,J1*%
X125500000Y-89900000D03*
D17*
X116500000Y-89900000D03*
D18*
X122500000Y-89900000D03*
D19*
X123500000Y-94400000D03*
X123500000Y-85400000D03*
%TD*%
D20*
%TO.C,A1*%
X50790000Y-95940000D03*
D21*
X48250000Y-95940000D03*
X45710000Y-95940000D03*
X43170000Y-95940000D03*
X40630000Y-95940000D03*
X38090000Y-95940000D03*
X35550000Y-95940000D03*
X33010000Y-95940000D03*
X33010000Y-83240000D03*
X35550000Y-83240000D03*
X38090000Y-83240000D03*
X40630000Y-83240000D03*
X43170000Y-83240000D03*
X45710000Y-83240000D03*
X48250000Y-83240000D03*
X50790000Y-83240000D03*
%TD*%
M02*
