%TF.GenerationSoftware,KiCad,Pcbnew,8.0.2*%
%TF.CreationDate,2024-05-11T13:38:57+03:00*%
%TF.ProjectId,diplomna-shema,6469706c-6f6d-46e6-912d-7368656d612e,rev?*%
%TF.SameCoordinates,Original*%
%TF.FileFunction,Copper,L2,Bot*%
%TF.FilePolarity,Positive*%
%FSLAX46Y46*%
G04 Gerber Fmt 4.6, Leading zero omitted, Abs format (unit mm)*
G04 Created by KiCad (PCBNEW 8.0.2) date 2024-05-11 13:38:57*
%MOMM*%
%LPD*%
G01*
G04 APERTURE LIST*
%TA.AperFunction,NonConductor*%
%ADD10C,0.200000*%
%TD*%
%TA.AperFunction,Conductor*%
%ADD11C,0.200000*%
%TD*%
%TA.AperFunction,ComponentPad*%
%ADD12C,1.524000*%
%TD*%
%TA.AperFunction,ComponentPad*%
%ADD13C,1.530000*%
%TD*%
%TA.AperFunction,ComponentPad*%
%ADD14R,1.700000X1.700000*%
%TD*%
%TA.AperFunction,ComponentPad*%
%ADD15O,1.700000X1.700000*%
%TD*%
%TA.AperFunction,ComponentPad*%
%ADD16R,2.000000X4.600000*%
%TD*%
%TA.AperFunction,ComponentPad*%
%ADD17O,2.000000X4.200000*%
%TD*%
%TA.AperFunction,ComponentPad*%
%ADD18O,4.200000X2.000000*%
%TD*%
%TA.AperFunction,ComponentPad*%
%ADD19C,1.358000*%
%TD*%
%TA.AperFunction,ComponentPad*%
%ADD20R,1.358000X1.358000*%
%TD*%
%TA.AperFunction,ViaPad*%
%ADD21C,1.300000*%
%TD*%
%TA.AperFunction,Conductor*%
%ADD22C,0.500000*%
%TD*%
%TA.AperFunction,Conductor*%
%ADD23C,0.300000*%
%TD*%
%TA.AperFunction,Profile*%
%ADD24C,0.100000*%
%TD*%
G04 APERTURE END LIST*
D10*
X126220000Y-22270000D02*
X126180000Y-26980000D01*
X119960000Y-22270000D02*
X126220000Y-22270000D01*
D11*
%TO.N,unconnected-(A1-Pad40)*%
X26190000Y-102310000D02*
X30540000Y-102290000D01*
X26190000Y-99310000D02*
X26190000Y-102310000D01*
D10*
X26160000Y-22200000D02*
X33550000Y-22200000D01*
X26200000Y-29850000D02*
X26160000Y-22200000D01*
X126190000Y-102300000D02*
X126190000Y-97480000D01*
X123030000Y-102300000D02*
X126190000Y-102300000D01*
%TD*%
D12*
%TO.P,U3,1,PIN_1*%
%TO.N,+5V*%
X119590000Y-79660000D03*
%TO.P,U3,2,PIN_2*%
%TO.N,GND*%
X119590000Y-77120000D03*
%TO.P,U3,3,PIN_3*%
%TO.N,Net-(U3-PIN_3)*%
X119590000Y-74580000D03*
%TO.P,U3,4,PIN_4*%
%TO.N,+3.3V*%
X119590000Y-72040000D03*
%TO.P,U3,5,PIN_5*%
%TO.N,Net-(U3-PIN_5)*%
X119590000Y-69500000D03*
%TO.P,U3,6,PIN_6*%
%TO.N,Net-(U3-PIN_12)*%
X119590000Y-66960000D03*
%TO.P,U3,7,PIN_7*%
%TO.N,Net-(U3-PIN_10)*%
X119590000Y-64420000D03*
%TO.P,U3,8,PIN_8*%
%TO.N,+3.3V*%
X119590000Y-61880000D03*
%TO.P,U3,9,PIN_9*%
%TO.N,Net-(U3-PIN_13)*%
X119590000Y-59340000D03*
%TO.P,U3,10,PIN_10*%
%TO.N,Net-(U3-PIN_10)*%
X119590000Y-56800000D03*
%TO.P,U3,11,PIN_11*%
%TO.N,Net-(U3-PIN_11)*%
X119590000Y-54260000D03*
%TO.P,U3,12,PIN_12*%
%TO.N,Net-(U3-PIN_12)*%
X119590000Y-51720000D03*
%TO.P,U3,13,PIN_13*%
%TO.N,Net-(U3-PIN_13)*%
X119590000Y-49180000D03*
%TO.P,U3,14,PIN_14*%
%TO.N,Net-(U3-PIN_14)*%
X119590000Y-46640000D03*
%TO.P,U3,15*%
%TO.N,N/C*%
X38310000Y-69500000D03*
%TO.P,U3,16*%
X38310000Y-66960000D03*
%TO.P,U3,17*%
X38310000Y-64420000D03*
%TO.P,U3,18*%
X38310000Y-61880000D03*
%TD*%
%TO.P,U2,1*%
%TO.N,Net-(R2-Pad2)*%
X60050000Y-79845000D03*
%TO.P,U2,2*%
%TO.N,GND*%
X60050000Y-81845000D03*
%TO.P,U2,3*%
X66450000Y-79845000D03*
%TO.P,U2,4*%
%TO.N,Net-(A1-PadAD0)*%
X66450000Y-81845000D03*
%TD*%
D13*
%TO.P,U1,1,VCC*%
%TO.N,+5V*%
X73500000Y-81750000D03*
%TO.P,U1,2,TRIG*%
%TO.N,Net-(U1-TRIG)*%
X76040000Y-81750000D03*
%TO.P,U1,3,ECHO*%
%TO.N,Net-(U1-ECHO)*%
X78580000Y-81750000D03*
%TO.P,U1,4,GND*%
%TO.N,GND*%
X81120000Y-81750000D03*
%TD*%
D14*
%TO.P,J9,1*%
%TO.N,Net-(J3-Pin_2)*%
X44500000Y-89760000D03*
D15*
%TO.P,J9,2*%
%TO.N,Net-(J5-Pin_2)*%
X44500000Y-92300000D03*
%TO.P,J9,3*%
%TO.N,Net-(J6-Pin_2)*%
X44500000Y-94840000D03*
%TO.P,J9,4*%
%TO.N,Net-(J4-Pin_2)*%
X44500000Y-97380000D03*
%TD*%
D12*
%TO.P,U4,1,S0*%
%TO.N,Net-(U4-S0)*%
X29070000Y-89820000D03*
%TO.P,U4,2,S1*%
%TO.N,Net-(U4-S1)*%
X29070000Y-92360000D03*
%TO.P,U4,3,~{OE}*%
%TO.N,Net-(U4-~{OE})*%
X29070000Y-94900000D03*
%TO.P,U4,4,GND*%
%TO.N,GND*%
X29070000Y-97440000D03*
%TO.P,U4,5,VDD*%
%TO.N,+5V*%
X39230000Y-97440000D03*
%TO.P,U4,6,OUT*%
%TO.N,Net-(U4-OUT)*%
X39230000Y-94900000D03*
%TO.P,U4,7,S2*%
%TO.N,Net-(U4-S2)*%
X39230000Y-92360000D03*
%TO.P,U4,8,S3*%
%TO.N,Net-(U4-S3)*%
X39230000Y-89820000D03*
%TD*%
D14*
%TO.P,J8,1*%
%TO.N,Net-(A1-PadAD0)*%
X103425000Y-81410000D03*
D15*
%TO.P,J8,2*%
%TO.N,+5V*%
X105965000Y-81410000D03*
%TD*%
D16*
%TO.P,J2,1*%
%TO.N,Net-(A1-PadVIN)*%
X124550000Y-92600000D03*
D17*
%TO.P,J2,2*%
%TO.N,GND*%
X118250000Y-92600000D03*
D18*
%TO.P,J2,3*%
X121650000Y-97400000D03*
%TD*%
D14*
%TO.P,M2,1,PWM*%
%TO.N,Net-(M2-PWM)*%
X92730000Y-93495000D03*
D15*
%TO.P,M2,2,+*%
%TO.N,Net-(M1-+)*%
X92730000Y-96035000D03*
%TO.P,M2,3,-*%
%TO.N,GND*%
X92730000Y-98575000D03*
%TD*%
D14*
%TO.P,M1,1,PWM*%
%TO.N,Net-(M1-PWM)*%
X85460000Y-93495000D03*
D15*
%TO.P,M1,2,+*%
%TO.N,Net-(M1-+)*%
X85460000Y-96035000D03*
%TO.P,M1,3,-*%
%TO.N,GND*%
X85460000Y-98575000D03*
%TD*%
D12*
%TO.P,U5,1,PIN_1*%
%TO.N,Net-(J3-Pin_2)*%
X49690000Y-87550000D03*
%TO.P,U5,2,PIN_2*%
%TO.N,Net-(J5-Pin_2)*%
X49690000Y-90100000D03*
%TO.P,U5,3,PIN_3*%
%TO.N,Net-(J6-Pin_2)*%
X49665000Y-92650000D03*
%TO.P,U5,4,PIN_4*%
%TO.N,Net-(J4-Pin_2)*%
X49690000Y-95200000D03*
%TO.P,U5,5,PIN_5*%
%TO.N,unconnected-(U5-PIN_5-Pad5)*%
X49690000Y-97750000D03*
%TO.P,U5,6,PIN_6*%
%TO.N,+5V*%
X77515000Y-87650000D03*
%TO.P,U5,7,PIN_7*%
X77515000Y-90200000D03*
%TO.P,U5,8,PIN_8*%
%TO.N,Net-(U5-PIN_8)*%
X77490000Y-92750000D03*
%TO.P,U5,9,PIN_9*%
%TO.N,Net-(U5-PIN_9)*%
X77515000Y-95300000D03*
%TO.P,U5,10,PIN_10*%
%TO.N,GND*%
X77490000Y-97750000D03*
%TD*%
D19*
%TO.P,A1,0,0*%
%TO.N,unconnected-(A1-Pad0)*%
X66270000Y-75010000D03*
%TO.P,A1,1,1*%
%TO.N,unconnected-(A1-Pad1)*%
X68810000Y-75010000D03*
%TO.P,A1,2,2*%
%TO.N,unconnected-(A1-Pad2)*%
X71350000Y-75010000D03*
%TO.P,A1,3,3*%
%TO.N,unconnected-(A1-Pad3)*%
X73890000Y-75010000D03*
%TO.P,A1,3V3,+3V3*%
%TO.N,+3.3V*%
X94210000Y-26750000D03*
%TO.P,A1,4,4*%
%TO.N,unconnected-(A1-Pad4)*%
X76430000Y-75010000D03*
%TO.P,A1,5,5*%
%TO.N,unconnected-(A1-Pad5)*%
X78970000Y-75010000D03*
%TO.P,A1,5V_1,+5V_1*%
%TO.N,+5V*%
X91670000Y-26750000D03*
%TO.P,A1,5V_2,+5V_2*%
X35790000Y-75010000D03*
%TO.P,A1,5V_3,+5V_3*%
X33250000Y-75010000D03*
%TO.P,A1,6,6*%
%TO.N,unconnected-(A1-Pad6)*%
X81510000Y-75010000D03*
%TO.P,A1,7,7*%
%TO.N,unconnected-(A1-Pad7)*%
X84050000Y-75010000D03*
%TO.P,A1,8,8*%
%TO.N,unconnected-(A1-Pad8)*%
X88114000Y-75010000D03*
%TO.P,A1,9,9*%
%TO.N,unconnected-(A1-Pad9)*%
X90654000Y-75010000D03*
%TO.P,A1,10,10*%
%TO.N,unconnected-(A1-Pad10)*%
X93194000Y-75010000D03*
%TO.P,A1,11,11*%
%TO.N,unconnected-(A1-Pad11)*%
X95734000Y-75010000D03*
%TO.P,A1,12,12*%
%TO.N,unconnected-(A1-Pad12)*%
X98274000Y-75010000D03*
%TO.P,A1,13,13*%
%TO.N,unconnected-(A1-Pad13)*%
X100814000Y-75010000D03*
%TO.P,A1,14,14*%
%TO.N,Net-(U4-~{OE})*%
X61190000Y-75010000D03*
%TO.P,A1,15,15*%
%TO.N,unconnected-(A1-Pad15)*%
X58650000Y-75010000D03*
%TO.P,A1,16,16*%
%TO.N,unconnected-(A1-Pad16)*%
X56110000Y-75010000D03*
%TO.P,A1,17,17*%
%TO.N,unconnected-(A1-Pad17)*%
X53570000Y-75010000D03*
%TO.P,A1,18,18*%
%TO.N,unconnected-(A1-Pad18)*%
X51030000Y-75010000D03*
%TO.P,A1,19,19*%
%TO.N,Net-(U3-PIN_14)*%
X48490000Y-75010000D03*
%TO.P,A1,20,20*%
%TO.N,unconnected-(A1-Pad20)*%
X45950000Y-75010000D03*
%TO.P,A1,21,21*%
%TO.N,unconnected-(A1-Pad21)*%
X43410000Y-75010000D03*
%TO.P,A1,22,22*%
%TO.N,Net-(U4-OUT)*%
X35790000Y-72470000D03*
%TO.P,A1,23,23*%
%TO.N,unconnected-(A1-Pad23)*%
X33250000Y-72470000D03*
%TO.P,A1,24,24*%
%TO.N,Net-(U4-S0)*%
X35790000Y-69930000D03*
%TO.P,A1,25,25*%
%TO.N,unconnected-(A1-Pad25)*%
X33250000Y-69930000D03*
%TO.P,A1,26,26*%
%TO.N,Net-(U4-S1)*%
X35790000Y-67390000D03*
%TO.P,A1,27,27*%
%TO.N,unconnected-(A1-Pad27)*%
X33250000Y-67390000D03*
%TO.P,A1,28,28*%
%TO.N,Net-(U4-S2)*%
X35790000Y-64850000D03*
%TO.P,A1,29,29*%
%TO.N,unconnected-(A1-Pad29)*%
X33250000Y-64850000D03*
%TO.P,A1,30,30*%
%TO.N,Net-(U4-S3)*%
X35790000Y-62310000D03*
%TO.P,A1,31,31*%
%TO.N,unconnected-(A1-Pad31)*%
X33250000Y-62310000D03*
%TO.P,A1,32,32*%
%TO.N,Net-(U5-PIN_8)*%
X35790000Y-59770000D03*
%TO.P,A1,33,33*%
%TO.N,Net-(M1-PWM)*%
X33250000Y-59770000D03*
%TO.P,A1,34,34*%
%TO.N,Net-(U5-PIN_9)*%
X35790000Y-57230000D03*
%TO.P,A1,35,35*%
%TO.N,Net-(M2-PWM)*%
X33250000Y-57230000D03*
%TO.P,A1,36,36*%
%TO.N,unconnected-(A1-Pad36)*%
X35790000Y-54690000D03*
%TO.P,A1,37,37*%
%TO.N,unconnected-(A1-Pad37)*%
X33250000Y-54690000D03*
%TO.P,A1,38,38*%
%TO.N,unconnected-(A1-Pad38)*%
X35790000Y-52150000D03*
%TO.P,A1,39,39*%
%TO.N,unconnected-(A1-Pad39)*%
X33250000Y-52150000D03*
%TO.P,A1,40,40*%
%TO.N,unconnected-(A1-Pad40)*%
X35790000Y-49610000D03*
%TO.P,A1,41,41*%
%TO.N,unconnected-(A1-Pad41)*%
X33250000Y-49610000D03*
%TO.P,A1,42,42*%
%TO.N,unconnected-(A1-Pad42)*%
X35790000Y-47070000D03*
%TO.P,A1,43,43*%
%TO.N,unconnected-(A1-Pad43)*%
X33250000Y-47070000D03*
%TO.P,A1,44,44*%
%TO.N,unconnected-(A1-Pad44)*%
X35790000Y-44530000D03*
%TO.P,A1,45,45*%
%TO.N,Net-(U1-TRIG)*%
X33250000Y-44530000D03*
%TO.P,A1,46,46*%
%TO.N,unconnected-(A1-Pad46)*%
X35790000Y-41990000D03*
%TO.P,A1,47,47*%
%TO.N,Net-(U1-ECHO)*%
X33250000Y-41990000D03*
%TO.P,A1,48,48*%
%TO.N,Net-(A1-Pad48)*%
X35790000Y-39450000D03*
%TO.P,A1,49,49*%
%TO.N,Net-(A1-Pad49)*%
X33250000Y-39450000D03*
%TO.P,A1,50,50*%
%TO.N,Net-(A1-Pad50)*%
X35790000Y-36910000D03*
%TO.P,A1,51,51*%
%TO.N,Net-(A1-Pad51)*%
X33250000Y-36910000D03*
%TO.P,A1,52,52*%
%TO.N,Net-(A1-Pad52)*%
X35790000Y-34370000D03*
%TO.P,A1,53,53*%
%TO.N,Net-(A1-Pad53)*%
X33250000Y-34370000D03*
%TO.P,A1,AD0,AD0*%
%TO.N,Net-(A1-PadAD0)*%
X78970000Y-26750000D03*
%TO.P,A1,AD1,AD1*%
%TO.N,unconnected-(A1-PadAD1)*%
X76430000Y-26750000D03*
%TO.P,A1,AD2,AD2*%
%TO.N,unconnected-(A1-PadAD2)*%
X73890000Y-26750000D03*
%TO.P,A1,AD3,AD3*%
%TO.N,unconnected-(A1-PadAD3)*%
X71350000Y-26750000D03*
%TO.P,A1,AD4,AD4*%
%TO.N,unconnected-(A1-PadAD4)*%
X68810000Y-26750000D03*
%TO.P,A1,AD5,AD5*%
%TO.N,unconnected-(A1-PadAD5)*%
X66270000Y-26750000D03*
%TO.P,A1,AD6,AD6*%
%TO.N,unconnected-(A1-PadAD6)*%
X63730000Y-26750000D03*
%TO.P,A1,AD7,AD7*%
%TO.N,unconnected-(A1-PadAD7)*%
X61190000Y-26750000D03*
%TO.P,A1,AD8,AD8*%
%TO.N,unconnected-(A1-PadAD8)*%
X56110000Y-26750000D03*
%TO.P,A1,AD9,AD9*%
%TO.N,unconnected-(A1-PadAD9)*%
X53570000Y-26750000D03*
%TO.P,A1,AD10,AD10*%
%TO.N,unconnected-(A1-PadAD10)*%
X51030000Y-26750000D03*
%TO.P,A1,AD11,AD11*%
%TO.N,unconnected-(A1-PadAD11)*%
X48490000Y-26750000D03*
%TO.P,A1,AD12,AD12*%
%TO.N,unconnected-(A1-PadAD12)*%
X45950000Y-26750000D03*
%TO.P,A1,AD13,AD13*%
%TO.N,unconnected-(A1-PadAD13)*%
X43410000Y-26750000D03*
%TO.P,A1,AD14,AD14*%
%TO.N,unconnected-(A1-PadAD14)*%
X40870000Y-26750000D03*
%TO.P,A1,AD15,AD15*%
%TO.N,unconnected-(A1-PadAD15)*%
X38330000Y-26750000D03*
%TO.P,A1,AREF,AREF*%
%TO.N,unconnected-(A1-PadAREF)*%
X105894000Y-75010000D03*
%TO.P,A1,GND1,GND1*%
%TO.N,GND*%
X89130000Y-26750000D03*
%TO.P,A1,GND2,GND2*%
X86590000Y-26750000D03*
%TO.P,A1,GND3,GND3*%
X103354000Y-75010000D03*
%TO.P,A1,GND4,GND4*%
X35790000Y-31830000D03*
%TO.P,A1,GND5,GND5*%
%TO.N,unconnected-(A1-PadGND5)*%
X33250000Y-31830000D03*
%TO.P,A1,IOREF,IOREF*%
%TO.N,unconnected-(A1-PadIOREF)*%
X99290000Y-26750000D03*
D20*
%TO.P,A1,NC,NC*%
%TO.N,unconnected-(A1-PadNC)*%
X101830000Y-26750000D03*
D19*
%TO.P,A1,RESET,RESET*%
%TO.N,unconnected-(A1-PadRESET)*%
X96750000Y-26750000D03*
%TO.P,A1,SCL,SCL*%
%TO.N,unconnected-(A1-PadSCL)*%
X110974000Y-75010000D03*
%TO.P,A1,SDA,SDA*%
%TO.N,unconnected-(A1-PadSDA)*%
X108434000Y-75010000D03*
%TO.P,A1,VIN,VIN*%
%TO.N,Net-(A1-PadVIN)*%
X84050000Y-26750000D03*
%TD*%
D21*
%TO.N,Net-(U3-PIN_3)*%
X83158500Y-38148500D03*
%TO.N,Net-(U3-PIN_5)*%
X69500000Y-51000000D03*
%TO.N,Net-(U3-PIN_10)*%
X102217000Y-41250000D03*
%TO.N,Net-(U3-PIN_13)*%
X108250000Y-46220800D03*
%TO.N,Net-(U3-PIN_12)*%
X114500000Y-52000000D03*
%TO.N,Net-(U3-PIN_11)*%
X116000000Y-54000000D03*
%TO.N,Net-(U3-PIN_14)*%
X48532900Y-72000000D03*
%TO.N,Net-(U4-S2)*%
X30500000Y-63719300D03*
X36560000Y-89690000D03*
%TO.N,Net-(U5-PIN_9)*%
X49634600Y-67250000D03*
X73078800Y-95170200D03*
%TO.N,Net-(U4-S3)*%
X37750000Y-79250000D03*
X36750000Y-86750000D03*
%TO.N,Net-(A1-PadAD0)*%
X63165500Y-78232300D03*
X80250000Y-33250000D03*
%TO.N,+3.3V*%
X100500000Y-30500000D03*
%TO.N,+5V*%
X55750000Y-81250000D03*
X42000000Y-88500000D03*
X86750000Y-24250000D03*
X115580000Y-81330000D03*
%TO.N,GND*%
X122500000Y-77000000D03*
%TD*%
D22*
%TO.N,+5V*%
X47397800Y-83102200D02*
X42000000Y-88500000D01*
X47397800Y-81209900D02*
X47397800Y-83102200D01*
X47261000Y-60989000D02*
X47261000Y-81073100D01*
X84000000Y-24250000D02*
X47261000Y-60989000D01*
X47261000Y-81073100D02*
X47397800Y-81209900D01*
X86750000Y-24250000D02*
X84000000Y-24250000D01*
%TO.N,GND*%
X122500000Y-77000000D02*
X119710000Y-77000000D01*
X119710000Y-77000000D02*
X119590000Y-77120000D01*
%TO.N,+3.3V*%
X100500000Y-30500000D02*
X96520600Y-34479400D01*
X96520600Y-34479400D02*
X96520600Y-40270600D01*
X96520600Y-40270600D02*
X118244000Y-61994000D01*
X118244000Y-61994000D02*
X119476000Y-61994000D01*
D23*
%TO.N,Net-(U3-PIN_14)*%
X101700000Y-28750000D02*
X119590000Y-46640000D01*
X81582400Y-28500000D02*
X95194365Y-28500000D01*
X95444365Y-28750000D02*
X101700000Y-28750000D01*
X48532900Y-61549500D02*
X81582400Y-28500000D01*
X48532900Y-72000000D02*
X48532900Y-61549500D01*
X95194365Y-28500000D02*
X95444365Y-28750000D01*
%TO.N,Net-(U3-PIN_10)*%
X102217000Y-43967000D02*
X102217000Y-41250000D01*
X118352000Y-56800000D02*
X115050000Y-56800000D01*
X115050000Y-56800000D02*
X102217000Y-43967000D01*
%TO.N,Net-(U3-PIN_13)*%
X112750000Y-50326000D02*
X113896000Y-49180000D01*
X112750000Y-52651472D02*
X112750000Y-50326000D01*
X120528500Y-55528500D02*
X115627028Y-55528500D01*
X121500000Y-57430000D02*
X121500000Y-56500000D01*
X121500000Y-56500000D02*
X120528500Y-55528500D01*
X119590000Y-59340000D02*
X121500000Y-57430000D01*
X115627028Y-55528500D02*
X112750000Y-52651472D01*
%TO.N,Net-(U3-PIN_10)*%
X120610000Y-60610000D02*
X121250000Y-61250000D01*
X118610000Y-60610000D02*
X120610000Y-60610000D01*
X121250000Y-62760000D02*
X119590000Y-64420000D01*
X117750000Y-59750000D02*
X118610000Y-60610000D01*
X117750000Y-57402000D02*
X117750000Y-59750000D01*
X118352000Y-56800000D02*
X117750000Y-57402000D01*
X121250000Y-61250000D02*
X121250000Y-62760000D01*
%TO.N,Net-(U3-PIN_12)*%
X122500000Y-54630000D02*
X119590000Y-51720000D01*
X122500000Y-64050000D02*
X122500000Y-54630000D01*
X119590000Y-66960000D02*
X122500000Y-64050000D01*
D22*
%TO.N,+3.3V*%
X117500000Y-63970000D02*
X119476000Y-61994000D01*
X117500000Y-69950000D02*
X117500000Y-63970000D01*
X119590000Y-72040000D02*
X117500000Y-69950000D01*
D23*
%TO.N,Net-(U5-PIN_9)*%
X56205635Y-80150000D02*
X56850000Y-80794365D01*
X55650000Y-80150000D02*
X56205635Y-80150000D01*
X70670200Y-95170200D02*
X73078800Y-95170200D01*
X52441000Y-70056400D02*
X52441000Y-76941000D01*
X52441000Y-76941000D02*
X55650000Y-80150000D01*
X49634600Y-67250000D02*
X52441000Y-70056400D01*
X56850000Y-80794365D02*
X56850000Y-81350000D01*
X56850000Y-81350000D02*
X70670200Y-95170200D01*
D22*
%TO.N,+5V*%
X55750000Y-81250000D02*
X55709900Y-81209900D01*
X55709900Y-81209900D02*
X47397800Y-81209900D01*
D23*
%TO.N,Net-(U4-S2)*%
X30750000Y-63969300D02*
X30500000Y-63719300D01*
X30750000Y-83880000D02*
X30750000Y-63969300D01*
X36560000Y-89690000D02*
X30750000Y-83880000D01*
%TO.N,Net-(U4-S3)*%
X38217400Y-79717400D02*
X37750000Y-79250000D01*
X38217400Y-85282600D02*
X38217400Y-79717400D01*
X36750000Y-86750000D02*
X38217400Y-85282600D01*
D22*
%TO.N,Net-(A1-PadAD0)*%
X63165500Y-63415500D02*
X63165500Y-78232300D01*
X60500000Y-60750000D02*
X63165500Y-63415500D01*
X60500000Y-53000000D02*
X60500000Y-60750000D01*
X80250000Y-33250000D02*
X60500000Y-53000000D01*
D23*
%TO.N,Net-(U3-PIN_5)*%
X120818000Y-70728300D02*
X119590000Y-69500000D01*
X120122000Y-75795700D02*
X120818000Y-75099200D01*
X119091673Y-75795700D02*
X120122000Y-75795700D01*
X120818000Y-75099200D02*
X120818000Y-70728300D01*
X91526150Y-72223850D02*
X99973850Y-72223850D01*
X99973850Y-72223850D02*
X100000000Y-72250000D01*
X69500000Y-51000000D02*
X70302300Y-51000000D01*
X100000000Y-72250000D02*
X115545973Y-72250000D01*
X115545973Y-72250000D02*
X119091673Y-75795700D01*
X70302300Y-51000000D02*
X91526150Y-72223850D01*
%TO.N,Net-(U3-PIN_13)*%
X111800000Y-49180000D02*
X113896000Y-49180000D01*
X108840800Y-46220800D02*
X111800000Y-49180000D01*
X108250000Y-46220800D02*
X108840800Y-46220800D01*
%TO.N,Net-(U3-PIN_12)*%
X119474000Y-51603900D02*
X119590000Y-51720000D01*
X114500000Y-52000000D02*
X114896100Y-51603900D01*
X114896100Y-51603900D02*
X119474000Y-51603900D01*
%TO.N,Net-(U3-PIN_11)*%
X118067000Y-52736600D02*
X119590000Y-54260000D01*
X116000000Y-54000000D02*
X117263400Y-52736600D01*
X117263400Y-52736600D02*
X118067000Y-52736600D01*
%TO.N,Net-(U3-PIN_3)*%
X119590000Y-74580000D02*
X83158500Y-38148500D01*
%TO.N,Net-(U3-PIN_10)*%
X119590000Y-56800000D02*
X118352000Y-56800000D01*
%TO.N,Net-(U3-PIN_13)*%
X119590000Y-49180000D02*
X113896000Y-49180000D01*
D22*
%TO.N,+3.3V*%
X119476000Y-61994000D02*
X119590000Y-61880000D01*
%TO.N,+5V*%
X117250000Y-79660000D02*
X119590000Y-79660000D01*
X115580000Y-81330000D02*
X117250000Y-79660000D01*
%TD*%
D24*
X26210000Y-22290000D02*
X126210000Y-22290000D01*
X126210000Y-102290000D01*
X26210000Y-102290000D01*
X26210000Y-22290000D01*
M02*
